<svg width="63" height="63" viewBox="0 0 63 63" fill="none" xmlns="http://www.w3.org/2000/svg">
<g clip-path="url(#clip0_64_739)">
<path d="M32 14C22.3505 14 14 22.3505 14 32C14 41.6495 22.3505 49 32 49C41.6495 49 49 41.6495 49 32C49 22.3505 41.6495 14 32 14ZM32 47C23.7096 47 16 40.2904 16 32C16 23.7096 23.7096 16 32 16C40.2904 16 47 23.7096 47 32C47 40.2904 40.2904 47 32 47Z" fill="#DBEEEB"/>
<path d="M62 2.51085e-05C61.5829 -0.213338 61.3913 -0.254682 61 2.51085e-05C54.7329 4.08161 51 10.7096 51 18V34C51 35.7125 51.7438 37.7891 53 39L55 41V59C55 61.0355 56.8883 63 59 63C61.1117 63 63 61.0355 63 59V1.00003C63 0.544875 62.4171 0.213634 62 2.51085e-05ZM60 59C60 59.6785 59.7039 61 59 61C58.2961 61 58 59.6785 58 59V41C58 40.6737 58.2394 40.2309 58 40L55 37C54.226 36.254 54 35.0552 54 34V18C54 12.3423 55.6444 7.66904 60 4.00003V59Z" fill="#DBEEEB"/>
<path d="M29 22C28.7204 21.361 27.6549 20.7274 27 21C22.624 22.8224 20 27.3585 20 32C20 32.6947 20.2877 33 21 33C21.7123 33 23 32.6947 23 32C23 28.368 24.5756 24.426 28 23C28.655 22.7272 29.2796 22.6391 29 22Z" fill="#DBEEEB"/>
<path d="M32.0001 20H31.0001C30.1894 20.0037 29.9947 20.4477 30.0001 21C30.0055 21.55 30.194 22 31.0001 22C31.0033 22 30.9969 22 31.0001 22H32.0001C32.8108 22 33.0001 21.5523 33.0001 21C33.0001 20.4477 32.8108 20 32.0001 20Z" fill="#DBEEEB"/>
<path d="M48.9998 15C46.8049 12.8084 43.9075 11.2093 40.9998 10C37.9889 8.74787 34.3136 8 30.9998 8C27.2132 8 24.3519 8.38245 20.9998 10C20.3885 10.295 19.6885 11.4206 19.9998 12C20.3113 12.5792 21.3884 13.2949 21.9998 13C24.9993 11.5527 27.6088 10 30.9998 10C36.888 10 42.9447 12.9511 46.9998 17C47.2441 17.2439 47.671 17 47.9998 17C48.3069 17 48.7596 17.2161 48.9998 17C49.4975 16.5524 49.4721 15.4716 48.9998 15Z" fill="#DBEEEB"/>
<path d="M49.9999 44C49.4667 43.5761 48.4213 43.4637 47.9999 44C43.9769 49.1187 37.4783 53 30.9999 53C26.9452 53 23.392 51.1977 19.9999 49C19.4287 48.6297 18.3678 49.4254 17.9999 50C17.6319 50.5749 18.4285 50.6299 18.9999 51C22.7902 53.4557 26.4717 55 30.9999 55C38.2355 55 45.5072 51.7162 49.9999 46C50.4213 45.4639 50.5331 44.4241 49.9999 44Z" fill="#DBEEEB"/>
<path d="M18 47C17.9922 46.9904 18.0081 47.0094 18 47C17.4761 46.3797 16.6222 45.478 16 46C15.3778 46.5222 14.476 47.3797 15 48C15.0156 48.0196 14.9832 47.9806 15 48C15.2913 48.3382 16.5853 49 17 49C17.3396 49 16.7222 49.2376 17 49C17.6171 48.4718 18.5297 47.6151 18 47Z" fill="#DBEEEB"/>
<path d="M15 0C14.3405 0 14 0.320412 14 1V15H11C11.0001 14.9931 11 14.007 11 14V1C11 0.320412 10.6595 0 10 0C9.34054 0 9 0.320412 9 1V14C9 14.0069 9 14.9931 9 15H7C7.00012 14.9931 7 14.007 7 14V1C7 0.320412 6.65946 0 6 0C5.34054 0 5 0.320412 5 1V14C5 14.0069 5 14.9931 5 15H2V1C2 0.320412 1.65946 0 1 0C0.340537 0 0 0.320412 0 1V16C0 19.0183 1.35928 21.8224 4 23V59C4 61.0354 6.02484 63 8 63C9.97516 63 12 61.0354 12 59V23C14.6407 21.8224 16 19.0183 16 16V1C16 0.320412 15.6595 0 15 0ZM10 21C9.48919 21.1521 9 21.452 9 22V59C9 59.6785 8.65839 61 8 61C7.34161 61 7 59.6785 7 59V22C7 21.452 6.51093 21.1521 6 21C4.13934 20.4459 2.27976 18.9369 2 17H14C13.7204 18.9369 11.8607 20.4459 10 21Z" fill="#DBEEEB"/>
</g>
<defs>
<clipPath id="clip0_64_739">
<rect width="63" height="63" fill="white"/>
</clipPath>
</defs>
</svg>
