<svg width="63" height="63" viewBox="0 0 63 63" fill="none" xmlns="http://www.w3.org/2000/svg">
<g clip-path="url(#clip0_64_764)">
<path d="M60 49H58L59 43C59.6188 42.8069 59.6271 42.5302 60 42C60.3729 41.4698 61.0275 40.6476 61 40C60.9725 39.3524 60.4165 38.4967 60 38C59.5835 37.5034 59.6329 37.1399 59 37L58 35C57.7563 34.5084 56.4668 34.2885 56 34C55.5332 33.7115 55.5488 32.9981 55 33H46C45.9213 33 45.0778 32.9941 45 33V13C45 12.7389 45.1846 12.1846 45 12C44.8154 11.8154 44.2611 12 44 12H35V5.00001C35 4.73896 35.1846 4.18457 35 4.00001L31 9.20892e-06C30.8155 -0.18461 31.2611 6.49616e-05 31 9.20892e-06H15C14.739 6.49616e-05 14.1846 -0.18461 14 9.20892e-06L10 4.00001C9.8154 4.18457 10.0001 4.73896 10 5.00001V12H1.00002C0.738943 12 0.184622 11.8154 1.59144e-05 12C-0.18459 12.1846 1.59144e-05 12.7389 1.59144e-05 13V58C0.00157896 59.3049 0.0773239 61.0773 1.00002 62C1.92271 62.9227 3.69513 62.9984 5.00002 63H17C17.2611 63 16.8154 63.1846 17 63C17.1846 62.8154 18 62.2611 18 62C18 61.7389 17.1846 61.1846 17 61C16.8154 60.8154 17.2611 61 17 61H5.00002C4.2168 61 3.55383 60.5538 3.00002 60C2.4462 59.4462 2.00002 58.7832 2.00002 58V14H10V23C10 23.2611 9.81541 22.8154 10 23C10.1846 23.1846 10.7389 24 11 24H15C15.2611 24 14.8154 23.1846 15 23C15.1846 22.8154 16 23.2611 16 23V14H30V23C30 23.2611 29.8154 22.8154 30 23C30.1846 23.1846 30.7389 24 31 24H34C34.2611 24 34.8154 23.1846 35 23C35.1846 22.8154 35 23.2611 35 23V14H43V34C42.8256 34.1954 43.1177 34.7661 43 35L42 37C41.3671 37.1399 40.4165 37.5034 40 38C39.5835 38.4967 39.0275 39.3524 39 40C38.9725 40.6476 39.6271 41.4698 40 42C40.3729 42.5302 40.3813 42.8069 41 43L42 49H35V43C35.6188 42.8069 36.6271 42.5302 37 42C37.3729 41.4698 37.0275 40.6476 37 40C36.9725 39.3524 37.4165 38.4967 37 38C36.5835 37.5034 35.6329 37.1399 35 37L34 35C33.7563 34.5084 33.4668 34.2885 33 34C32.5332 33.7115 31.5488 32.9981 31 33H22C21.4513 32.9981 20.4668 33.7115 20 34C19.5332 34.2885 19.2438 34.5084 19 35L18 37C17.3671 37.1399 16.4165 37.5034 16 38C15.5835 38.4967 16.0275 39.3524 16 40C15.9725 40.6476 15.6271 41.4698 16 42C16.3729 42.5302 17.3813 42.8069 18 43L19 49H17C16.2168 49 15.5538 49.4462 15 50C14.4462 50.5538 14 51.2168 14 52C14 52.7832 14.4462 53.4462 15 54C15.5538 54.5538 16.2168 55 17 55H18L19 61C19.1598 61.639 19.4808 61.5948 20 62C20.5192 62.4052 21.3414 63.0002 22 63H31C31.6588 63.0001 32.4808 62.4054 33 62C33.5192 61.5946 33.8404 61.6391 34 61V60C34.0532 59.7868 33.8268 59.1352 34 59C34.1732 58.8648 34.7803 58.9998 35 59H42C42.2196 58.9998 41.8268 58.865 42 59C42.1732 59.135 42.9466 59.787 43 60V61C43.1598 61.639 43.4808 61.5948 44 62C44.5192 62.4052 45.3414 63.0002 46 63H55C55.6587 63.0002 55.4808 62.4052 56 62C56.5192 61.5948 56.8402 61.639 57 61L59 55H60C60.7832 55 61.4462 54.5538 62 54C62.5538 53.4462 63 52.7832 63 52C63 51.2168 62.5538 50.5538 62 50C61.4462 49.4462 60.7832 49 60 49ZM30 2.00001V4.00001H16V2.00001H30ZM14 22H12V5.00001L14 3.00001V22ZM16 12V6.00001H30V12H16ZM33 22H32V3.00001L33 5.00001V22ZM55 35C55.1828 35.0001 54.8446 35.9039 55 36C55.1554 36.0961 55.9183 35.8365 56 36V37H44L45 36C45.0817 35.8365 44.8446 36.0961 45 36C45.1554 35.9039 45.8173 35.0001 46 35H55ZM42 39H58C58.2611 39 58.8154 39.8154 59 40C59.1846 40.1846 59 39.7389 59 40C59 40.2611 59.1846 40.8154 59 41C58.8154 41.1846 58.2611 41 58 41H42C41.7389 41 42.1846 41.1846 42 41C41.8154 40.8154 41 40.2611 41 40C41 39.7389 41.8154 40.1846 42 40C42.1846 39.8154 41.7389 39 42 39ZM43 43H57L56 49H44L43 43ZM21 36C21.0817 35.8365 20.8446 36.0961 21 36C21.1554 35.9039 21.8173 35.0001 22 35H31C31.1828 35.0001 31.8446 35.9039 32 36C32.1554 36.0961 31.9183 35.8365 32 36L33 37H20L21 36ZM19 39H34C34.2611 39 34.8154 39.8154 35 40C35.1846 40.1846 35 39.7389 35 40C35 40.2611 35.1846 40.8154 35 41C34.8154 41.1846 34.2611 41 34 41H19C18.7389 41 18.1846 41.1846 18 41C17.8154 40.8154 18 40.2611 18 40C18 39.7389 17.8154 40.1846 18 40C18.1846 39.8154 18.7389 39 19 39ZM20 43H33V49H21L20 43ZM60 53H54C53.7389 53 53.1846 52.8154 53 53C52.8154 53.1846 53 53.7389 53 54C53 54.2611 52.8154 54.8154 53 55C53.1846 55.1846 53.7389 55 54 55H57L56 60C55.9468 60.2132 55.1732 60.8648 55 61C54.8268 61.1352 55.2198 61.0002 55 61H46C45.7804 61.0002 45.1732 61.135 45 61C44.8268 60.865 45.0534 60.213 45 60V59C44.8402 58.3611 44.5192 58.4052 44 58C43.4808 57.5948 42.6587 56.9999 42 57H35C34.3412 56.9999 33.5192 57.5946 33 58C32.4808 58.4054 32.1597 58.3609 32 59V60C31.9468 60.2132 32.1732 60.8648 32 61C31.8268 61.1352 31.2198 61.0002 31 61H22C21.7803 61.0002 22.1732 61.1352 22 61C21.8268 60.8648 21.0532 60.2132 21 60L20 55H50C50.2611 55 50.8154 55.1846 51 55C51.1846 54.8154 51 54.2611 51 54C51 53.7389 51.1846 53.1846 51 53C50.8154 52.8154 50.2611 53 50 53H17C16.7389 53 16.1846 53.1846 16 53C15.8154 52.8154 16 52.2611 16 52C16 51.7389 15.8154 51.1846 16 51C16.1846 50.8154 16.7389 51 17 51H60C60.2611 51 60.8154 50.8154 61 51C61.1846 51.1846 61 51.7389 61 52C61 52.2611 61.1846 52.8154 61 53C60.8154 53.1846 60.2611 53 60 53Z" fill="#DBEEEB"/>
</g>
<defs>
<clipPath id="clip0_64_764">
<rect width="63" height="63" fill="white"/>
</clipPath>
</defs>
</svg>
