<svg width="63" height="63" viewBox="0 0 63 63" fill="none" xmlns="http://www.w3.org/2000/svg">
<g clip-path="url(#clip0_64_767)">
<path d="M22 47.1H22.1V47V46C22.1 43.0341 21.1569 40.0362 19.0711 37.9296C16.9843 35.8221 13.9358 34.9 11 34.9C8.06418 34.9 5.01572 35.8221 2.92894 37.9296C0.843128 40.0362 -0.1 43.0341 -0.1 46V47V47.1H0H22ZM19.8892 44.9H2.11079C2.35427 42.66 3.41282 40.5899 5.06756 39.0737C6.74171 37.5398 8.71838 37.1 11 37.1C13.2816 37.1 15.2583 37.5398 16.9324 39.0737C18.5872 40.5899 19.6457 42.66 19.8892 44.9Z" fill="#DBEEEB" stroke="#DBEEEB" stroke-width="0.2"/>
<path d="M2 45.9H1.89984L1.9 46.0002C1.90393 48.4241 3.13833 50.3756 4.93126 52.0726C6.72798 53.7732 9.44841 55.0963 11.9999 55.1L12.0002 55.1C14.5601 55.0956 16.2865 53.7626 18.0688 52.0726C19.8586 50.3754 21.1 48.4224 21.1 46V45.9H21H19H18.9V46C18.9 47.9046 18.3458 49.5885 16.9313 50.9274C15.5186 52.2645 13.0214 52.9 11 52.9C8.99173 52.9 7.48938 52.272 6.06874 50.9274C4.65423 49.5885 4.1 47.9046 4.1 46V45.9H4H2Z" fill="#DBEEEB" stroke="#DBEEEB" stroke-width="0.2"/>
<path d="M11.9999 51.1L12.0003 51.1C12.7272 51.0977 13.2346 51.0827 13.6899 50.9455C14.1493 50.8072 14.5478 50.5474 15.0674 50.0739C15.5917 49.5961 16.099 48.9168 16.4752 48.1904C16.8509 47.4651 17.1009 46.6831 17.1 45.9999L17.0999 45.9H17H15H14.9V46C14.9 46.429 14.8247 46.7562 14.6698 47.0505C14.514 47.3467 14.2739 47.6165 13.9328 47.9259C13.603 48.2251 13.1114 48.4694 12.5768 48.639C12.0432 48.8082 11.4756 48.9 11 48.9C10.5278 48.9 10.2181 48.8096 9.94371 48.6481C9.70232 48.5061 9.48632 48.3087 9.20845 48.0547C9.16313 48.0133 9.11617 47.9704 9.06718 47.9259C8.72606 47.6165 8.48604 47.3467 8.33016 47.0505C8.17529 46.7562 8.1 46.429 8.1 46V45.9H8H6H5.89987L5.9 46.0001C5.90087 46.6846 6.14953 47.4664 6.52424 48.1915C6.89945 48.9176 7.40593 49.5962 7.93282 50.0741C8.99909 51.0412 10.5448 51.0985 11.9999 51.1Z" fill="#DBEEEB" stroke="#DBEEEB" stroke-width="0.2"/>
<path d="M43.9998 56.1H44.0003C46.5485 56.0971 49.272 54.8798 51.0711 53.0705C52.8695 51.2618 54.0967 48.5636 54.1001 46.0001V45.9997C54.0993 45.7108 54.1241 45.4801 54.1478 45.2597C54.1572 45.1722 54.1664 45.0863 54.1738 44.999C54.1997 44.693 54.2004 44.386 54.0971 43.9756L54.0781 43.9H54.0001H52.0001H51.8718L51.9032 44.0244C51.981 44.333 51.9812 44.6535 51.9607 44.9862C51.9543 45.0906 51.9456 45.1972 51.9369 45.305C51.9184 45.5349 51.8994 45.7699 51.9001 46C51.8999 46.5358 51.7651 47.276 51.5721 48.0113C51.3794 48.7452 51.1312 49.4653 50.909 49.9589C50.7466 50.3195 50.6737 50.5959 50.6141 50.822C50.5901 50.913 50.5682 50.9959 50.5436 51.0728C50.4585 51.338 50.3321 51.5733 49.9339 51.9251C49.5245 52.2868 49.0386 52.7039 48.526 53.0702C48.0124 53.4372 47.4776 53.749 46.9708 53.9044C46.0671 54.1815 45.297 54.076 44.3726 53.9493C44.2554 53.9332 44.1358 53.9168 44.0131 53.9008C43.4723 53.8303 42.7078 53.7251 41.9633 53.5658C41.2155 53.4057 40.5011 53.1938 40.053 52.9151C39.1398 52.3472 38.6866 51.8465 38.0833 50.9444C37.4872 50.0532 37.2806 49.0654 37.0988 47.9834C37.0087 47.4477 36.9397 46.7181 36.9278 45.9906C36.9158 45.2615 36.9615 44.5428 37.0969 44.0253L37.1297 43.9H37.0001H35.0001H34.9227L34.9033 43.975C34.5324 45.4091 34.6104 46.5789 34.9021 48.0198C35.1964 49.4733 36.03 50.8974 36.9207 52.0608C37.0114 52.1792 37.1015 52.2983 37.1916 52.4175C37.9765 53.4555 38.7641 54.4971 39.9556 55.0895C41.2695 55.7429 42.529 56.0945 43.9998 56.1Z" fill="#DBEEEB" stroke="#DBEEEB" stroke-width="0.2"/>
<path d="M43.9999 52.1H44.0002H45.0002L45.0005 52.1C45.503 52.0984 45.8148 51.9566 46.1048 51.756C46.2012 51.6893 46.2971 51.6146 46.3954 51.5381C46.4405 51.503 46.4862 51.4675 46.5326 51.4321C46.6823 51.3182 46.8472 51.2006 47.0492 51.0872C47.8973 50.6109 48.5933 49.8709 49.0859 49.0515C49.2045 48.8543 49.3244 48.6902 49.4391 48.5391C49.4627 48.5079 49.4863 48.4771 49.5096 48.4466C49.5986 48.3305 49.6845 48.2182 49.7606 48.1038C49.9571 47.8085 50.0934 47.4919 50.1002 47.0014C50.107 46.5155 49.9681 45.9572 49.7726 45.422C49.5765 44.8853 49.3207 44.3644 49.0873 43.9508L49.0226 43.8362L48.9295 43.9293L47.9295 44.9293L47.8758 44.983L47.9131 45.0491C48.0499 45.2915 48.0562 45.6083 48.0192 45.9606C48.0056 46.0904 47.9867 46.2209 47.9678 46.3517C47.9612 46.3971 47.9546 46.4427 47.9482 46.4882C47.9238 46.6627 47.9026 46.8366 47.9002 46.9985C47.8978 47.1631 47.918 47.2802 47.9461 47.3722C47.9643 47.4319 47.9891 47.4876 48.0071 47.528C48.0144 47.5444 48.0205 47.5582 48.0247 47.5689C48.0405 47.6091 48.0466 47.6391 48.0371 47.6855C48.0262 47.7386 47.9937 47.8173 47.9146 47.9483C47.7597 48.2049 47.4045 48.6211 47.0149 49.0147C46.6244 49.4091 46.2137 49.7663 45.9515 49.9127C45.8157 49.9885 45.735 50.0207 45.6805 50.0319C45.633 50.0417 45.6043 50.036 45.5669 50.0219C45.5519 50.0162 45.5379 50.0101 45.5206 50.0026C45.5113 49.9985 45.5011 49.9941 45.4892 49.9891C45.4576 49.9757 45.4204 49.9609 45.3754 49.9475C45.2846 49.9203 45.1674 49.9 45.0002 49.9C44.8343 49.9 44.6588 49.9201 44.4838 49.9442C44.4279 49.9519 44.3723 49.96 44.317 49.9681C44.1966 49.9856 44.0773 50.003 43.958 50.016C43.6086 50.0542 43.2952 50.0501 43.049 49.9127C42.7868 49.7663 42.376 49.4091 41.9856 49.0147C41.5959 48.6211 41.2407 48.2049 41.0858 47.9483C41.0068 47.8173 40.9742 47.7386 40.9634 47.6855C40.9539 47.6391 40.9599 47.6091 40.9758 47.5689C40.9799 47.5582 40.9861 47.5444 40.9934 47.528C41.0114 47.4876 41.0361 47.4319 41.0544 47.3722C41.0825 47.2802 41.1027 47.1631 41.1002 46.9985C41.0978 46.8366 41.0767 46.6627 41.0522 46.4882C41.0459 46.4426 41.0393 46.3971 41.0327 46.3516C41.0137 46.2209 40.9948 46.0904 40.9812 45.9606C40.9443 45.6083 40.9506 45.2915 41.0873 45.0491L41.1246 44.983L41.0709 44.9293L40.0709 43.9293L39.9779 43.8362L39.9131 43.9508C39.6796 44.3644 39.4238 44.8853 39.2278 45.4219C39.0324 45.9571 38.8935 46.5155 38.9002 47.0014C38.907 47.4919 39.0432 47.8086 39.2398 48.1038C39.3159 48.2182 39.4018 48.3304 39.4907 48.4465C39.5141 48.4771 39.5377 48.5079 39.5613 48.5391C39.676 48.6902 39.7959 48.8542 39.9145 49.0515C40.4072 49.8709 41.103 50.611 41.9513 51.0872C42.1533 51.2006 42.3182 51.3182 42.4679 51.4321C42.5144 51.4675 42.5601 51.5031 42.6053 51.5383C42.7035 51.6148 42.7994 51.6894 42.8956 51.756C43.1856 51.9567 43.4974 52.0985 43.9999 52.1Z" fill="#DBEEEB" stroke="#DBEEEB" stroke-width="0.2"/>
<path d="M55 45.1H55.1V45V44H55.1002L55.0998 43.9932C54.8509 40.3566 53.1277 36.9327 51.0825 33.9435C49.0331 30.9481 46.3297 28.4461 43.0423 26.9094L42.9541 26.8682L42.9106 26.9553L41.9106 28.9553L41.8382 29.1H42H42.9778C45.785 30.4163 48.0913 32.5374 49.919 35.0587C51.7248 37.5497 52.5005 39.8542 52.8867 42.9H21H20.9V43V45V45.1H21H55Z" fill="#DBEEEB" stroke="#DBEEEB" stroke-width="0.2"/>
<path d="M10 37.1H10.1V37V33.0001C10.1072 27.7908 11.8117 22.149 15.0746 18.0668L16.0707 17.0707L16.1414 17L16.0707 16.9293L15.0707 15.9293L15.0197 15.8783L14.9553 15.9106L12.9553 16.9106L12.9356 16.9204L12.9219 16.9375C9.3646 21.3859 7.90772 27.3439 7.9 32.9999V33V37V37.1H8H10Z" fill="#DBEEEB" stroke="#DBEEEB" stroke-width="0.2"/>
<path d="M15.918 34.0574L15.9181 34.0573C13.7741 30.994 13.9741 27.0544 14.7271 23.8511C15.4807 20.645 16.7945 18.1493 16.9142 17.9488L16.9617 17.869L17.0447 17.9106L19.0447 18.9106L19.1397 18.958L19.0866 19.05C19.0855 19.052 19.0817 19.0581 19.0756 19.0681C18.9401 19.289 17.6275 21.4286 16.7297 24.1421C15.7891 26.9849 15.3166 30.4195 17.0806 32.9407C17.3311 33.2639 17.6165 33.3982 17.9431 33.5048C18.0199 33.5298 18.1001 33.5535 18.1829 33.578C18.4502 33.6571 18.7457 33.7445 19.0485 33.9126C19.8106 34.3354 21.1472 34.8105 22.0104 34.9005L22.015 34.901L22.015 34.9011C24.8073 35.324 26.5497 35.0144 27.9381 33.9215L15.918 34.0574ZM15.918 34.0574L15.9202 34.0602M15.918 34.0574L15.9202 34.0602M15.9202 34.0602C15.9875 34.1494 16.0517 34.2355 16.1137 34.3186C16.6698 35.0638 17.0524 35.5766 17.9506 36.0869C18.9376 36.6477 19.8525 36.971 20.9867 37.0991C21.4012 37.164 21.9542 37.1624 22.4992 37.1459C22.6918 37.1401 22.8832 37.1325 23.0681 37.1251C23.4117 37.1114 23.7329 37.0985 23.9975 37.1C25.9095 37.1862 27.5585 36.1958 29.0597 35.0803L29.0597 35.0803L29.0619 35.0786C29.9597 34.3716 30.6644 33.6448 31.1721 32.6956C31.6795 31.7467 31.9862 30.5829 32.0998 29.0072L32.1046 28.9405L32.0447 28.9106L30.0447 27.9106L29.911 27.8437M15.9202 34.0602L29.911 27.8437M29.911 27.8437L29.9003 27.9928M29.911 27.8437L29.9003 27.9928M29.9003 27.9928C29.8063 29.3011 29.651 30.5214 29.3497 31.5479M29.9003 27.9928L29.3497 31.5479M29.3497 31.5479C29.0482 32.5748 28.6035 33.3971 27.9382 33.9214L29.3497 31.5479Z" fill="#DBEEEB" stroke="#DBEEEB" stroke-width="0.2"/>
<path d="M16.9 19V19.1H17H19H19.0001C20.6261 19.0982 21.9434 18.1676 23.0697 17.0717C24.1998 15.9721 25.0982 14.5819 25.1 13.0001V12.9999C25.0982 11.4181 24.1998 10.0279 23.0697 8.92833C21.9434 7.83237 20.6261 6.90176 19.0001 6.9H19H17H16.9V7V19ZM21.9303 15.9283C21.2159 16.6236 20.1396 16.8826 19.1 16.8991V9.10083C20.1397 9.11718 21.2157 9.37637 21.9303 10.0717C22.6653 10.7869 22.899 11.956 22.9 13C22.899 14.0438 22.6651 15.2131 21.9303 15.9283Z" fill="#DBEEEB" stroke="#DBEEEB" stroke-width="0.2"/>
<path d="M18 18.1H18.0001C18.1357 18.0999 18.246 18.1113 18.3552 18.1226C18.4022 18.1275 18.4489 18.1323 18.4972 18.1362C18.6564 18.149 18.8186 18.1493 19.0247 18.0969L19.145 18.0663L19.0894 17.9553L18.1456 16.0675C18.1525 16.0585 18.1609 16.0446 18.1648 16.0259C18.1672 16.0141 18.1677 16.0014 18.1654 15.9884C18.1633 15.9755 18.1588 15.9642 18.1533 15.9548C18.1429 15.9368 18.1295 15.9263 18.1216 15.921C18.1132 15.9154 18.1056 15.9121 18.1007 15.9102C18.0956 15.9082 18.091 15.9069 18.0875 15.906C18.0806 15.9042 18.0743 15.9032 18.0695 15.9026C18.0673 15.9023 18.065 15.902 18.0627 15.9018L18.0533 15.8829L17.9875 15.8999C17.2599 15.8947 16.6097 15.4322 16.0682 14.9269C15.8486 14.7219 15.6344 14.6255 15.4729 14.5529C15.4238 14.5308 15.3796 14.5109 15.3416 14.4909C15.2588 14.4471 15.2035 14.4036 15.1658 14.3388C15.1271 14.2722 15.1 14.1712 15.1 14C15.1 13.3155 15.533 12.5726 16.0682 12.0731C16.6097 11.5678 17.2599 11.1053 17.9875 11.1L18.0533 11.1171L18.0627 11.0982C18.065 11.0979 18.0673 11.0977 18.0695 11.0974C18.0743 11.0968 18.0806 11.0958 18.0875 11.094C18.0909 11.0931 18.0956 11.0918 18.1007 11.0898C18.1056 11.0879 18.1132 11.0846 18.1216 11.079C18.1295 11.0737 18.1429 11.0631 18.1533 11.0451C18.1588 11.0357 18.1633 11.0245 18.1654 11.0116C18.1677 10.9986 18.1672 10.9859 18.1648 10.9741C18.1609 10.9554 18.1525 10.9415 18.1456 10.9325L19.0894 9.04471L19.1446 8.93438L19.0253 8.90323C18.8189 8.84938 18.6563 8.85034 18.4971 8.86375C18.4509 8.86765 18.4062 8.8724 18.3614 8.87716C18.2503 8.88898 18.1384 8.90087 18.0006 8.89999V8.89999H18C17.3573 8.89999 16.5761 8.93915 15.84 9.08544C15.1064 9.23125 14.4042 9.48601 13.9318 9.92688C13.4553 10.3716 13.2005 11.1003 13.0625 11.8508C12.9239 12.6052 12.9 13.4015 12.9 14C12.9 15.1976 12.9948 16.1987 13.9318 17.0731C14.4042 17.514 15.1064 17.7687 15.84 17.9145C16.5761 18.0608 17.3573 18.1 18 18.1Z" fill="#DBEEEB" stroke="#DBEEEB" stroke-width="0.2"/>
<path d="M31 29.1H42C42.857 29.1 43.4876 28.6389 44.0698 28.0716C44.6555 27.5008 45.1 26.8348 45.1 26C45.1 25.1652 44.6555 24.4992 44.0698 23.9284C43.4876 23.3611 42.857 22.9 42 22.9H31C30.143 22.9 29.5124 23.3611 28.9302 23.9284C28.3445 24.4992 27.9 25.1652 27.9 26C27.9 26.8348 28.3445 27.5008 28.9302 28.0716C29.5124 28.6389 30.143 29.1 31 29.1ZM30.0698 25.0716C30.1552 24.9884 30.2735 24.9799 30.4452 25.009C30.5002 25.0183 30.5543 25.0302 30.6113 25.0428C30.6436 25.0499 30.6769 25.0572 30.7118 25.0644C30.8042 25.0833 30.9028 25.1 31 25.1H42C42.0972 25.1 42.1958 25.0833 42.2882 25.0644C42.3231 25.0572 42.3564 25.0499 42.3887 25.0428C42.4457 25.0302 42.4998 25.0183 42.5548 25.009C42.7265 24.9799 42.8448 24.9884 42.9302 25.0716C43.014 25.1533 43.0234 25.2716 42.9934 25.4459C42.9837 25.5024 42.9712 25.5581 42.958 25.6167C42.951 25.6482 42.9437 25.6805 42.9366 25.7142C42.9172 25.8064 42.9 25.9046 42.9 26C42.9 26.0954 42.9172 26.1936 42.9366 26.2858C42.9437 26.3195 42.951 26.3518 42.958 26.3833C42.9712 26.4419 42.9837 26.4976 42.9934 26.5541C43.0234 26.7284 43.014 26.8467 42.9302 26.9284C42.8448 27.0116 42.7265 27.0201 42.5548 26.991C42.4998 26.9817 42.4457 26.9698 42.3887 26.9572C42.3564 26.9501 42.3231 26.9428 42.2882 26.9356C42.1958 26.9167 42.0972 26.9 42 26.9H31C30.9028 26.9 30.8042 26.9167 30.7118 26.9356C30.6769 26.9428 30.6436 26.9501 30.6113 26.9572C30.5543 26.9698 30.5002 26.9817 30.4452 26.991C30.2735 27.0201 30.1552 27.0116 30.0698 26.9284C29.986 26.8467 29.9766 26.7284 30.0066 26.5541C30.0163 26.4976 30.0288 26.4419 30.042 26.3833C30.049 26.3518 30.0563 26.3195 30.0634 26.2858C30.0828 26.1936 30.1 26.0954 30.1 26C30.1 25.9046 30.0828 25.8064 30.0634 25.7142C30.0563 25.6805 30.049 25.6482 30.042 25.6167C30.0288 25.5581 30.0163 25.5024 30.0066 25.4459C29.9766 25.2716 29.986 25.1533 30.0698 25.0716Z" fill="#DBEEEB" stroke="#DBEEEB" stroke-width="0.2"/>
<path d="M51.9293 35.0707L52.0043 35.1457L52.0747 35.0664L60.0747 26.0664L60.1 26.038V26V23V22.9H60H58H57.9V23V24.9657L50.9211 33.9386L50.8669 34.0083L50.9293 34.0707L51.9293 35.0707Z" fill="#DBEEEB" stroke="#DBEEEB" stroke-width="0.2"/>
<path d="M63 24.1H63.1V24V9V8.9H63H46H45.9V9V24V24.1H46H63ZM60.9 21.9H48.1V11.1H60.9V21.9Z" fill="#DBEEEB" stroke="#DBEEEB" stroke-width="0.2"/>
<path d="M31.1295 12.3178C31.1225 12.2676 31.1157 12.2189 31.1104 12.1707C31.1294 12.1589 31.1407 12.1433 31.1468 12.1324C31.1545 12.1189 31.1579 12.1063 31.1595 12.0984C31.1614 12.0899 31.1622 12.082 31.1626 12.0756C31.1634 12.0629 31.1628 12.0502 31.1619 12.0391C31.1601 12.0167 31.1559 11.9917 31.1508 11.9685C31.1457 11.9454 31.1391 11.9209 31.1313 11.8997C31.1275 11.8892 31.1227 11.8775 31.1168 11.8664C31.1138 11.8608 31.1098 11.854 31.1048 11.8472C31.1001 11.8408 31.0922 11.8311 31.0804 11.8221C31.0688 11.8133 31.0472 11.8006 31.0175 11.8001C31.0101 11.8 31.0027 11.8007 30.9956 11.8021C30.9653 11.7612 30.9314 11.7201 30.8954 11.6797C30.8121 11.586 30.7132 11.4899 30.6121 11.3976C30.5108 11.3053 30.4061 11.2156 30.311 11.1349C30.2932 11.1198 30.2758 11.1051 30.2589 11.0907C30.1845 11.0278 30.1187 10.972 30.0667 10.9255C30.0075 10.8726 29.9377 10.7936 29.8581 10.6982C29.8276 10.6616 29.7952 10.6222 29.7619 10.5815C29.7111 10.5196 29.658 10.4548 29.6052 10.3928C29.5168 10.2888 29.4235 10.1856 29.3296 10.1001C29.2368 10.0157 29.1366 9.94237 29.0334 9.90578C28.8454 9.8391 28.6699 9.83672 28.5006 9.85074C28.4357 9.85611 28.3699 9.86409 28.3052 9.87195C28.2866 9.87421 28.268 9.87646 28.2496 9.87863C28.1666 9.88843 28.0839 9.89703 27.9983 9.90003H24H23.9V10V12V12.1H24H28V12.1002L28.006 12.0998C28.0635 12.0964 28.2841 12.0871 28.5042 12.0834C28.6142 12.0815 28.723 12.081 28.8107 12.0833C28.8457 12.0842 28.8766 12.0855 28.9025 12.0873C28.9035 12.1123 28.9046 12.1411 28.9059 12.1727C28.9098 12.2685 28.9147 12.3896 28.9178 12.5061C28.9207 12.6174 28.9221 12.7268 28.92 12.8141C28.919 12.8526 28.9174 12.8856 28.9151 12.9119C28.8868 12.9141 28.8515 12.9157 28.8107 12.9168C28.723 12.919 28.6142 12.9185 28.5042 12.9167C28.2841 12.9129 28.0635 12.9037 28.006 12.9002L28.006 12.9H28H24H23.9V13V15V15.1H24H27.9983C28.0839 15.103 28.1666 15.1116 28.2496 15.1214C28.268 15.1236 28.2866 15.1259 28.3052 15.1281C28.3699 15.136 28.4357 15.1439 28.5006 15.1493C28.6699 15.1633 28.8454 15.161 29.0334 15.0943C29.1366 15.0577 29.2368 14.9843 29.3296 14.8999C29.4235 14.8145 29.5168 14.7113 29.6052 14.6073C29.658 14.5453 29.7111 14.4805 29.7619 14.4185C29.7952 14.3779 29.8276 14.3385 29.8581 14.3019C29.9377 14.2065 30.0075 14.1275 30.0667 14.0746C30.1187 14.028 30.1845 13.9723 30.2589 13.9093C30.2759 13.895 30.2933 13.8802 30.311 13.8651C30.4061 13.7845 30.5108 13.6948 30.6121 13.6024C30.7132 13.5102 30.8121 13.4141 30.8954 13.3204C30.9777 13.2278 31.0493 13.1325 31.0909 13.0417C31.1732 12.862 31.1708 12.6739 31.1526 12.4997C31.1459 12.436 31.1376 12.3759 31.1295 12.3178Z" fill="#DBEEEB" stroke="#DBEEEB" stroke-width="0.2"/>
<path d="M43 22.9H42.9V23V25V25.1H43H48H48.1V25V23V22.9H48H43Z" fill="#DBEEEB" stroke="#DBEEEB" stroke-width="0.2"/>
<path d="M54 9.9H53.9V10V14V14.1H54H56H56.1V14V10V9.9H56H54Z" fill="#DBEEEB" stroke="#DBEEEB" stroke-width="0.2"/>
</g>
<defs>
<clipPath id="clip0_64_767">
<rect width="63" height="63" fill="white"/>
</clipPath>
</defs>
</svg>
