<svg width="544" height="79" viewBox="0 0 544 79" fill="none" xmlns="http://www.w3.org/2000/svg">
<path d="M542.953 8.55752C543.248 6.92713 542.165 5.36632 540.535 5.07136L513.966 0.264659C512.336 -0.030304 510.775 1.05227 510.48 2.68266C510.185 4.31305 511.268 5.87385 512.898 6.16881L536.515 10.4414L532.242 34.0581C531.947 35.6884 533.03 37.2492 534.66 37.5442C536.291 37.8392 537.851 36.7566 538.146 35.1262L542.953 8.55752ZM0.291193 10.4885C62.6384 53.7326 164.283 77.0477 266.894 77.9935C369.513 78.9393 473.902 57.5207 541.711 10.4885L538.291 5.55835C471.922 51.5919 368.961 72.934 266.95 71.9937C164.93 71.0534 64.6642 47.8357 3.71076 5.55835L0.291193 10.4885Z" fill="white"/>
</svg>
