<svg width="34" height="34" viewBox="0 0 34 34" fill="none" xmlns="http://www.w3.org/2000/svg">
<path d="M30.2476 5.66663H28.3337V4.24996C28.3337 3.49851 28.0352 2.77784 27.5038 2.24649C26.9724 1.71514 26.2518 1.41663 25.5003 1.41663C24.7489 1.41663 24.0282 1.71514 23.4969 2.24649C22.9655 2.77784 22.667 3.49851 22.667 4.24996V5.66663H19.8337V4.24996C19.8337 3.49851 19.5352 2.77784 19.0038 2.24649C18.4724 1.71514 17.7518 1.41663 17.0003 1.41663C16.2489 1.41663 15.5282 1.71514 14.9969 2.24649C14.4655 2.77784 14.167 3.49851 14.167 4.24996V5.66663H11.3337V4.24996C11.3337 3.49851 11.0352 2.77784 10.5038 2.24649C9.97244 1.71514 9.25177 1.41663 8.50033 1.41663C7.74888 1.41663 7.02821 1.71514 6.49686 2.24649C5.9655 2.77784 5.66699 3.49851 5.66699 4.24996V5.66663H3.75308C3.13374 5.66738 2.53998 5.91374 2.10204 6.35168C1.66411 6.78962 1.41774 7.38337 1.41699 8.00271V30.2444C1.41699 30.8642 1.66302 31.4587 2.10104 31.8972C2.53906 32.3358 3.13325 32.5825 3.75308 32.5833H30.2447C30.8646 32.5833 31.4591 32.3373 31.8976 31.8993C32.3362 31.4612 32.5829 30.867 32.5837 30.2472V8.00271C32.5829 7.38337 32.3366 6.78962 31.8986 6.35168C31.4607 5.91374 30.8669 5.66738 30.2476 5.66663ZM24.0837 4.24996C24.0837 3.87424 24.2329 3.5139 24.4986 3.24823C24.7643 2.98255 25.1246 2.83329 25.5003 2.83329C25.8761 2.83329 26.2364 2.98255 26.5021 3.24823C26.7677 3.5139 26.917 3.87424 26.917 4.24996V5.66663H24.0837V4.24996ZM15.5837 4.24996C15.5837 3.87424 15.7329 3.5139 15.9986 3.24823C16.2643 2.98255 16.6246 2.83329 17.0003 2.83329C17.3761 2.83329 17.7364 2.98255 18.0021 3.24823C18.2677 3.5139 18.417 3.87424 18.417 4.24996V5.66663H15.5837V4.24996ZM7.08366 4.24996C7.08366 3.87424 7.23292 3.5139 7.49859 3.24823C7.76427 2.98255 8.1246 2.83329 8.50033 2.83329C8.87605 2.83329 9.23638 2.98255 9.50206 3.24823C9.76774 3.5139 9.91699 3.87424 9.91699 4.24996V5.66663H7.08366V4.24996ZM31.167 30.2472C31.1666 30.4909 31.0696 30.7246 30.8973 30.8969C30.725 31.0693 30.4913 31.1663 30.2476 31.1666H3.75308C3.50935 31.1663 3.27571 31.0693 3.10336 30.8969C2.93102 30.7246 2.83403 30.4909 2.83366 30.2472V8.00271C2.83403 7.75898 2.93102 7.52534 3.10336 7.353C3.27571 7.18066 3.50935 7.08367 3.75308 7.08329H9.91699C9.91699 7.45902 9.76774 7.81935 9.50206 8.08503C9.23638 8.35071 8.87605 8.49996 8.50033 8.49996C8.31247 8.49996 8.1323 8.57459 7.99946 8.70743C7.86662 8.84027 7.79199 9.02043 7.79199 9.20829C7.79199 9.39616 7.86662 9.57632 7.99946 9.70916C8.1323 9.842 8.31247 9.91663 8.50033 9.91663C9.25177 9.91663 9.97244 9.61812 10.5038 9.08676C11.0352 8.55541 11.3337 7.83474 11.3337 7.08329H18.417C18.417 7.45902 18.2677 7.81935 18.0021 8.08503C17.7364 8.35071 17.3761 8.49996 17.0003 8.49996C16.8125 8.49996 16.6323 8.57459 16.4995 8.70743C16.3666 8.84027 16.292 9.02043 16.292 9.20829C16.292 9.39616 16.3666 9.57632 16.4995 9.70916C16.6323 9.842 16.8125 9.91663 17.0003 9.91663C17.7518 9.91663 18.4724 9.61812 19.0038 9.08676C19.5352 8.55541 19.8337 7.83474 19.8337 7.08329H26.917C26.917 7.45902 26.7677 7.81935 26.5021 8.08503C26.2364 8.35071 25.8761 8.49996 25.5003 8.49996C25.3125 8.49996 25.1323 8.57459 24.9995 8.70743C24.8666 8.84027 24.792 9.02043 24.792 9.20829C24.792 9.39616 24.8666 9.57632 24.9995 9.70916C25.1323 9.842 25.3125 9.91663 25.5003 9.91663C26.2518 9.91663 26.9724 9.61812 27.5038 9.08676C28.0352 8.55541 28.3337 7.83474 28.3337 7.08329H30.2476C30.4913 7.08367 30.725 7.18066 30.8973 7.353C31.0696 7.52534 31.1666 7.75898 31.167 8.00271V30.2472Z" fill="white"/>
<path d="M27.8828 11.3333H6.11717C5.62219 11.334 5.14771 11.531 4.79771 11.881C4.44771 12.231 4.25075 12.7054 4.25 13.2004V27.8828C4.25075 28.3777 4.44771 28.8522 4.79771 29.2022C5.14771 29.5522 5.62219 29.7492 6.11717 29.7499H27.8828C28.3778 29.7492 28.8523 29.5522 29.2023 29.2022C29.5523 28.8522 29.7492 28.3777 29.75 27.8828V13.2004C29.7492 12.7054 29.5523 12.231 29.2023 11.881C28.8523 11.531 28.3778 11.334 27.8828 11.3333ZM28.3333 27.8828C28.333 28.0021 28.2854 28.1165 28.201 28.2009C28.1166 28.2853 28.0022 28.3329 27.8828 28.3333H6.11717C5.9978 28.3329 5.88343 28.2853 5.79903 28.2009C5.71462 28.1165 5.66704 28.0021 5.66667 27.8828V13.2004C5.66704 13.0811 5.71462 12.9667 5.79903 12.8823C5.88343 12.7979 5.9978 12.7503 6.11717 12.7499H27.8828C28.0022 12.7503 28.1166 12.7979 28.201 12.8823C28.2854 12.9667 28.333 13.0811 28.3333 13.2004V27.8828Z" fill="white"/>
<path d="M24.084 21.4866C23.5212 21.4892 22.9822 21.7139 22.5843 22.1119C22.1863 22.5098 21.9616 23.0488 21.959 23.6116V24.0833C21.959 24.6469 22.1829 25.1874 22.5814 25.5859C22.9799 25.9844 23.5204 26.2083 24.084 26.2083C24.6476 26.2083 25.1881 25.9844 25.5866 25.5859C25.9851 25.1874 26.209 24.6469 26.209 24.0833V23.6116C26.2064 23.0488 25.9817 22.5098 25.5837 22.1119C25.1858 21.7139 24.6468 21.4892 24.084 21.4866ZM24.7923 24.0833C24.7923 24.2712 24.7177 24.4514 24.5849 24.5842C24.452 24.717 24.2718 24.7917 24.084 24.7917C23.8961 24.7917 23.716 24.717 23.5831 24.5842C23.4503 24.4514 23.3757 24.2712 23.3757 24.0833V23.6116C23.3757 23.4237 23.4503 23.2435 23.5831 23.1107C23.716 22.9779 23.8961 22.9032 24.084 22.9032C24.2718 22.9032 24.452 22.9779 24.5849 23.1107C24.7177 23.2435 24.7923 23.4237 24.7923 23.6116V24.0833Z" fill="white"/>
<path d="M17 21.4866C16.4372 21.4892 15.8982 21.7139 15.5003 22.1119C15.1023 22.5098 14.8776 23.0488 14.875 23.6116V24.0833C14.875 24.6469 15.0989 25.1874 15.4974 25.5859C15.8959 25.9844 16.4364 26.2083 17 26.2083C17.5636 26.2083 18.1041 25.9844 18.5026 25.5859C18.9011 25.1874 19.125 24.6469 19.125 24.0833V23.6116C19.1224 23.0488 18.8977 22.5098 18.4997 22.1119C18.1018 21.7139 17.5628 21.4892 17 21.4866ZM17.7083 24.0833C17.7083 24.2712 17.6337 24.4514 17.5009 24.5842C17.368 24.717 17.1879 24.7917 17 24.7917C16.8121 24.7917 16.632 24.717 16.4991 24.5842C16.3663 24.4514 16.2917 24.2712 16.2917 24.0833V23.6116C16.2917 23.4237 16.3663 23.2435 16.4991 23.1107C16.632 22.9779 16.8121 22.9032 17 22.9032C17.1879 22.9032 17.368 22.9779 17.5009 23.1107C17.6337 23.2435 17.7083 23.4237 17.7083 23.6116V24.0833Z" fill="white"/>
<path d="M9.91699 21.4866C9.35421 21.4892 8.81522 21.7139 8.41727 22.1119C8.01932 22.5098 7.7946 23.0488 7.79199 23.6116V24.0833C7.79199 24.6469 8.01588 25.1874 8.41439 25.5859C8.8129 25.9844 9.35341 26.2083 9.91699 26.2083C10.4806 26.2083 11.0211 25.9844 11.4196 25.5859C11.8181 25.1874 12.042 24.6469 12.042 24.0833V23.6116C12.0394 23.0488 11.8147 22.5098 11.4167 22.1119C11.0188 21.7139 10.4798 21.4892 9.91699 21.4866ZM10.6253 24.0833C10.6253 24.2712 10.5507 24.4514 10.4179 24.5842C10.285 24.717 10.1049 24.7917 9.91699 24.7917C9.72913 24.7917 9.54896 24.717 9.41612 24.5842C9.28329 24.4514 9.20866 24.2712 9.20866 24.0833V23.6116C9.20866 23.4237 9.28329 23.2435 9.41612 23.1107C9.54896 22.9779 9.72913 22.9032 9.91699 22.9032C10.1049 22.9032 10.285 22.9779 10.4179 23.1107C10.5507 23.2435 10.6253 23.4237 10.6253 23.6116V24.0833Z" fill="white"/>
<path d="M24.084 14.875C23.5212 14.8776 22.9822 15.1023 22.5843 15.5003C22.1863 15.8982 21.9616 16.4372 21.959 17V17.4717C21.959 18.0353 22.1829 18.5758 22.5814 18.9744C22.9799 19.3729 23.5204 19.5967 24.084 19.5967C24.6476 19.5967 25.1881 19.3729 25.5866 18.9744C25.9851 18.5758 26.209 18.0353 26.209 17.4717V17C26.2064 16.4372 25.9817 15.8982 25.5837 15.5003C25.1858 15.1023 24.6468 14.8776 24.084 14.875ZM24.7923 17.4717C24.7923 17.6596 24.7177 17.8398 24.5849 17.9726C24.452 18.1055 24.2718 18.1801 24.084 18.1801C23.8961 18.1801 23.716 18.1055 23.5831 17.9726C23.4503 17.8398 23.3757 17.6596 23.3757 17.4717V17C23.3757 16.8121 23.4503 16.632 23.5831 16.4991C23.716 16.3663 23.8961 16.2917 24.084 16.2917C24.2718 16.2917 24.452 16.3663 24.5849 16.4991C24.7177 16.632 24.7923 16.8121 24.7923 17V17.4717Z" fill="white"/>
<path d="M17 14.875C16.4372 14.8776 15.8982 15.1023 15.5003 15.5003C15.1023 15.8982 14.8776 16.4372 14.875 17V17.4717C14.875 18.0353 15.0989 18.5758 15.4974 18.9744C15.8959 19.3729 16.4364 19.5967 17 19.5967C17.5636 19.5967 18.1041 19.3729 18.5026 18.9744C18.9011 18.5758 19.125 18.0353 19.125 17.4717V17C19.1224 16.4372 18.8977 15.8982 18.4997 15.5003C18.1018 15.1023 17.5628 14.8776 17 14.875ZM17.7083 17.4717C17.7083 17.6596 17.6337 17.8398 17.5009 17.9726C17.368 18.1055 17.1879 18.1801 17 18.1801C16.8121 18.1801 16.632 18.1055 16.4991 17.9726C16.3663 17.8398 16.2917 17.6596 16.2917 17.4717V17C16.2917 16.8121 16.3663 16.632 16.4991 16.4991C16.632 16.3663 16.8121 16.2917 17 16.2917C17.1879 16.2917 17.368 16.3663 17.5009 16.4991C17.6337 16.632 17.7083 16.8121 17.7083 17V17.4717Z" fill="white"/>
<path d="M9.91699 14.875C9.35421 14.8776 8.81522 15.1023 8.41727 15.5003C8.01932 15.8982 7.7946 16.4372 7.79199 17V17.4717C7.79199 18.0353 8.01588 18.5758 8.41439 18.9744C8.8129 19.3729 9.35341 19.5967 9.91699 19.5967C10.4806 19.5967 11.0211 19.3729 11.4196 18.9744C11.8181 18.5758 12.042 18.0353 12.042 17.4717V17C12.0394 16.4372 11.8147 15.8982 11.4167 15.5003C11.0188 15.1023 10.4798 14.8776 9.91699 14.875ZM10.6253 17.4717C10.6253 17.6596 10.5507 17.8398 10.4179 17.9726C10.285 18.1055 10.1049 18.1801 9.91699 18.1801C9.72913 18.1801 9.54896 18.1055 9.41612 17.9726C9.28329 17.8398 9.20866 17.6596 9.20866 17.4717V17C9.20866 16.8121 9.28329 16.632 9.41612 16.4991C9.54896 16.3663 9.72913 16.2917 9.91699 16.2917C10.1049 16.2917 10.285 16.3663 10.4179 16.4991C10.5507 16.632 10.6253 16.8121 10.6253 17V17.4717Z" fill="white"/>
</svg>
