<svg width="48" height="49" viewBox="0 0 48 49" fill="none" xmlns="http://www.w3.org/2000/svg">
<mask id="mask0_124_1526" style="mask-type:alpha" maskUnits="userSpaceOnUse" x="0" y="0" width="48" height="49">
<path d="M44.9002 24.1511C44.8704 22.9438 44.7812 21.7167 44.5137 20.5391C44.0777 18.6391 43.0471 17.0755 41.0851 16.4521C38.9347 15.7692 37.0123 16.4125 35.2782 17.7484C35.189 17.8177 35.1097 17.9562 35.1097 18.0552C35.0998 19.3813 35.0998 20.6974 35.0998 22.0136C35.734 21.8849 36.2988 21.7167 36.8736 21.6672C37.6465 21.598 38.3699 21.7563 38.8158 22.4886C39.2617 23.211 39.5392 24.0126 39.5491 24.8537C39.5788 28.0897 39.5788 31.3257 39.5491 34.5518C39.5392 35.9768 38.7861 36.9268 37.4582 37.382C37.3492 37.4216 37.1907 37.5799 37.1907 37.6789C37.1808 39.2722 37.2006 40.8654 37.2105 42.4587C37.2105 42.7258 37.3195 42.8446 37.6168 42.8446C40.441 42.8743 43.275 40.9248 44.256 38.243C44.9299 36.4023 45.0092 34.4825 44.9992 32.5528C44.9794 29.772 44.9794 26.9616 44.9002 24.1511ZM39.3113 9.69311C40.6887 9.54467 42.076 9.38633 43.4534 9.2379C43.6813 9.2181 43.8002 9.15873 43.8002 8.90143C43.7903 7.29829 43.8002 5.68524 43.8002 4.00293C41.5508 4.26022 39.3806 4.49773 37.2204 4.75502C34.7431 5.04201 32.3153 5.34878 29.8379 5.61597C29.7587 6.63526 29.6794 7.70402 29.61 8.7431C29.5704 9.39623 29.5407 10.0494 29.5109 10.7421C30.8883 10.5936 32.2063 10.4551 33.5242 10.3166C35.4565 10.1087 37.3889 9.90093 39.3113 9.69311ZM33.8215 26.1501C33.8909 23.3891 33.9503 20.6282 34.0296 17.8771C34.0692 16.3036 34.1386 14.7302 34.1782 13.1468C34.1881 12.6817 34.1782 12.2166 34.1782 11.7317C33.9503 11.7317 33.7918 11.7218 33.6431 11.7317C32.4144 11.7911 31.1856 11.8801 29.9469 11.9098C29.5109 11.9197 29.4118 12.0879 29.4019 12.464C29.3821 13.3348 29.3425 14.1958 29.3127 15.0666C29.1839 18.4807 29.0551 21.9047 28.9362 25.3188C28.9164 25.7741 28.9362 26.2293 28.9362 26.7637C30.5019 26.7142 31.9982 26.6647 33.5044 26.6152C33.8215 26.6053 33.8116 26.3876 33.8215 26.1501ZM35.734 37.3325C34.5548 37.2039 33.9404 36.0659 33.9008 34.9575C33.8512 33.6216 33.8215 32.2757 33.8017 30.9397C33.8017 30.6033 33.7026 30.4647 33.3359 30.4746C32.0279 30.5142 30.71 30.5439 29.392 30.5538C29.0353 30.5538 28.9758 30.7022 28.9857 31.009C29.0056 31.8601 28.9956 32.7111 29.0254 33.5622C29.065 34.8684 29.0155 36.1945 29.2236 37.481C29.4911 39.1237 30.2938 40.5784 31.691 41.5383C32.9297 42.3894 34.3863 42.7258 35.9817 42.9139C35.9817 41.093 35.9817 39.3513 35.9718 37.5997C35.9817 37.5107 35.8331 37.3424 35.734 37.3325ZM9.93006 33.5622C8.02747 33.483 7.46264 32.8794 7.423 30.9694C7.39327 29.5147 7.423 28.06 7.39327 26.6053C7.38336 25.9918 7.314 25.3683 7.26445 24.7449H3.04307C3.04307 27.0012 2.93406 29.1684 3.06289 31.3257C3.34035 35.7492 5.70868 38.2331 9.87061 38.7378C10.4553 38.807 10.6733 38.6487 10.6534 38.0648C10.6237 36.8081 10.6336 35.5414 10.6534 34.2846C10.6634 33.7403 10.4553 33.582 9.93006 33.5622ZM3.01334 23.0725H7.28427C7.28427 21.8058 7.26445 20.5985 7.28427 19.3912C7.33382 16.9271 8.02747 16.1651 10.4553 15.8682C10.5048 15.8583 10.5444 15.8088 10.6435 15.7494V11.7218C7.75001 11.3952 4.56911 13.4239 3.52863 16.2442C2.69624 18.4708 3.13225 20.7766 3.01334 23.0725ZM20.5331 17.887C20.543 18.7875 20.543 19.6979 20.5529 20.5985C20.5529 21.212 20.5529 21.8256 20.5529 22.4292H25.4085C25.4085 20.3412 25.4977 18.362 25.3787 16.4026C25.2796 14.651 24.4274 13.2161 22.9113 12.2463C21.3555 11.2468 19.6214 11.0983 17.8377 11.2468C17.6693 11.2567 17.4017 11.5239 17.3918 11.6822C17.3522 12.9588 17.372 14.2453 17.372 15.5614C17.7485 15.5812 18.0161 15.601 18.2836 15.6109C19.9088 15.6703 20.5132 16.2739 20.5331 17.887ZM11.5354 43.0029H16.3513V6.92224C14.6965 7.10037 13.1209 7.2686 11.5354 7.43683V43.0029ZM25.4481 24.1511C24.0311 24.1511 22.723 24.1709 21.415 24.1412C20.8006 24.1214 20.6024 24.3391 20.6024 24.9527C20.6222 26.6845 20.5628 28.4064 20.5727 30.1382C20.5826 32.345 19.7304 33.5424 17.6197 33.7502C17.5504 33.7601 17.481 33.8195 17.4215 33.8492V38.3617C21.5735 38.5893 24.2293 36.3825 25.0715 33.1861C25.8742 30.2173 25.2697 27.1991 25.4481 24.1511Z" fill="url(#paint0_linear_124_1526)"/>
</mask>
<g mask="url(#mask0_124_1526)">
</g>
<path d="M44.9002 24.1511C44.8704 22.9438 44.7812 21.7167 44.5137 20.5391C44.0777 18.6391 43.0471 17.0755 41.0851 16.4521C38.9347 15.7692 37.0123 16.4125 35.2782 17.7484C35.189 17.8177 35.1097 17.9562 35.1097 18.0552C35.0998 19.3813 35.0998 20.6974 35.0998 22.0136C35.734 21.8849 36.2988 21.7167 36.8736 21.6672C37.6465 21.598 38.3699 21.7563 38.8158 22.4886C39.2617 23.211 39.5392 24.0126 39.5491 24.8537C39.5788 28.0897 39.5788 31.3257 39.5491 34.5518C39.5392 35.9768 38.7861 36.9268 37.4582 37.382C37.3492 37.4216 37.1907 37.5799 37.1907 37.6789C37.1808 39.2722 37.2006 40.8654 37.2105 42.4587C37.2105 42.7258 37.3195 42.8446 37.6168 42.8446C40.441 42.8743 43.275 40.9248 44.256 38.243C44.9299 36.4023 45.0092 34.4825 44.9992 32.5528C44.9794 29.772 44.9794 26.9616 44.9002 24.1511ZM39.3113 9.69311C40.6887 9.54467 42.076 9.38633 43.4534 9.2379C43.6813 9.2181 43.8002 9.15873 43.8002 8.90143C43.7903 7.29829 43.8002 5.68524 43.8002 4.00293C41.5508 4.26022 39.3806 4.49773 37.2204 4.75502C34.7431 5.04201 32.3153 5.34878 29.8379 5.61597C29.7587 6.63526 29.6794 7.70402 29.61 8.7431C29.5704 9.39623 29.5407 10.0494 29.5109 10.7421C30.8883 10.5936 32.2063 10.4551 33.5242 10.3166C35.4565 10.1087 37.3889 9.90093 39.3113 9.69311ZM33.8215 26.1501C33.8909 23.3891 33.9503 20.6282 34.0296 17.8771C34.0692 16.3036 34.1386 14.7302 34.1782 13.1468C34.1881 12.6817 34.1782 12.2166 34.1782 11.7317C33.9503 11.7317 33.7918 11.7218 33.6431 11.7317C32.4144 11.7911 31.1856 11.8801 29.9469 11.9098C29.5109 11.9197 29.4118 12.0879 29.4019 12.464C29.3821 13.3348 29.3425 14.1958 29.3127 15.0666C29.1839 18.4807 29.0551 21.9047 28.9362 25.3188C28.9164 25.7741 28.9362 26.2293 28.9362 26.7637C30.5019 26.7142 31.9982 26.6647 33.5044 26.6152C33.8215 26.6053 33.8116 26.3876 33.8215 26.1501ZM35.734 37.3325C34.5548 37.2039 33.9404 36.0659 33.9008 34.9575C33.8512 33.6216 33.8215 32.2757 33.8017 30.9397C33.8017 30.6033 33.7026 30.4647 33.3359 30.4746C32.0279 30.5142 30.71 30.5439 29.392 30.5538C29.0353 30.5538 28.9758 30.7022 28.9857 31.009C29.0056 31.8601 28.9956 32.7111 29.0254 33.5622C29.065 34.8684 29.0155 36.1945 29.2236 37.481C29.4911 39.1237 30.2938 40.5784 31.691 41.5383C32.9297 42.3894 34.3863 42.7258 35.9817 42.9139C35.9817 41.093 35.9817 39.3513 35.9718 37.5997C35.9817 37.5107 35.8331 37.3424 35.734 37.3325ZM9.93006 33.5622C8.02747 33.483 7.46264 32.8794 7.423 30.9694C7.39327 29.5147 7.423 28.06 7.39327 26.6053C7.38336 25.9918 7.314 25.3683 7.26445 24.7449H3.04307C3.04307 27.0012 2.93406 29.1684 3.06289 31.3257C3.34035 35.7492 5.70868 38.2331 9.87061 38.7378C10.4553 38.807 10.6733 38.6487 10.6534 38.0648C10.6237 36.8081 10.6336 35.5414 10.6534 34.2846C10.6634 33.7403 10.4553 33.582 9.93006 33.5622ZM3.01334 23.0725H7.28427C7.28427 21.8058 7.26445 20.5985 7.28427 19.3912C7.33382 16.9271 8.02747 16.1651 10.4553 15.8682C10.5048 15.8583 10.5444 15.8088 10.6435 15.7494V11.7218C7.75001 11.3952 4.56911 13.4239 3.52863 16.2442C2.69624 18.4708 3.13225 20.7766 3.01334 23.0725ZM20.5331 17.887C20.543 18.7875 20.543 19.6979 20.5529 20.5985C20.5529 21.212 20.5529 21.8256 20.5529 22.4292H25.4085C25.4085 20.3412 25.4977 18.362 25.3787 16.4026C25.2796 14.651 24.4274 13.2161 22.9113 12.2463C21.3555 11.2468 19.6214 11.0983 17.8377 11.2468C17.6693 11.2567 17.4017 11.5239 17.3918 11.6822C17.3522 12.9588 17.372 14.2453 17.372 15.5614C17.7485 15.5812 18.0161 15.601 18.2836 15.6109C19.9088 15.6703 20.5132 16.2739 20.5331 17.887ZM11.5354 43.0029H16.3513V6.92224C14.6965 7.10037 13.1209 7.2686 11.5354 7.43683V43.0029ZM25.4481 24.1511C24.0311 24.1511 22.723 24.1709 21.415 24.1412C20.8006 24.1214 20.6024 24.3391 20.6024 24.9527C20.6222 26.6845 20.5628 28.4064 20.5727 30.1382C20.5826 32.345 19.7304 33.5424 17.6197 33.7502C17.5504 33.7601 17.481 33.8195 17.4215 33.8492V38.3617C21.5735 38.5893 24.2293 36.3825 25.0715 33.1861C25.8742 30.2173 25.2697 27.1991 25.4481 24.1511Z" fill="white"/>
<defs>
<linearGradient id="paint0_linear_124_1526" x1="5.59502" y1="23.5016" x2="45.3045" y2="23.5016" gradientUnits="userSpaceOnUse">
<stop offset="0.0344" stop-color="#273580"/>
<stop offset="0.2149" stop-color="#46317C"/>
<stop offset="0.6071" stop-color="#942673"/>
<stop offset="0.8615" stop-color="#CA1E6D"/>
</linearGradient>
</defs>
</svg>
