<svg width="32" height="33" viewBox="0 0 32 33" fill="none" xmlns="http://www.w3.org/2000/svg">
<path d="M16 8.05877C11.4914 8.05877 8.05583 11.4933 8.05583 16.0029C8.05583 20.5126 11.4914 23.9471 16 23.9471C20.5086 23.9471 23.9442 20.5126 23.9442 16.0029C23.9442 11.4933 20.5086 8.05877 16 8.05877ZM16 21.299C13.0864 21.299 10.7039 18.9243 10.7039 16.0029C10.7039 13.0816 13.0793 10.7068 16 10.7068C18.9207 10.7068 21.2961 13.0816 21.2961 16.0029C21.2961 18.9243 18.9136 21.299 16 21.299ZM26.5922 8.05877C26.5922 9.11527 24.9934 9.3828 23.9442 9.3828C22.8879 9.3828 22.6201 9.10818 22.6201 8.05877C22.6201 7.00936 22.895 5.41071 23.9442 5.41071C24.9934 5.41071 26.5922 7.00936 26.5922 8.05877ZM31.8883 9.3828C31.7678 6.83726 31.1047 4.62041 29.2403 2.76266C27.383 0.904917 25.1651 0.242238 22.6201 0.114607C19.9972 -0.0342961 12.0028 -0.0342961 9.37986 0.114607C6.84197 0.235148 4.62413 0.904917 2.75971 2.76266C0.895289 4.62041 0.239256 6.83726 0.111653 9.3828C-0.0372175 12.0063 -0.0372175 19.9995 0.111653 22.6231C0.232167 25.1686 0.895289 27.3855 2.75971 29.2432C4.62413 31.1009 6.83488 31.7636 9.37986 31.8913C12.0028 32.0402 19.9972 32.0402 22.6201 31.8913C25.1651 31.7707 27.383 31.108 29.2403 29.2432C31.0976 27.3855 31.7607 25.1686 31.8883 22.6231C32.0372 19.9995 32.0372 12.0063 31.8883 9.3828ZM27.9163 25.2711C27.3633 26.6609 26.6647 27.359 25.2682 27.9192C23.1769 28.7488 18.311 29.2432 16 29.2432C13.689 29.2432 8.81598 28.7417 6.7318 27.9192C5.34234 27.3661 4.64377 26.668 4.08374 25.2711C3.25432 23.1794 2.75971 18.3145 2.75971 16.0029C2.75971 13.6914 3.26141 8.81939 4.08374 6.73474C4.63669 5.34498 5.33525 4.64685 6.7318 4.08669C8.82307 3.25708 13.689 2.76266 16 2.76266C18.311 2.76266 23.184 3.26418 25.2682 4.08669C26.6577 4.63976 27.3562 5.33789 27.9163 6.73474C28.7457 8.82648 29.2403 13.6914 29.2403 16.0029C29.2403 18.3145 28.7457 23.1865 27.9163 25.2711Z" fill="white"/>
</svg>
