<svg width="40" height="40" viewBox="0 0 40 40" fill="none" xmlns="http://www.w3.org/2000/svg">
<path d="M38 31.0001L34 28.0001L30 26.0001C29.2773 25.5192 28.5336 25.3152 28 26.0001L26 29.0001C25.5022 29.6465 24.7138 30.3953 24 30.0001C22.4276 29.1254 20.1026 28.1079 16 24.0001C11.8974 19.8922 10.8747 17.5724 10 16.0001C9.6048 15.2862 10.3536 14.4978 11 14.0001L14 12.0001C14.6848 11.4666 14.4809 10.7229 14 10.0001L12 6.00005L9.00001 2.00005C8.50892 1.26337 7.75926 0.544726 7.00001 1.00005L3.00001 3.00005C2.10072 3.52989 1.2859 4.99611 1.00001 6.00005C0.0900317 9.31781 0.270674 16.2707 12 28.0001C23.7294 39.7294 30.6823 39.9101 34 39.0001C35.004 38.7142 36.4702 37.8994 37 37.0001L39 33.0001C39.4554 32.2407 38.7367 31.4912 38 31.0001Z" fill="#E14287"/>
<path d="M21.9999 7C27.6305 7.00625 31.9936 11.3693 31.9999 17C31.9999 17.3313 31.6685 18 31.9999 18C32.3312 18 32.9999 17.3314 32.9999 17C32.9929 10.7069 28.293 6.00693 21.9999 6C21.6685 6 20.9999 6.66858 20.9999 7C20.9998 7.33128 21.6685 7 21.9999 7Z" fill="#E14287"/>
<path d="M21.9999 10C25.9034 10.0046 28.9953 13.0965 28.9999 17C28.9999 17.355 28.6448 18 28.9999 18C29.3549 18 29.9999 17.3551 29.9999 17C29.9946 12.3867 26.6132 9.00532 21.9999 9C21.6449 9 20.9999 9.64491 20.9999 10C20.9999 10.3551 21.6448 10 21.9999 10Z" fill="#E14287"/>
<path d="M21.0001 14C22.3801 14.0016 23.9984 14.62 24.0001 16C24.0001 16.2761 23.7239 17 24.0001 17C24.2762 17 25.0001 16.2762 25.0001 16C24.9979 14.0679 23.9321 13.0022 22.0001 13C21.724 13 21.0001 13.7238 21.0001 14C20.7239 14 21 14.2761 21.0001 14Z" fill="#E14287"/>
</svg>
