<svg width="192" height="28" viewBox="0 0 192 28" fill="none" xmlns="http://www.w3.org/2000/svg">
<path d="M0.507401 25.2277C0.460052 25.4998 0.642212 25.7587 0.914261 25.8061L5.34763 26.5777C5.61967 26.625 5.8786 26.4429 5.92595 26.1708C5.9733 25.8987 5.79114 25.6398 5.51909 25.5925L1.57832 24.9066L2.26419 20.9659C2.31154 20.6938 2.12938 20.4349 1.85732 20.3875C1.58527 20.3402 1.32634 20.5223 1.27899 20.7944L0.507401 25.2277ZM191.288 24.9045C190.499 24.3499 189.693 23.8044 188.869 23.2682L188.324 24.1063C189.138 24.6361 189.934 25.1748 190.712 25.7224L191.288 24.9045ZM183.837 20.2251C182.158 19.281 180.422 18.3702 178.633 17.4929L178.193 18.3908C179.966 19.2602 181.685 20.1623 183.347 21.0967L183.837 20.2251ZM173.296 15.041C171.524 14.2785 169.708 13.5457 167.853 12.8428L167.499 13.778C169.341 14.4759 171.142 15.2032 172.9 15.9596L173.296 15.041ZM162.327 10.8756C160.495 10.2633 158.629 9.67811 156.733 9.12035L156.451 10.0797C158.335 10.6341 160.189 11.2157 162.011 11.8241L162.327 10.8756ZM151.083 7.5612C149.208 7.07699 147.309 6.61824 145.387 6.18517L145.167 7.16071C147.079 7.59156 148.969 8.04787 150.833 8.52943L151.083 7.5612ZM139.651 4.98155C137.747 4.61054 135.823 4.26386 133.884 3.94169L133.72 4.92817C135.65 5.24885 137.565 5.5939 139.46 5.96311L139.651 4.98155ZM128.09 3.05859C126.164 2.79096 124.225 2.54696 122.275 2.32673L122.163 3.32041C124.104 3.53969 126.035 3.78264 127.952 4.04907L128.09 3.05859ZM116.443 1.74183C114.503 1.57149 112.554 1.4244 110.599 1.30072L110.536 2.29872C112.483 2.4219 114.423 2.56838 116.356 2.738L116.443 1.74183ZM104.749 1.00127C102.801 0.924967 100.848 0.87183 98.8939 0.842016L98.8787 1.8419C100.825 1.87159 102.77 1.92451 104.71 2.00051L104.749 1.00127ZM93.0352 0.822643C91.0816 0.839554 89.1282 0.87989 87.177 0.943811L87.2098 1.94328C89.1529 1.87962 91.0983 1.83945 93.0439 1.82261L93.0352 0.822643ZM81.3235 1.207C79.3703 1.31883 77.4214 1.45462 75.479 1.61454L75.5611 2.61116C77.495 2.45194 79.4356 2.31673 81.3807 2.20537L81.3235 1.207ZM69.6478 2.16962C67.7003 2.38037 65.7616 2.61594 63.834 2.87649L63.9679 3.86748C65.8867 3.60813 67.8166 3.37363 69.7554 3.16381L69.6478 2.16962ZM58.0352 3.74162C56.0965 4.05856 54.1715 4.40161 52.2626 4.77096L52.4525 5.75275C54.3517 5.38528 56.2672 5.04393 58.1965 4.72851L58.0352 3.74162ZM46.523 5.97232C44.6032 6.40533 42.7027 6.86613 40.824 7.35493L41.0758 8.32271C42.9437 7.83673 44.8336 7.37848 46.743 6.94781L46.523 5.97232ZM35.1747 8.92962C33.2849 9.49267 31.421 10.0857 29.5856 10.7091L29.9072 11.6559C31.7302 11.0368 33.5822 10.4475 35.4602 9.88799L35.1747 8.92962ZM24.0699 12.7079C22.2263 13.4198 20.4165 14.1647 18.6436 14.9428L19.0455 15.8585C20.8041 15.0866 22.6 14.3475 24.4301 13.6407L24.0699 12.7079ZM13.327 17.4327C11.5548 18.3179 9.82649 19.2397 8.14552 20.1985L8.64098 21.0672C10.3053 20.1178 12.0174 19.2046 13.7738 18.3273L13.327 17.4327ZM3.13136 23.2626C2.31111 23.7999 1.50459 24.3472 0.712311 24.9045L1.28769 25.7224C2.07072 25.1715 2.86807 24.6305 3.67926 24.0992L3.13136 23.2626ZM0.0148163 25.142C-0.079895 25.6861 0.284424 26.204 0.828537 26.2987L9.69525 27.8418C10.2393 27.9365 10.7572 27.5722 10.8519 27.0281C10.9466 26.484 10.5823 25.9662 10.0382 25.8715L2.15666 24.4998L3.52837 16.6182C3.62306 16.0741 3.25874 15.5563 2.71465 15.4616C2.17053 15.3669 1.65268 15.7312 1.55798 16.2753L0.0148163 25.142ZM191.575 24.4956C190.782 23.9374 189.971 23.3886 189.142 22.8492L188.051 24.5253C188.86 25.0519 189.651 25.5873 190.425 26.1314L191.575 24.4956ZM184.082 19.7892C182.395 18.8404 180.65 17.9252 178.853 17.044L177.972 18.8397C179.738 19.7052 181.449 20.603 183.102 21.5325L184.082 19.7892ZM173.493 14.5818C171.714 13.8162 169.892 13.0807 168.031 12.3753L167.322 14.2455C169.157 14.9409 170.952 15.6655 172.703 16.4189L173.493 14.5818ZM162.486 10.4014C160.647 9.78706 158.776 9.20009 156.874 8.64068L156.31 10.5593C158.189 11.1122 160.037 11.6919 161.852 12.2983L162.486 10.4014ZM151.208 7.07709C149.328 6.59154 147.423 6.13158 145.497 5.6974L145.057 7.64848C146.964 8.07822 148.849 8.53332 150.708 9.01355L151.208 7.07709ZM139.747 4.49078C137.838 4.11887 135.91 3.77137 133.966 3.44845L133.638 5.42141C135.564 5.74135 137.474 6.08557 139.365 6.45388L139.747 4.49078ZM128.159 2.56335C126.229 2.29513 124.285 2.05059 122.331 1.82989L122.106 3.81725C124.044 4.03606 125.97 4.27847 127.884 4.54431L128.159 2.56335ZM116.487 1.24374C114.542 1.07305 112.59 0.925653 110.631 0.801714L110.504 2.79772C112.447 2.92064 114.384 3.06682 116.312 3.23608L116.487 1.24374ZM104.769 0.501656C102.816 0.425196 100.86 0.371948 98.9016 0.342073L98.8711 2.34184C100.813 2.37147 102.754 2.42429 104.69 2.50012L104.769 0.501656ZM93.0309 0.322662C91.0733 0.339607 89.1159 0.380026 87.1607 0.44408L87.2262 2.44301C89.1652 2.37948 91.1066 2.33939 93.0482 2.32259L93.0309 0.322662ZM81.295 0.707821C79.3376 0.819883 77.3845 0.955963 75.438 1.11622L75.6021 3.10948C77.5319 2.9506 79.4683 2.81567 81.4093 2.70455L81.295 0.707821ZM69.594 1.67252C67.6422 1.88375 65.6991 2.11985 63.767 2.381L64.0349 4.36297C65.9492 4.10423 67.8747 3.87026 69.8092 3.66091L69.594 1.67252ZM57.9545 3.24817C56.0111 3.56588 54.0814 3.90978 52.1676 4.28006L52.5475 6.24364C54.4419 5.87712 56.3525 5.53661 58.2772 5.22196L57.9545 3.24817ZM46.4129 5.48457C44.488 5.91875 42.5822 6.38083 40.6981 6.87103L41.2017 8.8066C43.0642 8.32202 44.9488 7.86506 46.853 7.43556L46.4129 5.48457ZM35.0319 8.45044C33.1363 9.01523 31.2663 9.61021 29.4248 10.2356L30.068 12.1294C31.8849 11.5123 33.7308 10.925 35.603 10.3672L35.0319 8.45044ZM23.8898 12.2414C22.0394 12.956 20.2227 13.7037 18.4427 14.4849L19.2464 16.3163C20.9979 15.5476 22.7869 14.8113 24.6103 14.1071L23.8898 12.2414ZM13.1036 16.9854C11.3235 17.8745 9.58707 18.8007 7.89778 19.7642L8.8887 21.5015C10.5448 20.5569 12.2487 19.648 13.9973 18.7746L13.1036 16.9854ZM2.85742 22.8444C2.03264 23.3846 1.22153 23.935 0.424606 24.4956L1.57539 26.1314C2.35379 25.5837 3.14655 25.0458 3.9532 24.5175L2.85742 22.8444Z" fill="#E14287"/>
</svg>
