<svg width="137" height="141" viewBox="0 0 137 141" fill="none" xmlns="http://www.w3.org/2000/svg">
<path d="M136.288 135.073C136.514 134.914 136.568 134.602 136.409 134.376L133.82 130.696C133.661 130.47 133.349 130.415 133.123 130.574C132.897 130.733 132.843 131.045 133.002 131.271L135.303 134.543L132.032 136.844C131.806 137.003 131.752 137.315 131.911 137.541C132.07 137.767 132.381 137.821 132.607 137.662L136.288 135.073ZM1.15712 0.399209C1.32242 1.34894 1.50689 2.3048 1.71013 3.26632L2.68851 3.05952C2.48769 2.1094 2.30549 1.16532 2.14231 0.227744L1.15712 0.399209ZM3.11669 8.97656C3.63628 10.8312 4.21986 12.7029 4.86461 14.5883L5.81082 14.2648C5.17184 12.3962 4.59389 10.5425 4.07961 8.70679L3.11669 8.97656ZM6.90494 20.0961C7.61878 21.8883 8.38417 23.69 9.19877 25.4987L10.1106 25.088C9.30175 23.2922 8.54214 21.504 7.83395 19.7261L6.90494 20.0961ZM11.7152 30.7972C12.5782 32.5262 13.4837 34.2592 14.4297 35.994L15.3076 35.5152C14.3673 33.7908 13.4674 32.0684 12.6099 30.3506L11.7152 30.7972ZM17.3224 41.0917C18.3057 42.7598 19.3247 44.4275 20.3775 46.0928L21.2227 45.5584C20.1753 43.9017 19.1618 42.2428 18.1839 40.5839L17.3224 41.0917ZM23.5819 50.9993C24.6664 52.6085 25.7812 54.2136 26.9248 55.8128L27.7382 55.2311C26.5999 53.6394 25.4904 52.0418 24.4111 50.4404L23.5819 50.9993ZM30.3972 60.5341C31.5699 62.0853 32.7685 63.629 33.9917 65.1636L34.7737 64.5403C33.5558 63.0123 32.3624 61.4753 31.1949 59.9311L30.3972 60.5341ZM37.7018 69.7009C38.9534 71.1934 40.2273 72.6753 41.5222 74.1451L42.2725 73.4841C40.983 72.0203 39.7144 70.5446 38.4681 69.0584L37.7018 69.7009ZM45.447 78.4934C46.7707 79.925 48.1137 81.3432 49.4746 82.7462L50.1924 82.05C48.8371 80.6527 47.4996 79.2403 46.1812 77.8145L45.447 78.4934ZM53.6037 86.9027C54.997 88.2721 56.4068 89.6249 57.8317 90.9594L58.5153 90.2295C57.0963 88.9005 55.6923 87.5533 54.3046 86.1895L53.6037 86.9027ZM62.1568 94.9123C63.6171 96.2144 65.0912 97.4965 66.5777 98.7568L67.2244 97.9941C65.7443 96.7391 64.2765 95.4625 62.8224 94.1659L62.1568 94.9123ZM71.0935 102.488C72.6196 103.716 74.157 104.92 75.7043 106.099L76.3103 105.303C74.7702 104.13 73.2398 102.931 71.7204 101.709L71.0935 102.488ZM80.4165 109.587C82.0114 110.734 83.6152 111.853 85.2261 112.941L85.786 112.113C84.1833 111.03 82.5875 109.917 81.0002 108.776L80.4165 109.587ZM90.1341 116.15C91.7978 117.202 93.4675 118.22 95.1416 119.203L95.6478 118.34C93.9834 117.363 92.323 116.351 90.6683 115.305L90.1341 116.15ZM100.25 122.084C101.984 123.022 103.721 123.921 105.46 124.778L105.902 123.881C104.175 123.029 102.449 122.137 100.725 121.204L100.25 122.084ZM110.774 127.264C112.581 128.065 114.387 128.818 116.191 129.521L116.554 128.589C114.765 127.892 112.972 127.144 111.179 126.35L110.774 127.264ZM121.711 131.52C123.59 132.147 125.464 132.717 127.331 133.228L127.594 132.263C125.746 131.758 123.89 131.193 122.028 130.571L121.711 131.52ZM133.043 134.607C134.003 134.807 134.96 134.99 135.914 135.156L136.086 134.171C135.143 134.007 134.196 133.826 133.247 133.628L133.043 134.607ZM136.575 135.482C137.027 135.164 137.136 134.54 136.818 134.088L131.639 126.727C131.322 126.276 130.698 126.167 130.246 126.485C129.794 126.803 129.686 127.427 130.004 127.878L134.607 134.421L128.064 139.024C127.612 139.342 127.503 139.966 127.821 140.418C128.139 140.869 128.763 140.978 129.214 140.66L136.575 135.482ZM0.664529 0.484941C0.83088 1.44075 1.0165 2.40251 1.22093 3.36971L3.1777 2.95612C2.97808 2.0117 2.79703 1.07351 2.63491 0.142012L0.664529 0.484941ZM2.63523 9.11144C3.15747 10.9756 3.74388 12.8562 4.39151 14.7501L6.28392 14.103C5.64783 12.2429 5.07269 10.3981 4.56108 8.57191L2.63523 9.11144ZM6.44043 20.2811C7.15711 22.0804 7.92538 23.8889 8.74287 25.704L10.5664 24.8827C9.76054 23.0933 9.00382 21.3119 8.29846 19.5411L6.44043 20.2811ZM11.2678 31.0205C12.1337 32.7551 13.0419 34.4935 13.9907 36.2333L15.7466 35.2759C14.809 33.5565 13.912 31.8396 13.0573 30.1273L11.2678 31.0205ZM16.8917 41.3456C17.8777 43.0183 18.8994 44.6904 19.9549 46.36L21.6454 45.2912C20.6007 43.6388 19.5898 41.9843 18.6146 40.33L16.8917 41.3456ZM23.1672 51.2787C24.2544 52.8919 25.3719 54.5008 26.518 56.1036L28.1449 54.9403C27.0093 53.3522 25.9024 51.7585 24.8257 50.161L23.1672 51.2787ZM29.9984 60.8357C31.1736 62.3903 32.3749 63.9374 33.6007 65.4753L35.1647 64.2287C33.9494 62.704 32.7586 61.1704 31.5938 59.6296L29.9984 60.8357ZM37.3187 70.0222C38.5729 71.5178 39.8495 73.0028 41.147 74.4757L42.6477 73.1536C41.3608 71.6928 40.0949 70.2201 38.8512 68.7371L37.3187 70.0222ZM45.0798 78.8328C46.4063 80.2674 47.7521 81.6885 49.1157 83.0944L50.5513 81.7019C49.1988 80.3074 47.864 78.8979 46.5483 77.475L45.0798 78.8328ZM53.2532 87.2593C54.6494 88.6315 56.0621 89.9871 57.4899 91.3243L58.857 89.8645C57.441 88.5383 56.0399 87.1939 54.6551 85.8329L53.2532 87.2593ZM61.8241 95.2855C63.2874 96.5903 64.7646 97.8751 66.2544 99.1382L67.5478 97.6127C66.0708 96.3605 64.6062 95.0866 63.1551 93.7927L61.8241 95.2855ZM70.78 102.877C72.3095 104.108 73.8505 105.315 75.4013 106.496L76.6134 104.906C75.0768 103.735 73.5498 102.539 72.0339 101.319L70.78 102.877ZM80.1246 109.993C81.7234 111.143 83.3311 112.264 84.9462 113.356L86.066 111.699C84.4673 110.618 82.8755 109.508 81.2921 108.37L80.1246 109.993ZM89.867 116.573C91.5352 117.627 93.2095 118.648 94.8884 119.634L95.901 117.909C94.2414 116.935 92.5856 115.925 90.9354 114.882L89.867 116.573ZM100.012 122.524C101.752 123.465 103.495 124.366 105.239 125.226L106.123 123.432C104.402 122.584 102.682 121.694 100.963 120.764L100.012 122.524ZM110.571 127.722C112.385 128.525 114.198 129.281 116.009 129.987L116.736 128.124C114.954 127.429 113.168 126.684 111.381 125.893L110.571 127.722ZM121.553 131.994C123.44 132.624 125.323 133.197 127.199 133.71L127.726 131.781C125.887 131.278 124.04 130.716 122.186 130.097L121.553 131.994ZM132.941 135.096C133.906 135.298 134.869 135.482 135.829 135.649L136.171 133.679C135.234 133.515 134.293 133.335 133.349 133.138L132.941 135.096Z" fill="#E14287"/>
</svg>
