<svg width="192" height="28" viewBox="0 0 192 28" fill="none" xmlns="http://www.w3.org/2000/svg">
<path d="M191.493 24.9426C191.54 25.2146 191.358 25.4736 191.086 25.5209L186.652 26.2925C186.38 26.3399 186.121 26.1577 186.074 25.8856C186.027 25.6136 186.209 25.3547 186.481 25.3073L190.422 24.6215L189.736 20.6807C189.688 20.4086 189.871 20.1497 190.143 20.1024C190.415 20.055 190.674 20.2372 190.721 20.5092L191.493 24.9426ZM0.712304 24.6194C1.50075 24.0647 2.30709 23.5192 3.13069 22.9831L3.67628 23.8211C2.86244 24.3509 2.06605 24.8897 1.2877 25.4373L0.712304 24.6194ZM8.16303 19.9399C9.84188 18.9959 11.578 18.085 13.3671 17.2077L13.8074 18.1056C12.0343 18.9751 10.3148 19.8772 8.65317 20.8115L8.16303 19.9399ZM18.7044 14.7559C20.4765 13.9934 22.2917 13.2606 24.1466 12.5577L24.5009 13.4928C22.6592 14.1907 20.8577 14.918 19.0997 15.6745L18.7044 14.7559ZM29.6726 10.5905C31.5055 9.97811 33.3712 9.39295 35.2667 8.83519L35.549 9.79452C33.6647 10.349 31.8105 10.9305 29.9895 11.5389L29.6726 10.5905ZM40.9168 7.27605C42.7917 6.79183 44.6914 6.33309 46.6134 5.90001L46.8332 6.87555C44.9211 7.3064 43.0314 7.76272 41.1669 8.24428L40.9168 7.27605ZM52.3487 4.6964C54.2534 4.32539 56.1767 3.97871 58.1161 3.65653L58.28 4.64301C56.3496 4.9637 54.4354 5.30874 52.5398 5.67795L52.3487 4.6964ZM63.91 2.77343C65.836 2.50581 67.7752 2.2618 69.7252 2.04157L69.8374 3.03525C67.8958 3.25453 65.9651 3.49748 64.0476 3.76392L63.91 2.77343ZM75.557 1.45667C77.4973 1.28634 79.446 1.13925 81.401 1.01556L81.4641 2.01357C79.5172 2.13674 77.5766 2.28322 75.6445 2.45284L75.557 1.45667ZM87.2508 0.716116C89.1993 0.639811 91.1517 0.586674 93.1061 0.55686L93.1213 1.55674C91.1749 1.58644 89.2304 1.63936 87.29 1.71535L87.2508 0.716116ZM98.9648 0.537487C100.918 0.554398 102.872 0.594734 104.823 0.658655L104.79 1.65812C102.847 1.59446 100.902 1.55429 98.9561 1.53745L98.9648 0.537487ZM110.676 0.921846C112.63 1.03367 114.579 1.16946 116.521 1.32938L116.439 2.32601C114.505 2.16678 112.564 2.03157 110.619 1.92021L110.676 0.921846ZM122.352 1.88446C124.3 2.09522 126.238 2.33079 128.166 2.59134L128.032 3.58232C126.113 3.32298 124.183 3.08848 122.245 2.87866L122.352 1.88446ZM133.965 3.45646C135.904 3.7734 137.829 4.11646 139.737 4.4858L139.547 5.46759C137.648 5.10013 135.733 4.75877 133.804 4.44336L133.965 3.45646ZM145.477 5.68716C147.397 6.12017 149.297 6.58097 151.176 7.06977L150.924 8.03755C149.056 7.55157 147.166 7.09333 145.257 6.66265L145.477 5.68716ZM156.825 8.64446C158.715 9.20751 160.579 9.80058 162.414 10.4239L162.093 11.3708C160.27 10.7516 158.418 10.1624 156.54 9.60283L156.825 8.64446ZM167.93 12.4227C169.774 13.1346 171.584 13.8795 173.356 14.6576L172.954 15.5733C171.196 14.8015 169.4 14.0623 167.57 13.3556L167.93 12.4227ZM178.673 17.1476C180.445 18.0327 182.174 18.9546 183.854 19.9134L183.359 20.782C181.695 19.8327 179.983 18.9195 178.226 18.0422L178.673 17.1476ZM188.869 22.9775C189.689 23.5147 190.495 24.062 191.288 24.6194L190.712 25.4373C189.929 24.8864 189.132 24.3453 188.321 23.814L188.869 22.9775ZM191.985 24.8569C192.08 25.401 191.716 25.9188 191.171 26.0135L182.305 27.5567C181.761 27.6514 181.243 27.2871 181.148 26.743C181.053 26.1989 181.418 25.681 181.962 25.5863L189.843 24.2146L188.472 16.3331C188.377 15.789 188.741 15.2711 189.285 15.1764C189.829 15.0817 190.347 15.446 190.442 15.9901L191.985 24.8569ZM0.424609 24.2104C1.2181 23.6522 2.02941 23.1034 2.85789 22.564L3.94908 24.2401C3.14012 24.7668 2.3487 25.3022 1.57539 25.8462L0.424609 24.2104ZM7.91796 19.5041C9.6054 18.5552 11.3499 17.64 13.147 16.7588L14.0275 18.5545C12.2624 19.4201 10.5513 20.3178 8.89824 21.2474L7.91796 19.5041ZM18.5068 14.2966C20.2859 13.5311 22.1079 12.7955 23.9694 12.0901L24.6781 13.9604C22.843 14.6558 21.0483 15.3803 19.2973 16.1337L18.5068 14.2966ZM29.5142 10.1162C31.3529 9.5019 33.2244 8.91494 35.1256 8.35552L35.6901 10.2742C33.8114 10.827 31.963 11.4067 30.1479 12.0132L29.5142 10.1162ZM40.7918 6.79193C42.6718 6.30639 44.5766 5.84643 46.5035 5.41224L46.9431 7.36332C45.0359 7.79306 43.1513 8.24816 41.2919 8.72839L40.7918 6.79193ZM52.2531 4.20562C54.1625 3.83371 56.0903 3.48621 58.0342 3.16329L58.3619 5.13625C56.436 5.45619 54.5263 5.80042 52.6354 6.16873L52.2531 4.20562ZM63.8412 2.27819C65.7715 2.00997 67.7149 1.76543 69.6691 1.54473L69.8936 3.53209C67.9561 3.7509 66.0296 3.99332 64.1164 4.25916L63.8412 2.27819ZM75.5133 0.958588C77.4577 0.787895 79.4104 0.640497 81.3694 0.516558L81.4957 2.51257C79.5528 2.63549 77.6163 2.78166 75.6882 2.95093L75.5133 0.958588ZM87.2313 0.216499C89.1837 0.140039 91.1401 0.086792 93.0984 0.0569172L93.1289 2.05668C91.1865 2.08632 89.246 2.13913 87.3095 2.21497L87.2313 0.216499ZM98.9691 0.0375061C100.927 0.054451 102.884 0.0948696 104.839 0.158924L104.774 2.15785C102.835 2.09433 100.893 2.05424 98.9518 2.03743L98.9691 0.0375061ZM110.705 0.422665C112.662 0.534727 114.615 0.670807 116.562 0.831066L116.398 2.82432C114.468 2.66544 112.532 2.53052 110.591 2.4194L110.705 0.422665ZM122.406 1.38737C124.358 1.59859 126.301 1.83469 128.233 2.09584L127.965 4.07782C126.051 3.81907 124.125 3.58511 122.191 3.37576L122.406 1.38737ZM134.046 2.96301C135.989 3.28072 137.919 3.62462 139.832 3.99491L139.452 5.95849C137.558 5.59196 135.647 5.25146 133.723 4.93681L134.046 2.96301ZM145.587 5.19941C147.512 5.63359 149.418 6.09567 151.302 6.58588L150.798 8.52144C148.936 8.03687 147.051 7.57991 145.147 7.1504L145.587 5.19941ZM156.968 8.16528C158.864 8.73007 160.734 9.32505 162.575 9.95046L161.932 11.8442C160.115 11.2272 158.269 10.6398 156.397 10.082L156.968 8.16528ZM168.11 11.9563C169.961 12.6708 171.777 13.4186 173.557 14.1998L172.754 16.0311C171.002 15.2625 169.213 14.5261 167.39 13.822L168.11 11.9563ZM178.896 16.7002C180.676 17.5894 182.413 18.5155 184.102 19.4791L183.111 21.2163C181.455 20.2717 179.751 19.3628 178.003 18.4895L178.896 16.7002ZM189.143 22.5592C189.967 23.0994 190.778 23.6498 191.575 24.2104L190.425 25.8462C189.646 25.2986 188.853 24.7606 188.047 24.2323L189.143 22.5592Z" fill="#E14287"/>
</svg>
