<svg width="28" height="193" viewBox="0 0 28 193" fill="none" xmlns="http://www.w3.org/2000/svg">
<path d="M3.08572 191.806C2.81367 191.853 2.55475 191.671 2.5074 191.399L1.73581 186.966C1.68846 186.694 1.87062 186.435 2.14267 186.388C2.41472 186.34 2.67365 186.522 2.721 186.794L3.40685 190.735L7.34762 190.049C7.61967 190.002 7.8786 190.184 7.92594 190.456C7.97329 190.728 7.79113 190.987 7.51908 191.034L3.08572 191.806ZM3.40894 1.02578C3.96362 1.81422 4.50907 2.62057 5.04526 3.44416L4.20721 3.98976C3.67738 3.17592 3.13865 2.37953 2.59106 1.60117L3.40894 1.02578ZM8.08842 8.47651C9.03246 10.1554 9.94327 11.8915 10.8206 13.6806L9.92272 14.1209C9.05326 12.3478 8.15116 10.6283 7.21678 8.96664L8.08842 8.47651ZM13.2724 19.0179C14.0349 20.7899 14.7677 22.6052 15.4706 24.4601L14.5355 24.8144C13.8376 22.9727 13.1103 21.1711 12.3539 19.4132L13.2724 19.0179ZM17.4379 29.9861C18.0502 31.8189 18.6354 33.6847 19.1931 35.5802L18.2338 35.8625C17.6793 33.9782 17.0978 32.124 16.4894 30.303L17.4379 29.9861ZM20.7523 41.2303C21.2365 43.1051 21.6952 45.0049 22.1283 46.9269L21.1528 47.1467C20.7219 45.2346 20.2656 43.3449 19.784 41.4804L20.7523 41.2303ZM23.3319 52.6621C23.7029 54.5669 24.0496 56.4902 24.3718 58.4296L23.3853 58.5934C23.0646 56.663 22.7196 54.7489 22.3504 52.8533L23.3319 52.6621ZM25.2549 64.2235C25.5225 66.1495 25.7665 68.0887 25.9867 70.0387L24.9931 70.1509C24.7738 68.2093 24.5308 66.2786 24.2644 64.3611L25.2549 64.2235ZM26.5716 75.8705C26.742 77.8108 26.8891 79.7595 27.0128 81.7144L26.0148 81.7776C25.8916 79.8307 25.7451 77.8901 25.5755 75.958L26.5716 75.8705ZM27.3122 87.5643C27.3885 89.5127 27.4416 91.4652 27.4715 93.4195L26.4716 93.4348C26.4419 91.4884 26.389 89.5439 26.313 87.6035L27.3122 87.5643ZM27.4908 99.2783C27.4739 101.232 27.4336 103.185 27.3697 105.136L26.3702 105.104C26.4339 103.161 26.474 101.215 26.4909 99.2696L27.4908 99.2783ZM27.1065 110.99C26.9946 112.943 26.8589 114.892 26.6989 116.834L25.7023 116.752C25.8615 114.818 25.9967 112.878 26.1081 110.933L27.1065 110.99ZM26.1439 122.666C25.9331 124.613 25.6975 126.552 25.437 128.48L24.446 128.346C24.7053 126.427 24.9398 124.497 25.1497 122.558L26.1439 122.666ZM24.5719 134.278C24.2549 136.217 23.9119 138.142 23.5425 140.051L22.5607 139.861C22.9282 137.962 23.2695 136.046 23.585 134.117L24.5719 134.278ZM22.3412 145.791C21.9081 147.71 21.4473 149.611 20.9585 151.489L19.9908 151.238C20.4767 149.37 20.935 147.48 21.3657 145.57L22.3412 145.791ZM19.3838 157.139C18.8208 159.029 18.2277 160.893 17.6044 162.728L16.6575 162.406C17.2767 160.583 17.8659 158.731 18.4255 156.853L19.3838 157.139ZM15.6056 168.244C14.8937 170.087 14.1488 171.897 13.3707 173.67L12.455 173.268C13.2268 171.509 13.966 169.713 14.6728 167.883L15.6056 168.244ZM10.8808 178.986C9.99558 180.759 9.07374 182.487 8.11492 184.168L7.24629 183.673C8.19563 182.008 9.10884 180.296 9.98615 178.54L10.8808 178.986ZM5.05082 189.182C4.5136 190.002 3.96632 190.809 3.40893 191.601L2.59105 191.026C3.14192 190.243 3.68299 189.445 4.21427 188.634L5.05082 189.182ZM3.17146 192.299C2.62735 192.393 2.1095 192.029 2.0148 191.485L0.471624 182.618C0.376927 182.074 0.741245 181.556 1.28535 181.462C1.82946 181.367 2.34731 181.731 2.442 182.275L3.81372 190.157L11.6952 188.785C12.2393 188.69 12.7572 189.055 12.8519 189.599C12.9466 190.143 12.5823 190.661 12.0382 190.755L3.17146 192.299ZM3.81788 0.738085C4.37611 1.53157 4.92492 2.34289 5.46428 3.17137L3.78818 4.26255C3.26153 3.4536 2.72616 2.66218 2.18212 1.88887L3.81788 0.738085ZM8.52424 8.23144C9.47311 9.91888 10.3883 11.6633 11.2695 13.4605L9.47379 14.341C8.60826 12.5759 7.71051 10.8648 6.78095 9.21171L8.52424 8.23144ZM13.7317 18.8203C14.4972 20.5993 15.2328 22.4214 15.9382 24.2829L14.068 24.9916C13.3726 23.1565 12.648 21.3617 11.8946 19.6108L13.7317 18.8203ZM17.9121 29.8276C18.5264 31.6664 19.1134 33.5379 19.6728 35.439L17.7541 36.0036C17.2013 34.1249 16.6216 32.2765 16.0152 30.4614L17.9121 29.8276ZM21.2364 41.1053C21.7219 42.9852 22.1819 44.89 22.6161 46.817L20.665 47.2566C20.2353 45.3494 19.7802 43.4648 19.2999 41.6054L21.2364 41.1053ZM23.8227 52.5665C24.1946 54.4759 24.5421 56.4038 24.865 58.3476L22.8921 58.6754C22.5721 56.7495 22.2279 54.8398 21.8596 52.9489L23.8227 52.5665ZM25.7501 64.1547C26.0183 66.085 26.2629 68.0284 26.4836 69.9826L24.4962 70.207C24.2774 68.2696 24.035 66.3431 23.7692 64.4299L25.7501 64.1547ZM27.0697 75.8268C27.2404 77.7712 27.3878 79.7239 27.5118 81.6829L25.5157 81.8092C25.3928 79.8663 25.2467 77.9298 25.0774 76.0017L27.0697 75.8268ZM27.8118 87.5448C27.8883 89.4971 27.9415 91.4536 27.9714 93.4119L25.9716 93.4424C25.942 91.5 25.8892 89.5595 25.8133 87.623L27.8118 87.5448ZM27.9908 99.2826C27.9739 101.24 27.9334 103.198 27.8694 105.153L25.8705 105.087C25.934 103.148 25.9741 101.207 25.9909 99.2653L27.9908 99.2826ZM27.6057 111.019C27.4936 112.976 27.3575 114.929 27.1972 116.876L25.204 116.711C25.3629 114.782 25.4978 112.845 25.6089 110.904L27.6057 111.019ZM26.6409 122.719C26.4297 124.671 26.1936 126.614 25.9325 128.546L23.9505 128.279C24.2092 126.364 24.4432 124.439 24.6526 122.504L26.6409 122.719ZM25.0653 134.359C24.7476 136.302 24.4037 138.232 24.0334 140.146L22.0698 139.766C22.4364 137.872 22.7769 135.961 23.0915 134.036L25.0653 134.359ZM22.8289 145.901C22.3947 147.825 21.9326 149.731 21.4424 151.615L19.5069 151.112C19.9914 149.249 20.4484 147.365 20.8779 145.46L22.8289 145.901ZM19.863 157.282C19.2982 159.177 18.7033 161.047 18.0779 162.889L16.1841 162.245C16.8011 160.429 17.3885 158.583 17.9463 156.71L19.863 157.282ZM16.072 168.424C15.3575 170.274 14.6098 172.091 13.8285 173.871L11.9972 173.067C12.7659 171.316 13.5022 169.527 14.2063 167.703L16.072 168.424ZM11.3281 179.21C10.439 180.99 9.51279 182.726 8.54924 184.416L6.81198 183.425C7.75657 181.769 8.66547 180.065 9.53885 178.316L11.3281 179.21ZM5.46909 189.456C4.92891 190.281 4.37851 191.092 3.81787 191.889L2.18211 190.738C2.72973 189.96 3.26768 189.167 3.79599 188.36L5.46909 189.456Z" fill="#E14287"/>
</svg>
