<svg width="41" height="40" viewBox="0 0 41 40" fill="none" xmlns="http://www.w3.org/2000/svg">
<rect x="3.33984" y="2.81665" width="33.8729" height="33.8725" fill="white"/>
<path d="M40.1289 35.5556V4.44444C40.1289 2 38.1222 0 35.6734 0H4.58446C2.02891 0 0.128906 1.89556 0.128906 4.44444V35.5556C0.128906 38.1067 2.02891 40 4.58446 40H35.6734C36.8526 39.9982 37.9832 39.5298 38.818 38.697C39.6529 37.8642 40.1242 36.7348 40.1289 35.5556ZM31.6489 23.5711C31.6489 23.5711 34.1645 26.0533 34.7845 27.2044C34.8022 27.2289 34.8089 27.2511 34.8156 27.26C35.0667 27.6822 35.1311 28.0156 35.0045 28.26C34.7956 28.6667 34.0845 28.8711 33.8422 28.8889H29.4C29.0889 28.8889 28.4445 28.8089 27.6622 28.2689C27.0622 27.8511 26.4689 27.16 25.8911 26.4867C25.0289 25.4867 24.2822 24.62 23.5311 24.62C23.4358 24.6198 23.3412 24.6355 23.2511 24.6667C22.68 24.8489 21.9556 25.66 21.9556 27.8267C21.9556 28.5044 21.4222 28.8911 21.0445 28.8911H19.0089C18.3156 28.8911 14.7045 28.6489 11.5067 25.2733C7.58224 21.14 4.0578 12.8489 4.02668 12.7756C3.80446 12.24 4.26446 11.9489 4.76446 11.9489H9.25335C9.85557 11.9489 10.0489 12.3133 10.1867 12.64C10.3422 13.0111 10.9289 14.5089 11.8889 16.1933C13.4511 18.9333 14.4134 20.0489 15.18 20.0489C15.3234 20.0481 15.4641 20.0106 15.5889 19.94C16.5911 19.3867 16.4045 15.8133 16.36 15.0756C16.36 14.9356 16.3578 13.4778 15.8467 12.7778C15.4778 12.2711 14.8534 12.0778 14.4756 12.0044C14.6296 11.7922 14.8323 11.62 15.0667 11.5022C15.7534 11.16 16.9911 11.1111 18.2222 11.1111H18.9067C20.2422 11.1289 20.5889 11.2156 21.0711 11.3378C22.0467 11.5711 22.0667 12.2044 21.98 14.36C21.9556 14.9733 21.9289 15.6689 21.9289 16.4844C21.9289 16.66 21.9222 16.8533 21.9222 17.0533C21.8911 18.1556 21.8556 19.4022 22.6334 19.9133C22.734 19.9763 22.8502 20.0102 22.9689 20.0111C23.24 20.0111 24.0511 20.0111 26.2489 16.24C27.2156 14.5756 27.96 12.6111 28.0111 12.4644C28.0888 12.3059 28.2012 12.1669 28.34 12.0578C28.4539 11.9987 28.5807 11.9689 28.7089 11.9711H33.9867C34.5645 11.9711 34.9556 12.0578 35.0289 12.2778C35.1556 12.6311 35.0045 13.7089 32.5934 16.9667L31.52 18.3889C29.3334 21.2511 29.3334 21.3978 31.6489 23.5711Z" fill="#0077FF"/>
</svg>
