<svg width="32" height="33" viewBox="0 0 32 33" fill="none" xmlns="http://www.w3.org/2000/svg">
<path d="M32 28.4474V3.55849C32 1.60293 30.3947 0.00292969 28.4356 0.00292969H3.56444C1.52 0.00292969 0 1.51937 0 3.55849V28.4474C0 30.4883 1.52 32.0029 3.56444 32.0029H28.4356C29.3789 32.0015 30.2834 31.6268 30.9513 30.9605C31.6192 30.2943 31.9962 29.3907 32 28.4474ZM25.216 18.8598C25.216 18.8598 27.2284 20.8456 27.7244 21.7665C27.7387 21.786 27.744 21.8038 27.7493 21.8109C27.9502 22.1487 28.0018 22.4154 27.9004 22.6109C27.7333 22.9363 27.1644 23.0998 26.9707 23.114H23.4169C23.168 23.114 22.6524 23.05 22.0267 22.618C21.5467 22.2838 21.072 21.7309 20.6098 21.1923C19.92 20.3923 19.3227 19.6989 18.7218 19.6989C18.6455 19.6987 18.5698 19.7114 18.4978 19.7363C18.0409 19.882 17.4613 20.5309 17.4613 22.2643C17.4613 22.8065 17.0347 23.1158 16.7324 23.1158H15.104C14.5493 23.1158 11.6604 22.922 9.10222 20.2216C5.96267 16.9149 3.14311 10.282 3.11822 10.2234C2.94044 9.79493 3.30844 9.56204 3.70844 9.56204H7.29956C7.78133 9.56204 7.936 9.8536 8.04622 10.1149C8.17067 10.4118 8.64 11.61 9.408 12.9576C10.6578 15.1496 11.4276 16.042 12.0409 16.042C12.1556 16.0414 12.2682 16.0114 12.368 15.9549C13.1698 15.5123 13.0204 12.6536 12.9849 12.0634C12.9849 11.9514 12.9831 10.7852 12.5742 10.2252C12.2791 9.81982 11.7796 9.66515 11.4773 9.60649C11.6006 9.43667 11.7627 9.29889 11.9502 9.20471C12.4996 8.93093 13.4898 8.89182 14.4747 8.89182H15.0222C16.0907 8.90604 16.368 8.97537 16.7538 9.07315C17.5342 9.25982 17.5502 9.76649 17.4809 11.4909C17.4613 11.9816 17.44 12.538 17.44 13.1905C17.44 13.3309 17.4347 13.4856 17.4347 13.6456C17.4098 14.5274 17.3813 15.5247 18.0036 15.9336C18.0841 15.984 18.177 16.0111 18.272 16.0118C18.4889 16.0118 19.1378 16.0118 20.896 12.9949C21.6693 11.6634 22.2649 10.0918 22.3058 9.97449C22.3679 9.84763 22.4578 9.73642 22.5689 9.64915C22.66 9.60185 22.7614 9.57802 22.864 9.57982H27.0862C27.5484 9.57982 27.8613 9.64915 27.92 9.82515C28.0213 10.1078 27.9004 10.97 25.9716 13.5763L25.1129 14.714C23.3636 17.0038 23.3636 17.1212 25.216 18.8598Z" fill="white"/>
</svg>
