<svg width="160" height="286" viewBox="0 0 160 286" fill="none" xmlns="http://www.w3.org/2000/svg">
<path d="M21.6602 202.43C21.6602 202.43 19.1722 213.302 22.6864 220.239C23.5579 219.22 24.0921 208.724 24.7106 207.482C25.3291 206.24 21.6602 202.43 21.6602 202.43Z" fill="#752E25"/>
<path d="M77.2553 270.108C77.2553 270.108 67.0219 283.186 61.6522 284.749C64.7447 286.731 83.4826 276.193 83.6512 275.705C83.5552 274.256 83.339 272.819 83.0046 271.406L77.2553 270.108Z" fill="#752E25"/>
<path d="M25.8633 182.527C25.8633 182.527 19.7626 188.738 19.0597 196.163C18.3569 203.588 23.6844 209.966 26.6926 208.026C29.7008 206.086 31.978 189.547 28.6465 184.941C25.315 180.335 25.8633 182.527 25.8633 182.527Z" fill="#40254A"/>
<path d="M55.2844 133.593C55.2844 133.593 27.4095 155.087 23.9937 186.072C22.8551 194.139 23.9937 195.758 27.2408 190.105C30.488 184.453 52.4449 149.923 55.3547 149.923C58.2644 149.923 67.4296 154.11 68.1886 156.217C68.9477 158.325 71.2109 198.089 70.3956 205.444C69.5803 212.8 84.0729 260.966 70.5642 271.294C84.2135 274.56 90.3845 268.879 90.3845 268.879C90.3845 268.879 86.8984 263.394 84.7898 252.229C82.6813 241.063 76.0043 206.393 76.0043 206.393C76.0043 206.393 82.0206 159.804 77.6349 140.976C71.1406 137.096 55.2844 133.593 55.2844 133.593Z" fill="#50305E"/>
<path d="M63.4233 113.76C63.4233 113.76 90.4829 120.041 90.75 118.24C91.0171 116.44 84.9023 79.16 82.6251 75.2381C80.3479 71.3161 60.4011 75.2381 60.4011 75.2381L63.4233 113.76Z" fill="#E0D4B6"/>
<path d="M72.8555 81.798L70.3534 88.2601C70.3534 88.2601 74.7813 105.679 71.6045 109.866C68.4276 114.053 80.9945 112.225 80.9945 112.225C80.9945 112.225 75.9059 94.6944 76.8758 89.1953C77.1618 87.6915 76.9185 86.1357 76.1865 84.7889C75.4545 83.4421 74.2785 82.3861 72.8555 81.798Z" fill="#FFF2CF"/>
<path d="M83.089 254.559C82.0487 249.312 81.0039 244.059 79.9543 238.802C77.8457 228.153 75.0906 217.378 74.2191 206.533C73.3897 195.953 74.3596 185.151 74.6267 174.543C74.9219 163.377 74.936 152.212 75.3295 141.046C75.3295 140.599 74.6267 140.599 74.6126 141.046C74.3596 152.212 73.7271 163.377 73.3475 174.543C72.9961 185.36 72.1808 196.344 73.1648 207.133C74.0785 217.252 76.5947 227.245 78.5486 237.197L81.7957 253.624C82.8641 259.04 83.4544 264.79 84.9164 270.052C85.1132 270.736 86.3221 270.624 86.2237 269.87C85.6051 264.706 84.1011 259.626 83.089 254.559Z" fill="#FFB751"/>
<path d="M56.662 130.467L55.2563 133.579C55.2563 133.579 58.2645 140.879 65.5038 143.223C67.5445 143.915 69.7301 144.072 71.8499 143.681C73.9698 143.29 75.9524 142.363 77.6068 140.99C77.6068 140.99 77.9582 133.746 79.6169 131.709C81.2756 129.671 56.662 130.467 56.662 130.467Z" fill="#FF2424"/>
<path d="M55.2844 133.593C58.1521 136.586 61.936 138.554 66.047 139.19C70.1579 139.826 74.3654 139.095 78.0144 137.11L78.647 134.026L55.8467 131.597L55.2844 133.593Z" fill="#A31515"/>
<path d="M80.5587 77.3874C80.5587 77.3874 79.3639 91.0515 79.7013 99.8863C80.0386 108.721 86.1674 122.022 88.037 122.65C89.9066 123.279 102.994 116.565 102.994 116.565C102.994 116.565 89.6676 100.766 94.4329 85.5663C103.64 93.2148 109.361 105.106 109.642 107.633C109.924 110.159 106.058 124.646 103.289 126.852C100.52 129.057 108.912 140.99 108.912 140.99C108.912 140.99 114.984 117.738 117.852 107.2C112.229 98.4767 93.7441 73.0886 93.7441 73.0886L80.5587 77.3874Z" fill="#50305E"/>
<path d="M112.552 103.097C105.524 93.5777 98.9873 83.6542 92.3103 73.9121C91.9589 73.3957 91.1155 73.9121 91.4809 74.4006C97.7082 83.1936 103.963 92.0006 110.12 100.919C111.667 103.138 113.874 105.832 114.745 108.386C115.463 111.12 115.26 114.012 114.169 116.621C112.763 120.683 109.853 124.451 109.642 128.847C109.642 129.113 110.022 129.141 110.092 128.847C111.582 124.004 114.478 119.594 115.715 114.709C116.826 110.159 115.209 106.711 112.552 103.097Z" fill="#FFB751"/>
<path d="M50.983 85.1198C50.983 85.1198 51.7421 115.909 45.1212 118.491C58.4191 128.01 66.4737 126.796 66.4737 126.796C66.4737 126.796 71.7872 110.661 71.3515 101.129C70.9157 91.5959 64.7447 80.7233 64.7447 80.7233L50.983 85.1198Z" fill="#40254A"/>
<path d="M101.04 125.47C101.04 125.47 99.5074 134.165 101.04 137.724C102.572 141.283 105.594 147.341 106.325 147.41C107.056 147.48 112.847 135.31 110.542 130.467C108.237 125.623 101.04 125.47 101.04 125.47Z" fill="#40254A"/>
<path d="M74.5142 119.552C74.5142 119.552 52.0232 110.005 40.2154 129.182C28.4075 148.36 50.8283 167.802 68.3292 161.842C85.8301 155.882 85.7738 140.25 85.7738 140.25C85.7738 140.25 90.8484 146.587 98.4251 140.404C106.002 134.221 98.8046 116.119 90.75 111.261C82.6954 106.404 75.0484 110.787 74.5142 119.552Z" fill="#FF9900"/>
<path d="M80.7977 127.201L84.1292 133.802L123.376 113.634L120.354 106.167L80.7977 127.201Z" fill="#66281F"/>
<path d="M70.7892 130.048C70.7892 130.048 65.7006 133.23 70.241 137.738C74.7813 142.246 82.8922 136.342 79.3077 131.374C75.7232 126.405 72.2792 128.652 70.7892 130.048Z" fill="#A66400"/>
<path d="M52.7963 143L114.084 109.866C114.084 109.866 59.9232 141.8 52.7963 143Z" fill="white"/>
<path d="M52.3184 145.122L108.827 114.807C108.827 114.807 55.8466 145.819 52.3184 145.122Z" fill="white"/>
<path d="M50.8705 148.401L113.86 113.899C113.86 113.899 53.9771 148.415 50.8705 148.401Z" fill="white"/>
<path d="M53.1899 149.183C53.1899 149.183 113.944 115.156 114.956 115.449C115.968 115.742 53.7803 149.225 53.1899 149.183Z" fill="white"/>
<path d="M53.1337 136.021L61.4272 151.947L65.7287 149.797L56.437 133.719L53.1337 136.021Z" fill="#66281F"/>
<path d="M61.9755 122.232C61.9755 122.232 66.6564 123.628 66.9376 124.13C67.2187 124.632 66.3331 138.548 66.5721 139.483C66.811 140.418 63.7607 144.675 63.0578 144.787C62.355 144.898 60.5838 143.391 60.5838 143.391C60.0842 143.57 59.5372 143.57 59.0376 143.391C58.4613 142.896 57.9427 142.339 57.4913 141.73C56.9828 141.797 56.4676 141.797 55.9591 141.73C55.6639 141.59 53.5273 139.022 54.0052 138.017C54.4831 137.012 56.17 138.199 56.17 138.199L58.1098 137.501L60.7244 124.744L61.9755 122.232Z" fill="#E8D9CA"/>
<path d="M47.792 85.5384C47.792 85.5384 39.7796 99.4956 39.5125 101.198C39.2454 102.901 51.25 116.495 62.6362 120.027C61.6241 129.797 53.0353 130.62 52.7963 130.578C52.5573 130.536 50.3926 124.465 39.4703 115.686C28.5481 106.907 26.8613 103.599 28.0842 101.045C29.3072 98.4907 48.9307 78.2109 49.2961 78.2109C49.6616 78.2109 55.9169 79.6067 47.792 85.5384Z" fill="#50305E"/>
<path d="M68.3714 68.7341C68.3714 68.7341 32.9339 65.817 33.0885 68.7341C33.2431 71.6511 40.9042 72.1954 40.8198 74.1355C40.7355 76.0755 35.928 81.7282 37.896 82.6075C39.864 83.4868 47.2438 81.3234 47.6374 82.2027C48.031 83.082 45.6132 89.7815 47.3141 90.577C49.015 91.3726 55.3687 86.5853 56.5917 87.632C57.8146 88.6788 56.915 96.1878 59.4031 95.6295C61.8911 95.0712 72.5744 75.3777 72.5744 75.3777C72.5744 75.3777 90.0753 92.6147 91.6918 91.0097C93.3084 89.4046 91.2982 83.9055 92.0995 83.5007C92.9007 83.096 97.7222 86.0828 97.7222 83.0122C97.7222 79.9417 92.6899 76.6338 93.4208 76.0337C94.1518 75.4335 103.739 74.7496 103.415 72.9631C103.092 71.1766 96.5133 70.06 96.668 68.6922C96.8226 67.3244 104.554 64.3655 103.401 62.5929C102.249 60.8204 73.6427 67.8408 73.6427 67.8408L68.3714 68.7341Z" fill="#FF2424"/>
<path d="M64.4635 68.1898C64.4635 68.1898 42.4645 70.0181 43.2235 71.5255C43.9826 73.0329 62.7908 69.9484 62.7908 69.9484C62.7908 69.9484 48.0451 77.9877 49.6757 79.3834C51.3063 80.7791 65.8271 71.5255 65.8271 71.5255C65.8271 71.5255 58.7283 82.6075 60.0216 83.5845C61.3148 84.5615 70.6486 72.1815 70.6486 72.1815C70.6486 72.1815 83.1171 81.5468 83.7356 79.6625C84.3541 77.7783 76.4963 71.4418 76.4963 71.4418C76.4963 71.4418 86.1393 75.3079 87.3904 73.8564C88.6414 72.4048 78.5064 69.5576 78.5064 69.5576C78.5064 69.5576 91.3966 69.5576 91.0733 68.0502C90.75 66.5428 77.5365 66.9894 77.5365 66.9894L64.4635 68.1898Z" fill="#A31515"/>
<path d="M50.252 17.7486C50.252 17.7486 51.9529 1.58622 55.692 1.00002C59.4312 0.413821 70.9579 12.9613 70.9579 12.9613L50.252 17.7486Z" fill="#943A30"/>
<path d="M70.3534 62.1463C70.3534 62.1463 23.6704 61.9369 21.2245 43.4577C18.7786 24.9784 74.8797 -0.395674 101.04 9.16497C127.2 18.7256 123.868 64.4492 70.3534 62.1463Z" fill="#522018"/>
<path d="M53.5273 37.9585C53.5273 37.9585 48.8604 44.1973 51.6858 49.1242C54.5113 54.0511 59.8107 53.3114 61.104 55.2654C62.3972 57.2194 62.6783 65.3285 61.9755 66.78C61.8209 68.8736 70.5924 70.4368 73.3054 69.7948C76.0183 69.1527 79.3639 67.5337 79.0968 66.7242C78.8297 65.9147 77.6911 56.3401 78.7735 54.4558C79.8559 52.5716 85.802 50.1012 82.9906 42.2992C80.1792 34.4971 62.9032 28.3839 53.5273 37.9585Z" fill="#E8D9CA"/>
<path d="M62.847 40.3173C61.5936 40.5855 60.4976 41.3343 59.7974 42.4007C59.0971 43.4671 58.8493 44.7649 59.1078 46.0118C59.7545 50.855 61.624 49.5569 63.9434 48.7195C66.2628 47.8821 68.3714 48.5102 67.6826 44.7976C66.9938 41.085 64.0418 39.9963 62.847 40.3173Z" fill="#36302F"/>
<path d="M74.5142 43.0111C73.9501 43.1705 73.4502 43.501 73.0847 43.9566C72.7192 44.4121 72.5064 44.9697 72.476 45.5513C72.2511 47.7286 74.0223 47.268 75.2874 47.7844C76.5525 48.3008 77.663 48.0077 77.41 46.0537C77.1569 44.0997 76.0043 42.5784 74.5142 43.0111Z" fill="#36302F"/>
<path d="M69.6646 50.5898C69.6646 50.5898 68.6666 53.5626 69.3132 54.0791C69.9598 54.5955 70.5783 53.451 71.0984 53.4091C71.6185 53.3672 72.7712 54.5955 72.8836 53.4091C72.7763 52.6615 72.5118 51.9446 72.1074 51.305C71.703 50.6654 71.1676 50.1174 70.5361 49.6965C69.8473 49.6826 69.6646 50.3246 69.6646 50.5898Z" fill="#36302F"/>
<path d="M65.4475 59.6201C65.1383 57.4846 64.0418 56.9543 63.5639 57.2194C63.086 57.4846 63.1562 63.2071 63.9434 64.533C64.7306 65.8589 65.4194 63.1373 66.1082 63.3466C66.797 63.556 66.3612 64.9377 67.2187 65.0494C68.0762 65.1611 68.273 62.7046 69.1445 63.0814C70.016 63.4583 69.763 65.3425 70.5502 65.2448C71.3374 65.1471 70.7751 63.1931 71.7731 63.0814C72.7712 62.9698 72.8555 65.0494 73.46 64.9098C74.0644 64.7703 74.1347 62.5232 74.8657 62.9837C75.5966 63.4443 75.0203 64.8819 76.1027 64.8819C77.1851 64.8819 77.41 62.8302 77.6068 60.946C77.8036 59.0618 77.2413 55.9773 76.3838 56.061C75.5263 56.1447 76.1589 59.3968 75.189 59.9132C74.219 60.4296 74.1206 58.2244 73.3897 58.2244C72.6587 58.2244 73.5162 60.6948 72.2511 60.6948C70.986 60.6948 71.745 58.2104 70.7751 58.3221C69.8052 58.4337 70.2409 61.1135 69.2851 60.8343C68.3292 60.5552 68.4979 58.4337 67.8794 58.3639C67.2609 58.2941 67.1765 61.1554 66.3612 60.932C65.5459 60.7087 65.4475 59.6201 65.4475 59.6201Z" fill="#36302F"/>
<path d="M82.9906 42.3131C80.1792 34.5111 62.8892 28.356 53.471 37.9445C53.471 37.9445 48.8182 44.1973 51.6296 49.1103C52.3788 50.3164 53.3669 51.3589 54.534 52.1746C55.7011 52.9903 57.0228 53.5622 58.4191 53.8557C56.1981 51.5248 53.0353 47.4633 53.5413 43.6251C54.3144 37.8189 63.8169 33.4922 72.8274 35.3904C74.5315 35.7565 76.1365 36.4819 77.5338 37.5173C78.9311 38.5528 80.0881 39.8742 80.9265 41.3921C81.7648 42.91 82.265 44.589 82.3931 46.3155C82.5213 48.042 82.2744 49.7757 81.6692 51.3992C83.2998 49.529 84.6212 46.8073 82.9906 42.3131Z" fill="#C9BBAE"/>
<path d="M101.04 9.1649C74.8797 -0.395744 18.7926 24.9923 21.2245 43.4576C21.857 48.2728 25.5118 51.8319 30.5442 54.4837L32.4419 54.2186L25.8351 48.0076C25.8351 48.0076 31.0362 48.6636 31.4579 48.0076C31.8796 47.3517 29.1245 37.3583 29.1245 37.3583C29.1245 37.3583 37.6289 39.0332 38.0647 38.6284C38.5004 38.2237 37.1931 30.9101 37.1931 30.9101C37.1931 30.9101 45.0088 33.2828 45.6273 33.0595C46.2458 32.8362 46.1614 24.769 46.1614 24.769C46.1614 24.769 51.3625 30.0029 52.4449 29.333C53.5273 28.663 54.0755 21.1122 54.0755 21.1122C54.0755 21.1122 58.8408 25.8437 60.0356 25.746C61.2305 25.6483 63.3812 16.8134 63.3812 16.8134C63.3812 16.8134 68.8634 24.8806 69.6646 24.7271C70.4659 24.5736 75.0203 15.6829 75.0203 15.6829C75.0203 15.6829 76.426 23.8618 77.5084 24.0572C78.5908 24.2526 86.3502 14.5942 86.3502 14.5942C86.3502 14.5942 85.9144 24.3642 87.3201 24.3642C88.7258 24.3642 97.6238 14.5942 97.6238 14.5942C97.6238 14.5942 96.1057 26.9603 97.6238 27.0719C99.142 27.1836 108.56 21.6984 108.56 21.6984C108.56 21.6984 103.795 33.4224 104.99 33.9667C106.184 34.5111 112.215 33.1014 112.215 33.1014C112.215 33.1014 102.558 41.6013 103.978 42.2433C106.096 42.7022 108.262 42.913 110.43 42.8714C110.43 42.8714 103.823 48.4543 104.582 48.7194C105.341 48.9846 109.136 49.4731 109.136 49.4731C109.136 49.4731 102.881 54.2883 102.206 55.6841C123.601 43.1924 120.452 16.2272 101.04 9.1649Z" fill="#FFB751"/>
<path d="M107.829 124.172C107.829 124.172 110.472 132.448 109.375 134.626C108.279 136.803 102.839 137.989 100.759 135.477C98.6781 132.965 97.1318 124.716 97.7785 124.395C98.4251 124.074 100.168 127.717 100.168 127.717C100.168 127.717 99.1842 122.134 99.7605 122.134C100.337 122.134 102.403 127.438 102.403 127.438C102.403 127.438 102.08 122.371 102.642 122.329C103.204 122.288 106.452 128.01 106.452 128.01C106.452 128.01 105.594 122.427 106.086 122.05C106.578 121.673 107.829 124.172 107.829 124.172Z" fill="#E8D9CA"/>
<path d="M59.0376 126.405C49.3102 114.555 44.6292 109.852 32.3294 100.863C40.0748 95.8528 39.0627 87.1854 47.539 83.4868C47.6086 83.4594 47.6715 83.4178 47.7239 83.3647C47.7762 83.3116 47.8167 83.2482 47.8428 83.1785C47.8688 83.1089 47.8799 83.0346 47.8752 82.9605C47.8705 82.8864 47.8502 82.814 47.8155 82.7482C47.7809 82.6823 47.7327 82.6245 47.6741 82.5783C47.6155 82.5321 47.5478 82.4987 47.4753 82.4801C47.4029 82.4616 47.3273 82.4584 47.2535 82.4707C47.1797 82.483 47.1094 82.5106 47.047 82.5516C38.5145 86.9621 39.0908 95.2387 30.9378 100.333C30.8672 100.391 30.8103 100.463 30.7712 100.545C30.7321 100.627 30.7119 100.717 30.7119 100.808C30.7119 100.898 30.7321 100.988 30.7712 101.07C30.8103 101.152 30.8672 101.225 30.9378 101.282C43.2235 110.536 48.3122 115.1 58.166 127.047C58.5596 127.619 59.5015 126.977 59.0376 126.405Z" fill="#FFB751"/>
<path d="M137.138 105.818C138.453 105.973 139.749 106.263 141.003 106.684C141.003 106.963 138.979 110.145 138.192 110.089C137.405 110.033 136.786 106.642 136.786 106.642C136.786 106.642 133.764 108.889 133.792 108.973C133.82 109.056 136.604 111.052 136.533 111.527C136.463 112.001 134.326 114.206 133.863 113.802C133.399 113.397 133.202 109.866 133.033 109.866C132.865 109.866 129.547 112.35 129.547 112.35C129.547 112.35 132.668 114.346 132.471 114.737C132.274 115.128 129.308 117.04 129.055 116.649C128.856 115.291 128.771 113.918 128.802 112.546C128.802 112.546 135.409 106.042 137.138 105.818Z" fill="#383838"/>
<path d="M122.294 102.72C121.028 102.333 119.808 101.813 118.653 101.17C118.653 100.905 121.253 98.1278 121.984 98.379C122.715 98.6303 122.8 102.022 122.8 102.022C122.8 102.022 126.173 100.347 126.159 100.263C126.145 100.18 123.713 97.6951 123.938 97.2625C124.163 96.8298 126.567 95.0154 127.017 95.5039C127.467 95.9924 126.932 99.5654 127.101 99.5514C127.27 99.5375 130.995 97.723 130.995 97.723C130.995 97.723 128.282 95.1968 128.535 94.8479C128.788 94.4989 132.063 93.1591 132.246 93.5778C132.195 94.9512 132.035 96.3186 131.768 97.6672C131.768 97.6672 124.079 102.803 122.294 102.72Z" fill="#383838"/>
<path d="M119.314 107.688V103.501C119.314 103.501 134.326 94.3036 134.636 94.3594C134.945 94.4152 140.146 103.236 140.048 103.836C139.949 104.436 127.129 115.002 126.497 115.114C125.316 114.83 124.171 114.418 123.081 113.885L119.314 107.688Z" fill="#FF9900"/>
<path d="M122.997 103.962C122.997 103.962 122.729 104.688 123.179 105.079C123.299 105.21 123.458 105.299 123.633 105.332C123.809 105.365 123.99 105.34 124.15 105.261C124.309 105.181 124.438 105.052 124.517 104.894C124.595 104.735 124.619 104.554 124.585 104.381C124.487 103.473 123.236 102.985 122.997 103.962Z" fill="#383838"/>
<path d="M127.678 100.57C127.678 100.57 127.396 101.296 127.846 101.701C127.969 101.822 128.128 101.902 128.299 101.93C128.47 101.957 128.646 101.93 128.801 101.853C128.957 101.776 129.084 101.652 129.164 101.5C129.245 101.347 129.276 101.174 129.252 101.003C129.154 100.096 127.916 99.6073 127.678 100.57Z" fill="#383838"/>
<path d="M132.316 97.7788C132.24 97.9658 132.216 98.1702 132.248 98.3695C132.281 98.5689 132.367 98.7556 132.499 98.9094C132.618 99.0409 132.778 99.13 132.953 99.1629C133.128 99.1958 133.31 99.1707 133.469 99.0915C133.629 99.0123 133.758 98.8834 133.836 98.7244C133.915 98.5655 133.939 98.3853 133.905 98.2115C133.806 97.3043 132.555 96.8018 132.316 97.7788Z" fill="#383838"/>
<path d="M135.24 103.362C135.24 103.362 134.959 104.101 135.409 104.492C135.532 104.614 135.69 104.694 135.862 104.721C136.033 104.748 136.209 104.721 136.364 104.644C136.519 104.567 136.646 104.444 136.727 104.291C136.808 104.139 136.838 103.965 136.815 103.794C136.73 102.887 135.479 102.399 135.24 103.362Z" fill="#383838"/>
<path d="M131.023 106.684C130.949 106.871 130.928 107.075 130.96 107.273C130.992 107.472 131.077 107.659 131.206 107.814C131.325 107.946 131.485 108.035 131.66 108.068C131.835 108.1 132.017 108.075 132.176 107.996C132.336 107.917 132.465 107.788 132.543 107.629C132.622 107.47 132.646 107.29 132.611 107.116C132.513 106.209 131.262 105.679 131.023 106.684Z" fill="#383838"/>
<path d="M126.047 110.061C125.97 110.248 125.947 110.452 125.979 110.652C126.011 110.851 126.098 111.038 126.23 111.192C126.349 111.323 126.509 111.412 126.684 111.445C126.859 111.478 127.04 111.453 127.2 111.374C127.359 111.295 127.488 111.166 127.567 111.007C127.646 110.848 127.67 110.668 127.635 110.494C127.537 109.587 126.286 109.098 126.047 110.061Z" fill="#383838"/>
</svg>
