<svg width="160" height="286" viewBox="0 0 160 286" fill="none" xmlns="http://www.w3.org/2000/svg">
<path d="M89.284 273.892C87.9352 276.124 86.4126 278.246 84.7303 280.24C83.1807 281.745 78.9805 280.619 78.5591 282.762C78.1378 284.905 82.1069 285.556 86.076 284.525C90.0452 283.495 92.1521 276.863 93.7017 275.9C95.2513 274.937 96.8824 275.357 96.8281 274.136C96.7737 272.916 94.191 271.424 94.191 271.424L89.284 273.892Z" fill="#752E25"/>
<path d="M51.414 193.385C52.947 194.921 54.2681 196.654 55.3424 198.539C56.525 200.939 56.1444 209.307 56.7017 210.596C57.259 211.884 61.1058 211.505 61.2145 208.873C61.3233 206.242 56.7561 198.159 58.36 195.107C59.964 192.056 54.4453 191.622 54.4453 191.622L51.414 193.385Z" fill="#752E25"/>
<path d="M75.8541 137.575C75.9765 137.25 19.9871 122.154 19.022 134.252C18.0569 146.35 43.1903 184.759 45.3516 188.503C47.5129 192.246 45.2428 197.088 45.2428 197.088C45.2428 197.088 59.3115 189.791 58.8358 188.95C58.36 188.109 25.9952 141.034 25.0301 138.497C24.065 135.961 62.2204 143.475 70.6073 146.364C78.9941 149.252 94.1367 158.909 94.1367 159.655C94.1367 160.401 73.4482 188.394 72.3879 225.067C74.5628 228.498 88.4276 267.111 84.3497 275.154C87.0263 275.281 89.7009 274.865 92.2122 273.933C94.7236 273.001 97.0197 271.57 98.9622 269.729C98.9622 269.729 94.0143 263.626 92.6143 258.689C91.2142 253.752 89.1888 235.632 77.9067 223.033C81.4544 207.802 96.9368 171.237 103.461 167.698C109.986 164.158 121.336 158.312 103.461 141.006C96.1076 136.965 75.8541 137.575 75.8541 137.575Z" fill="#40254A"/>
<path d="M98.7855 168.484C101.993 164.225 104.155 160.062 103.461 154.583C102.768 149.103 99.7506 144.383 96.8417 139.84C96.3931 139.148 95.2785 139.84 95.727 140.477C99.4107 146.214 103.665 152.901 101.993 160.048C100.729 165.351 96.0669 169.691 93.1852 174.18C87.0887 184.095 82.0152 194.601 78.0426 205.537C75.9028 210.532 74.8867 215.935 75.0658 221.365C75.4735 226.79 77.662 231.808 80 236.65C85.6818 248.435 89.9772 260.194 91.4453 273.268C91.5268 274.082 92.8046 274.082 92.723 273.268C91.3615 261.373 87.9396 249.804 82.6098 239.077C79.6874 233.11 76.493 226.993 76.2891 220.198C76.0852 213.403 78.7766 206.812 81.4409 200.641C86.2935 189.384 91.3773 178.344 98.7855 168.484Z" fill="#FFB751"/>
<path d="M71.2461 136.042C55.5055 132.76 40.6212 129.763 24.4728 130.102C23.262 130.273 22.0975 130.684 21.0474 131.309C37.0871 130.984 55.2744 134.022 70.9063 137.263C71.6403 137.439 71.9802 136.205 71.2461 136.042Z" fill="#FFB751"/>
<path d="M79.0349 140.152C79.0349 140.152 82.4739 149.958 86.6198 150.595C90.7656 151.233 107.566 139.664 107.566 139.664C107.566 139.664 100.661 136.259 99.7913 135.269C98.9214 134.279 77.5397 132.259 79.0349 140.152Z" fill="#50305E"/>
<path d="M129.329 81.1955C129.329 81.1955 118.672 93.0221 117.856 93.334C117.041 93.6459 88.4412 80.5988 88.4412 80.5988L94.5852 115.482L53.6705 116.662L51.1558 85.3864L66.9508 71.4169C66.9508 71.4169 84.4177 67.3481 85.2197 67.3481C86.0217 67.3481 111.332 84.3692 113.765 84.3692C116.198 84.3692 125.55 78.1846 125.55 78.1846L129.329 81.1955Z" fill="#50305E"/>
<path d="M57.0551 87.0681C57.0551 87.0681 59.529 98.542 62.7505 103.045C65.9721 107.548 78.9669 109.745 78.9669 109.745C78.9669 109.745 80.3262 92.0049 76.8328 84.0572C73.3395 76.1095 64.3681 76.6656 64.3681 76.6656L57.0551 87.0681Z" fill="#FFF2CF"/>
<path d="M81.101 137.087C81.101 137.087 89.1616 141.278 99.7913 135.269C96.0125 133.004 96.6514 114.234 96.6514 114.234C96.6514 114.234 88.1014 113.8 84.676 117.407C81.2506 121.015 81.101 137.087 81.101 137.087Z" fill="#FF2424"/>
<path d="M96.5562 119.076C96.5562 119.076 89.9908 122.466 85.8042 122.317C81.6176 122.168 81.835 127.878 81.835 127.878L81.6176 134.795C81.6176 134.795 90.6569 138.118 98.1466 132.815C98.1466 132.815 87.2722 133.995 85.2605 130.414C83.2487 126.833 84.7168 126.956 84.7168 126.956C84.7168 126.956 91.989 126.956 96.6785 122.887C96.665 122.778 96.5562 119.076 96.5562 119.076Z" fill="#A31515"/>
<path d="M53.6705 73.8175C53.6705 73.8175 60.9291 78.0083 62.0029 77.0996C63.0768 76.1909 59.3659 68.5687 58.5639 67.4566C57.7619 66.3445 53.6705 73.8175 53.6705 73.8175Z" fill="#C9BBAE"/>
<path d="M35.3608 20.9098C35.3608 20.9098 42.2252 -2.25502 46.9555 1.3933C51.6859 5.04163 55.3288 21.5473 55.3288 21.5473L35.3608 20.9098Z" fill="#943A30"/>
<path d="M47.1187 64.31C47.1187 64.31 8.71859 65.0153 6.23108 49.9066C3.74357 34.7979 20.8435 3.59045 64.4497 10.0191C108.056 16.4478 109.13 48.7809 54.6492 61.4076C53.5753 63.2386 47.1187 64.31 47.1187 64.31Z" fill="#522018"/>
<path d="M68.446 55.5351C68.0918 56.2417 67.7742 56.966 67.4945 57.7051C69.6422 56.9547 71.6675 56.168 73.5705 55.3453C73.4618 55.3317 68.8538 54.8299 68.446 55.5351Z" fill="#FFB751"/>
<path d="M64.4497 10.0192C20.8299 3.57698 3.81153 34.7844 6.21748 49.8931C7.99816 60.9873 29.1896 63.5506 40.3358 64.1338V63.8219L35.9996 63.0895C35.9996 63.0895 35.184 61.5705 34.219 61.4077C32.607 61.3245 30.9918 61.3245 29.3799 61.4077L28.0885 59.9565H22.9096C22.9096 59.9565 23.3174 58.1934 22.9096 57.7865C22.5018 57.3797 14.849 56.4303 14.849 56.4303C14.849 56.4303 16.385 54.1925 15.8957 53.7178C15.4063 53.2431 11.709 49.1743 11.709 49.1743C11.709 49.1743 15.9772 48.13 16.3034 46.4618C16.6297 44.7936 14.047 35.8559 14.047 35.8559C14.047 35.8559 20.4901 37.5512 21.7814 35.8559C23.0727 34.1606 21.863 27.0131 21.863 27.0131C21.863 27.0131 28.4691 28.6948 29.6789 27.6505C30.8887 26.6062 31.7722 19.4452 32.0169 19.4452C32.2616 19.4452 39.5882 22.9036 40.6348 22.5103C41.6815 22.117 43.7884 15.9189 43.7884 15.9189C43.7884 15.9189 49.5926 22.2798 51.6859 21.4796C53.7792 20.6794 58.2105 15.4442 58.2105 15.4442C58.2105 15.4442 61.1738 21.7101 64.3681 22.2255C67.5624 22.7409 72.9588 17.1531 72.9588 17.1531C72.9588 17.1531 73.122 23.4326 75.6774 24.5583C78.2329 25.684 83.6837 22.7002 83.6837 22.7002C83.6837 22.7002 83.0448 28.6406 84.3225 29.6849C85.6003 30.7292 91.119 30.58 91.119 30.58C91.119 30.58 86.212 34.7844 87.2586 36.6968C88.3053 38.6091 91.6356 40.0874 91.6356 40.0874C91.6356 40.0874 84.6216 42.9084 84.6216 44.1562C84.7279 45.5279 84.9461 46.8886 85.2741 48.2249C85.2741 48.2249 80.1087 48.3877 79.701 49.2692C79.4777 50.1108 79.4498 50.9922 79.6194 51.8461C79.6194 51.8461 74.3861 52.036 73.9783 52.8633C73.7043 53.6671 73.562 54.5098 73.5569 55.3588C107.947 40.535 102.089 15.5798 64.4497 10.0192Z" fill="#FFB751"/>
<path d="M63.77 57.7052C63.4349 58.1249 63.0247 58.479 62.5602 58.7495C62.5602 58.7495 59.0125 57.9629 58.3736 59.2106C58.1265 59.7202 57.8402 60.2099 57.5173 60.6754C61.0922 59.7667 64.4089 58.763 67.4809 57.7052C67.3586 57.6916 64.2458 57.0677 63.77 57.7052Z" fill="#FFB751"/>
<path d="M37.9842 61.9231C39.2495 64.154 39.8441 66.7013 39.6969 69.2605C39.6018 73.5598 37.7667 75.2687 42.4155 76.0418C47.0643 76.8148 60.3718 73.2343 60.0727 71.5254C59.7737 69.8165 57.3542 61.9367 58.7134 60.377C60.0727 58.8173 67.3722 55.386 62.968 44.4003C58.5639 33.4146 39.9824 35.4897 34.1102 41.6878C28.2381 47.8859 30.6168 58.4918 37.9842 61.9231Z" fill="#E8D9CA"/>
<path d="M34.1374 41.6877C32.9161 42.9813 31.9926 44.5254 31.4315 46.212C30.8703 47.8987 30.6851 49.6873 30.8887 51.4528C32.7892 48.4576 35.5261 46.0824 38.7625 44.6197C41.9989 43.1569 45.5933 42.6705 49.1032 43.2203C62.1117 45.1191 57.7619 54.8027 56.2259 59.2512C54.8666 63.0216 58.9445 69.4232 57.5852 73.3427C59.1892 72.6917 60.2087 71.9865 60.1407 71.5525C59.8689 69.83 57.4221 61.9502 58.7814 60.4041C60.1407 58.8579 67.3993 55.3724 62.9952 44.4002C58.5911 33.4281 40.0503 35.4761 34.1374 41.6877Z" fill="#C9BBAE"/>
<path d="M37.0599 53.7313C37.3179 53.0399 37.7709 52.4376 38.3642 51.9973C38.9575 51.5569 39.6658 51.2971 40.4037 51.2493C41.5048 51.2493 43.6253 47.2891 39.2483 46.1091C34.8714 44.9292 32.8461 49.3777 33.6616 52.9989C34.4772 56.6201 36.122 55.9284 37.0599 53.7313Z" fill="#36302F"/>
<path d="M49.076 43.1797C49.076 43.1797 45.4331 43.3696 44.9982 46.2448C44.8706 46.7038 44.8665 47.1883 44.9862 47.6494C45.1059 48.1105 45.3452 48.5321 45.68 48.8716C46.0148 49.2112 46.4334 49.4568 46.8935 49.5837C47.3536 49.7107 47.8392 49.7145 48.3012 49.5948C49.6605 49.3506 51.1558 48.7268 52.5966 49.6761C54.0375 50.6255 56.1988 48.564 55.0162 45.6074C53.8336 42.6507 49.076 43.1797 49.076 43.1797Z" fill="#36302F"/>
<path d="M43.8292 54.0297C43.8292 54.0297 42.4699 57.4746 43.0816 58.8037C43.6932 60.1328 45.0933 57.8543 45.5827 58.0984C46.072 58.3426 48.3012 59.1021 47.676 57.2847C47.0507 55.4673 44.2505 52.8362 43.8292 54.0297Z" fill="#36302F"/>
<path d="M39.9008 62.4792C39.9008 62.4792 41.6271 67.7686 41.464 69.7758C41.3009 71.7831 43.0816 70.1013 42.4019 67.0633C42.13 65.707 42.9864 65.5714 43.4893 65.9105C43.9923 66.2495 43.9107 67.6872 44.3185 67.8635C44.7263 68.0398 43.8699 65.8698 44.3185 65.4358C44.7671 65.0018 45.8001 65.1103 45.9633 65.6528C46.1264 66.1953 46.3031 67.7821 46.874 67.4837C47.4449 67.1854 46.2079 64.8526 47.1187 64.3101C48.0294 63.7676 48.8314 66.6835 49.3751 66.7785C49.9188 66.8734 48.7906 64.622 49.1848 64.066C49.579 63.5099 50.68 63.7405 50.9247 64.066C51.1694 64.3915 51.6859 66.2631 52.0257 65.9783C52.3655 65.6935 51.3461 63.6862 51.7131 63.1844C51.9672 62.9359 52.3088 62.7967 52.6646 62.7967C53.0204 62.7967 53.362 62.9359 53.6161 63.1844C54.0103 63.7947 54.8666 66.4665 55.5327 66.2767C56.1987 66.0868 55.8997 58.546 54.2821 57.1898C52.6646 55.8335 53.0588 60.4719 52.9228 61.1772C52.8924 61.3339 52.8305 61.4829 52.7406 61.6151C52.6508 61.7473 52.5351 61.8599 52.4003 61.9461C52.2656 62.0323 52.1148 62.0904 51.9569 62.1167C51.7991 62.1431 51.6375 62.1372 51.482 62.0994C50.9383 61.9367 50.2858 59.5632 49.9324 60.0108C49.579 60.4583 50.3674 62.1401 50.1499 62.5877C49.9324 63.0352 48.9537 63.2929 48.6003 62.9267C48.2469 62.5605 47.6352 60.499 47.3905 60.7974C47.1458 61.0958 47.975 62.886 47.6352 63.3878C47.5752 63.4831 47.492 63.5616 47.3934 63.6161C47.2947 63.6705 47.1838 63.6991 47.0711 63.6991C46.9583 63.6991 46.8474 63.6705 46.7488 63.6161C46.6501 63.5616 46.5669 63.4831 46.507 63.3878C46.2623 63.0623 45.5011 60.8516 45.3108 61.3942C45.1205 61.9367 45.8001 63.3607 45.5283 63.849C45.4422 63.9849 45.3268 64.1001 45.1906 64.1861C45.0544 64.2722 44.9007 64.3269 44.7407 64.3463C44.5807 64.3658 44.4183 64.3496 44.2654 64.2987C44.1124 64.2479 43.9727 64.1637 43.8564 64.0524C43.435 63.4828 43.3398 61.6518 43.0408 61.7332C42.7417 61.8146 43.3942 64.1745 43.2719 64.4457C43.1495 64.717 42.2252 65.1239 41.9941 64.7848C41.6067 63.714 41.091 62.694 40.4581 61.7468C39.7785 61.1907 39.4522 61.5569 39.9008 62.4792Z" fill="#36302F"/>
<path d="M75.5959 96.6568C75.5959 96.6568 68.2693 93.3883 57.9251 98.0131C47.5808 102.638 46.507 117.191 50.1091 127.851C53.7112 138.511 69.0305 149.198 81.0874 141.156C93.1444 133.113 89.2432 117.774 90.0996 117.502C90.9559 117.231 101.246 119.035 103.176 109.623C105.106 100.21 96.4882 86.39 86.7421 83.8538C75.8134 81.0192 75.5551 95.2328 75.5959 96.6568Z" fill="#FF9900"/>
<path d="M88.4412 96.9551C89.6296 97.8034 90.6345 98.8819 91.3959 100.126C92.1572 101.371 92.6594 102.755 92.8725 104.198L138.096 62.7232L133.475 57.4203L88.4412 96.9551Z" fill="#943A30"/>
<path d="M82.7458 99.722C82.0315 99.9792 81.3754 100.375 80.8152 100.887C80.2551 101.398 79.8021 102.015 79.4824 102.703C79.1626 103.39 78.9825 104.134 78.9523 104.891C78.9222 105.648 79.0427 106.403 79.3068 107.114C80.9787 112.742 89.95 111.359 90.4258 106.313C90.9015 101.268 86.9324 98.2165 82.7458 99.722Z" fill="#A66400"/>
<path d="M64.5312 111.888L74.1414 126.318L71.1374 128.773L61.6767 114.315L64.5312 111.888Z" fill="#943A30"/>
<path d="M132.713 60.6753L67.4673 115.468C67.4673 115.468 123.688 69.5859 132.713 60.6753Z" fill="white"/>
<path d="M116.497 76.1909C116.497 76.1909 76.126 110.097 72.8637 113.705C69.6014 117.313 113.167 79.6629 116.497 76.1909Z" fill="white"/>
<path d="M125.944 70.1691C125.618 70.1691 90.3714 101.268 87.5577 105.052C96.8281 97.8909 125.944 70.1691 125.944 70.1691Z" fill="white"/>
<path d="M72.0481 113.746C72.3468 113.053 72.7955 112.435 73.3618 111.935C73.9282 111.436 74.5983 111.068 75.324 110.857C77.5261 110.436 81.7399 108.741 82.1205 108.877C82.5011 109.012 81.6855 110.138 81.6855 110.138C81.6855 110.138 91.119 109.975 91.2821 110.803C91.4453 111.63 88.5636 112.064 88.6451 112.389C88.7267 112.715 91.1734 113.054 91.1462 113.936C91.119 114.817 88.1286 115.36 88.1286 115.36C88.1286 115.36 90.2627 116.838 90.2083 117.503C90.1539 118.167 87.9519 118.045 87.9519 118.045C87.9519 118.045 88.9985 119.089 88.3732 119.754C87.748 120.418 80.0408 117.191 77.4989 117.611C74.957 118.031 72.0481 113.746 72.0481 113.746Z" fill="#E8D9CA"/>
<path d="M70.7432 116.105C70.6752 115.983 69.2616 111.155 70.8655 111.196C72.4695 111.237 73.8152 114.207 73.8152 114.207C73.8152 114.207 76.3571 113.081 76.8736 114.003C77.02 114.334 77.0957 114.692 77.0957 115.054C77.0957 115.416 77.02 115.774 76.8736 116.105C76.8736 116.105 83.5206 115.739 84.608 117.38C85.6954 119.021 83.4798 119.835 83.4798 119.835C83.4798 119.835 85.8178 121.49 85.9809 122.9C86.144 124.311 83.6429 123.863 83.6429 123.863C83.6429 123.863 84.6896 127.484 83.8876 128.244C83.0856 129.003 81.169 126.318 81.169 126.318C81.169 126.318 81.4952 128.963 79.8913 128.38C78.2873 127.796 75.8134 121.49 75.8134 121.49L70.7432 116.105Z" fill="#FFF2CF"/>
<path d="M68.813 114.207C68.9353 114.288 80.666 120.988 81.0466 122.819C81.0466 122.819 77.2678 121.883 75.9765 124.46C74.6852 127.037 74.4405 146.336 73.6385 147.516C72.8365 148.696 67.9159 152.019 67.1954 151.775C66.475 151.531 63.5661 147.272 63.6477 145.346C63.7292 143.421 69.8868 131.621 70.1451 122.046C70.0424 119.386 69.5946 116.751 68.813 114.207Z" fill="#50305E"/>
<path d="M127.521 75.689C127.521 75.689 124.163 75.2822 123.443 76.6791C123.335 76.8499 123.267 77.0426 123.244 77.2429C123.22 77.4433 123.242 77.6464 123.307 77.8374C123.372 78.0284 123.479 78.2025 123.62 78.347C123.761 78.4916 123.933 78.6029 124.123 78.6728C124.123 78.6728 120.901 81.7515 122.274 84.0029C123.647 86.2543 126.216 83.3248 126.216 83.3248C126.216 83.3248 125.835 87.8411 126.787 88.7498C127.738 89.6585 128.853 88.4379 128.853 88.4379C128.853 88.4379 130.212 91.7064 131.993 91.4894C133.774 91.2724 132.877 85.3998 132.877 85.3998C132.877 85.3998 135.35 88.4107 136.152 86.417C136.954 84.4233 135.133 81.4667 135.133 81.4667C135.133 81.4667 137.362 83.0942 136.492 80.1104C135.622 77.1267 127.521 75.689 127.521 75.689Z" fill="#FFF2CF"/>
<path d="M130.036 80.0698C130.036 80.0698 132.931 77.0589 132.211 75.1195C131.49 73.18 127.249 67.9313 126.569 66.982C125.89 66.0326 123.661 64.5 123.144 65.0154C122.627 65.5308 124.354 67.7279 124.354 67.7279C124.354 67.7279 121.635 66.3716 121.363 67.1176C121.091 67.8635 122.532 69.3147 122.532 69.3147C122.532 69.3147 120.045 67.8093 119.922 68.8129C119.8 69.8165 120.969 71.3084 120.969 71.3084C120.969 71.3084 118.618 70.3726 118.753 71.3084C118.889 72.2442 119.433 74.36 120.113 73.7904C120.32 73.633 120.484 73.4265 120.591 73.1897C120.698 72.9528 120.744 72.6931 120.724 72.4341C120.724 72.5155 127.521 77.5743 127.521 77.5743C127.521 77.5743 125.604 78.0219 125.849 79.2289C126.094 80.436 128.418 81.1141 130.036 80.0698Z" fill="#E8D9CA"/>
<path d="M150.167 52.6056C151.447 52.5298 152.732 52.5889 154 52.7819C154 53.0396 152.641 56.4302 151.947 56.4981C151.254 56.5659 149.976 53.4601 149.976 53.4601C149.976 53.4601 147.475 56.1726 147.516 56.1726C147.557 56.1726 150.615 57.6916 150.561 58.1527C150.507 58.6138 148.93 61.0958 148.359 60.8652C147.788 60.6346 147 57.1355 146.904 57.2169C146.809 57.2983 144.009 60.1735 144.009 60.1735C144.009 60.1735 147.312 61.5298 147.204 61.9638C147.095 62.3978 144.58 64.6763 144.281 64.3779C143.854 63.1097 143.536 61.8075 143.33 60.4855C143.33 60.4855 148.522 53.121 150.167 52.6056Z" fill="#383838"/>
<path d="M135.459 52.158C134.187 52.0028 132.934 51.7165 131.721 51.3035C131.721 51.0323 133.692 47.9536 134.44 48.0078C135.187 48.0621 135.799 51.3578 135.799 51.3578C135.799 51.3578 138.722 49.1878 138.694 49.1064C138.667 49.025 135.976 47.072 136.071 46.6109C136.166 46.1498 138.191 44.0069 138.694 44.4138C139.197 44.8206 139.32 48.3062 139.483 48.2655C139.646 48.2248 142.867 45.865 142.867 45.865C142.867 45.865 139.85 43.9119 140.04 43.5322C140.23 43.1524 143.098 41.3079 143.343 41.6877C143.536 43.0077 143.618 44.3415 143.588 45.6751C143.588 45.6751 137.186 51.9545 135.459 52.158Z" fill="#383838"/>
<path d="M133.475 57.4203L132.713 53.4465C132.713 53.4465 145.45 42.0811 145.776 42.0811C146.102 42.0811 152.573 49.649 152.573 50.2186C152.573 50.7882 142.201 63.1437 141.617 63.3065C140.434 63.232 139.263 63.032 138.123 62.7097L133.475 57.4203Z" fill="#FF9900"/>
<path d="M136.343 53.2294C136.343 53.2294 136.207 53.9754 136.71 54.2737C136.846 54.3574 137.004 54.3979 137.164 54.3897C137.323 54.3816 137.477 54.3252 137.603 54.2282C137.73 54.1311 137.824 53.9978 137.874 53.8461C137.923 53.6944 137.925 53.5314 137.879 53.3786C137.675 52.5377 136.411 52.2665 136.343 53.2294Z" fill="#383838"/>
<path d="M140.217 49.2014C140.217 49.2014 140.081 49.9473 140.584 50.2457C140.72 50.3294 140.878 50.3698 141.038 50.3617C141.197 50.3535 141.351 50.2972 141.477 50.2001C141.604 50.103 141.698 49.9698 141.748 49.8181C141.797 49.6664 141.799 49.5033 141.753 49.3506C141.549 48.469 140.271 48.2384 140.217 49.2014Z" fill="#383838"/>
<path d="M144.159 45.7565C144.159 45.7565 144.023 46.5025 144.526 46.8008C144.662 46.8845 144.82 46.9249 144.98 46.9168C145.139 46.9087 145.293 46.8523 145.419 46.7552C145.546 46.6582 145.64 46.5249 145.69 46.3732C145.739 46.2215 145.741 46.0585 145.695 45.9057C145.491 45.0377 144.213 44.78 144.159 45.7565Z" fill="#383838"/>
<path d="M147.897 50.5984C147.897 50.5984 147.761 51.3308 148.25 51.6427C148.386 51.7264 148.545 51.7668 148.704 51.7587C148.864 51.7505 149.017 51.6942 149.144 51.5971C149.271 51.5 149.365 51.3668 149.414 51.2151C149.463 51.0634 149.465 50.9003 149.419 50.7476C149.229 49.8253 147.951 49.6219 147.897 50.5984Z" fill="#383838"/>
<path d="M144.458 54.4772C144.458 54.4772 144.322 55.2231 144.811 55.5215C144.945 55.6114 145.104 55.6573 145.265 55.6529C145.426 55.6485 145.582 55.5939 145.711 55.4969C145.84 55.3998 145.935 55.265 145.983 55.1114C146.031 54.9578 146.03 54.793 145.98 54.64C145.79 53.772 144.512 53.5143 144.458 54.4772Z" fill="#383838"/>
<path d="M140.285 58.5596C140.285 58.5596 140.149 59.292 140.652 59.6039C140.788 59.6876 140.946 59.728 141.106 59.7199C141.265 59.7118 141.419 59.6554 141.545 59.5583C141.672 59.4613 141.766 59.328 141.816 59.1763C141.865 59.0246 141.867 58.8616 141.821 58.7088C141.617 57.8408 140.353 57.5831 140.285 58.5596Z" fill="#383838"/>
<path d="M59.7601 76.2723C59.7601 76.2723 34.8306 88.0581 36.0676 89.9569C37.3046 91.8556 42.6738 89.2652 43.367 90.6079C44.0602 91.9506 43.068 97.6197 44.7263 97.457C46.3846 97.2942 50.4897 92.9678 51.115 93.3882C51.7403 93.8087 52.7054 99.2879 54.187 99.2066C55.6686 99.1252 58.0338 93.4018 59.2708 93.6323C60.5077 93.8629 62.8321 99.2744 64.3001 97.9181C65.7682 96.5618 65.2245 79.1475 65.2245 79.1475C65.2245 79.1475 83.6837 83.9758 84.1459 82.2533C84.608 80.5309 81.0874 77.615 81.4273 77.0318C81.7671 76.4486 86.1984 76.5978 85.0022 74.5363C83.806 72.4747 79.1708 72.1899 79.4019 71.5254C79.633 70.8608 85.8314 66.6564 84.9207 65.585C84.0099 64.5135 79.1437 66.3038 78.7087 65.3137C78.2737 64.3236 82.338 59.3597 80.8835 58.6138C79.4291 57.8679 62.9544 73.6276 62.9544 73.6276L59.7601 76.2723Z" fill="#FF2424"/>
<path d="M56.9328 77.425C56.9328 77.425 42.8777 87.1901 43.9651 87.9089C45.0525 88.6277 56.4978 79.2695 56.4978 79.2695C56.4978 79.2695 49.7013 90.4044 51.3733 90.7163C53.0452 91.0283 59.1484 79.1475 59.1484 79.1475C59.1484 79.1475 58.7134 89.3872 59.964 89.5364C61.2145 89.6856 62.6146 77.6827 62.6146 77.6827C62.6146 77.6827 74.658 79.161 74.3317 77.6827C74.0055 76.2044 66.176 74.9702 66.176 74.9702C66.176 74.9702 74.1822 73.8445 74.4405 72.3798C74.6987 70.915 66.7877 72.9223 66.7877 72.9223C66.7877 72.9223 75.4735 67.9584 74.6444 67.0361C73.8152 66.1139 65.1293 71.566 65.1293 71.566L56.9328 77.425Z" fill="#A31515"/>
</svg>
