<svg width="160" height="286" viewBox="0 0 160 286" fill="none" xmlns="http://www.w3.org/2000/svg">
<g clip-path="url(#clip0_148_1722)">
<path d="M68.9957 11.4939C68.9957 11.4939 79.6126 0.894058 81.6069 3.27145C83.6012 5.64884 84.4763 24.3046 84.4763 24.3046L68.9957 11.4939Z" fill="#943A30"/>
<path d="M30.1291 23.5171C30.1291 23.5171 33.5438 54.2263 62.8551 61.1011C92.1664 67.9758 113.142 51.1069 112.396 45.8524C111.65 40.5979 74.3041 3.75592 53.5151 1.37853C32.726 -0.998861 26.5997 8.02615 30.1291 23.5171Z" fill="#522018"/>
<path d="M70.3013 84.4057L63.5151 78.4546C63.5151 78.4546 74.2468 71.1256 77.4032 69.8082C79.2 69.0312 81.1041 68.5659 83.0416 68.4302C83.0416 68.4302 83.142 77.8186 81.3917 81.3014C79.6413 84.7842 70.3013 84.4057 70.3013 84.4057Z" fill="#50305E"/>
<path d="M67.8766 68.7936C67.8766 68.7936 73.8881 80.5291 75.0502 81.7254C76.2123 82.9216 80.5595 81.1651 80.5595 81.1651C80.5595 81.1651 72.6399 67.6276 72.1664 63.3271C71.693 59.0266 67.8766 68.7936 67.8766 68.7936Z" fill="#9C9086"/>
<path d="M13.8594 267.404C13.8594 267.404 5.25108 275.566 3.81636 277.05C2.38164 278.534 -1.2769 280.427 0.373033 281.426C2.02296 282.426 11.2195 281.896 11.4204 280.79C11.6212 279.685 12.2095 274.355 12.6112 273.037C13.1774 271.788 13.9173 270.634 14.8063 269.615L13.8594 267.404Z" fill="#752E25"/>
<path d="M149.813 267.344C149.813 267.344 153.415 269.979 154.017 272.083C154.62 274.188 151.664 278.686 151.263 278.731C150.861 278.776 146.958 277.883 146.729 282.259C146.499 286.635 158.766 284.743 158.809 283.471C158.852 282.199 158.809 273.249 158.565 271.614C158.321 269.979 160.56 266.92 159.857 265.981C159.154 265.042 153.357 263.134 153.357 263.134L149.813 267.344Z" fill="#752E25"/>
<path d="M70.3013 148.913C70.3013 148.913 55.5667 179.986 46.9728 212.043C27.9914 229.124 9.41177 265.602 9.41177 265.602C9.41177 265.602 21.3917 276.354 23.1994 276.354C24.9928 269.615 43.9742 225.535 50.1722 216.888C59.7561 205.501 78.6944 169.235 81.6069 167.766C84.5194 166.297 93.5581 167.554 93.5581 167.554C93.5581 167.554 113.3 213.724 115.079 217.312C116.858 220.901 142.453 270.039 142.453 276.369C154.634 270.312 155.638 258.667 155.638 258.667C155.638 258.667 134.462 227.67 120.674 215.011C119.24 195.825 109.297 160.497 106.327 152.926C103.357 145.355 70.3013 148.913 70.3013 148.913Z" fill="#40254A"/>
<path d="M154.763 261.907C151.621 252.458 144.72 245.523 137.848 239.027C129.885 231.592 122.453 224.217 118.508 213.542C114.763 203.366 113.788 192.342 112.009 181.742C110.1 170.234 106.27 159.846 101.621 149.292C101.306 148.565 100.273 149.201 100.588 149.928C105.501 160.477 109.025 171.685 111.062 183.242C112.769 193.841 113.845 204.79 117.748 214.875C121.363 224.233 127.69 231.168 134.706 237.77C142.209 244.796 150.187 251.928 153.615 262.256C153.859 262.967 154.95 262.68 154.763 261.907Z" fill="#FFB751"/>
<path d="M69.4979 161.315C57.604 176.094 51.5208 194.538 45.7389 212.649C45.495 213.406 46.6428 213.739 46.8867 212.982C52.6255 195.098 58.5796 176.806 70.3443 162.208C70.8321 161.588 70 160.694 69.4979 161.315Z" fill="#FFB751"/>
<path d="M101.32 129.712C101.32 129.712 101.865 147.096 106.313 152.896C102.009 154.259 85.2367 150.988 84.792 149.731C84.3472 148.474 86.7863 130.651 86.7863 130.651L101.32 129.712Z" fill="#FF2424"/>
<path d="M101.865 136.239C101.865 136.239 90.6456 138.071 87.0445 135.512C83.4433 132.953 84.175 140.055 84.175 140.055C84.175 140.055 97.9627 141.206 101.865 136.239Z" fill="#A31515"/>
<path d="M102.912 143.568C102.912 143.568 92.6829 145.082 86.7288 143.144C80.7748 141.206 83.3859 145.082 83.3859 145.082C83.3859 145.082 94.6342 149.625 104.29 148.807C103.734 147.091 103.274 145.341 102.912 143.568Z" fill="#A31515"/>
<path d="M34.2324 121.732C34.2324 121.732 55.7532 93.1581 56.858 89.5996C57.5521 87.2099 57.9571 84.7372 58.0631 82.2402C58.0631 82.2402 71.5208 81.256 77.7762 78.8332C84.0316 76.4103 90.4591 63.5088 91.3917 63.3271C92.3242 63.1454 104.304 80.5594 113.501 85.4051C122.697 90.2507 128.996 90.0538 128.996 90.0538C128.996 90.0538 123.989 102.592 121.392 102.804C118.795 103.016 92.8264 81.256 92.8264 81.256C92.8264 81.256 96.2841 95.49 100.846 102.183C105.409 108.876 115.681 112.359 115.681 112.359C115.681 112.359 110.803 127.29 98.8235 129.712C86.8436 132.135 62.9555 129.712 62.9555 129.712C62.9555 129.712 64.5624 105.363 61.3486 99.0334C58.4792 101.169 46.7719 117.674 45.4806 121.157C44.1894 124.64 34.2324 121.732 34.2324 121.732Z" fill="#50305E"/>
<path d="M69.9426 83.9211C69.9426 83.9211 70.6026 109.664 76.8867 113.964C83.1707 118.265 87.8336 104.182 87.8336 104.182C87.8336 104.182 87.7332 88.6304 82.9412 81.468C78.1492 74.3055 69.9426 83.9211 69.9426 83.9211Z" fill="#FFF2CF"/>
<path d="M121.492 90.8413C121.492 90.8413 118.953 103.97 121.492 105.484C124.032 106.998 131.205 92.2192 129.699 88.8273C128.192 85.4353 121.492 90.8413 121.492 90.8413Z" fill="#40264A"/>
<path d="M98.4218 106.605C98.4218 106.605 88.3788 93.9455 78.637 99.8511C72.0517 104.288 75.0215 113.267 75.0215 113.267C75.0215 113.267 47.5753 106.075 43.3716 134.331C39.1679 162.587 65.2367 171.869 77.8049 163.541C90.373 155.213 90.8608 135.921 90.8608 135.921C90.8608 135.921 103.242 140.464 105.05 128.849C106.858 117.235 98.4218 106.605 98.4218 106.605Z" fill="#FF9900"/>
<path d="M83.3859 113.404C83.3859 113.404 78.3931 114.04 79.5409 121.308C80.6887 128.577 91.4778 128.168 91.8221 121.308C92.1664 114.449 87.3888 112.722 83.3859 113.404Z" fill="#A66400"/>
<path d="M66.1119 128.062L78.1779 143.25L74.6198 146.294L62.3673 131.257L66.1119 128.062Z" fill="#943A30"/>
<path d="M89.8996 110.663C89.8996 110.663 94.8494 115.206 94.9211 118.234L139.283 72.1703L135.179 66.6887L89.8996 110.663Z" fill="#943A30"/>
<path d="M134.39 68.4302C134.39 68.4302 69.3544 132.029 69.5552 132.377C69.7561 132.726 125.997 78.0306 134.39 68.4302Z" fill="white"/>
<path d="M134.39 70.7621C134.39 70.7621 81.1334 122.504 77.3458 127.683C87.1306 120.627 134.39 70.7621 134.39 70.7621Z" fill="white"/>
<path d="M133.085 74.3358L83.2138 125.26C83.2138 125.26 127.088 81.9374 133.085 74.3358Z" fill="white"/>
<path d="M74.9498 131.378C74.9498 131.378 78.7949 128.153 81.8652 128.077C84.9355 128.001 86.1693 128.41 86.0832 128.789C85.0223 129.437 83.8899 129.946 82.7116 130.303C82.7116 130.303 86.7719 131.151 88.4505 131.817C90.1291 132.484 91.8221 134.588 91.32 135.012C90.8178 135.436 88.2783 133.816 88.2783 133.816C88.2783 133.816 90.0144 135.906 89.34 136.39C88.6657 136.875 85.5954 134.694 85.5954 134.694C85.5954 134.694 87.7762 137.163 87.0301 137.723C86.2841 138.283 83.6442 135.618 83.6442 135.618C83.6442 135.618 85.6672 138.086 84.8781 138.404C84.089 138.722 80.2009 135.527 77.2454 135.527C74.2898 135.527 74.9498 131.378 74.9498 131.378Z" fill="#E8D9CA"/>
<path d="M74.9211 128.698C74.9211 128.698 52.8121 126.048 46.2267 119.945C41.5782 116.508 34.3042 121.732 34.3042 121.732C34.3042 121.732 44.3472 134.543 55.5811 136.678C66.8149 138.813 77.7619 140.63 77.7619 140.63C77.7619 140.63 78.1349 132.408 74.9211 128.698Z" fill="#50305E"/>
<path d="M116.126 86.0259C116.126 86.0259 121.033 96.0806 123.845 96.0352C126.657 95.9898 129.799 91.129 129.684 88.3276C129.57 85.5262 121.492 77.8641 120.904 78.9392C120.316 80.0143 122.554 83.1791 122.496 83.164C122.439 83.1488 118.192 79.6206 118.393 81.1652C118.824 82.6881 119.499 84.122 120.387 85.4051C120.387 85.4051 116.872 82.0889 116.772 82.8914C116.671 83.694 119.082 86.8588 119.082 86.8588C119.082 86.8588 115.682 84.1483 115.624 84.7388C115.656 85.2137 115.832 85.6652 116.126 86.0259Z" fill="#E8D9CA"/>
<path d="M137.217 62.1459C137.217 62.1459 132.826 61.4191 132.826 61.0859C132.826 60.7528 135.136 56.9066 135.983 56.9671C136.829 57.0277 137.633 61.1465 137.633 61.1465C137.633 61.1465 141.076 58.436 141.047 58.3451C141.019 58.2543 137.733 55.8012 137.948 55.2257C138.164 54.6503 140.445 51.9852 141.047 52.4849C141.65 52.9846 141.779 57.3457 141.966 57.2851C142.152 57.2246 145.954 54.2566 145.954 54.2566C145.954 54.2566 142.41 51.8186 142.64 51.3492C142.869 50.8798 146.241 48.563 146.528 49.0324C146.753 50.6819 146.849 52.3482 146.815 54.0143C146.815 54.0143 139.254 61.8885 137.217 62.1459Z" fill="#383838"/>
<path d="M151.062 60.0563C151.062 60.0563 155.509 60.1471 155.552 60.4803C155.595 60.8134 153.802 65.0231 152.941 65.0231C152.08 65.0231 150.775 61.1163 150.775 61.1163C150.775 61.1163 147.719 64.2962 147.762 64.3871C147.805 64.4779 151.306 66.4313 151.234 67.0219C151.162 67.6124 149.168 70.5955 148.508 70.1867C147.848 69.7778 147.159 65.4773 146.987 65.5531C146.815 65.6288 143.472 69.051 143.472 69.051C143.472 69.051 147.303 70.959 147.145 71.4587C146.987 71.9584 143.917 74.7143 143.572 74.2904C143.146 72.6879 142.839 71.0525 142.654 69.3993C142.654 69.3993 149.082 60.5711 151.062 60.0563Z" fill="#383838"/>
<path d="M135.179 66.7493L134.39 63.327C134.39 63.327 148.077 49.2444 148.264 49.2444C148.45 49.2444 154.72 58.4208 154.318 59.2082C153.917 59.9957 142.123 72.9729 142.123 72.9729L139.254 72.2309L135.179 66.7493Z" fill="#FF9900"/>
<path d="M138.565 63.0848C138.565 63.0848 138.436 63.8116 138.895 64.1145C139.022 64.1986 139.169 64.2399 139.318 64.2329C139.467 64.2259 139.611 64.1709 139.73 64.0753C139.848 63.9797 139.936 63.8481 139.982 63.6981C140.028 63.5481 140.029 63.3869 139.986 63.2362C139.799 62.3731 138.623 62.1157 138.565 63.0848Z" fill="#383838"/>
<path d="M142.439 59.1174C142.439 59.1174 142.31 59.8442 142.783 60.1471C142.91 60.2312 143.057 60.2725 143.206 60.2655C143.355 60.2585 143.499 60.2035 143.618 60.1079C143.736 60.0123 143.825 59.8807 143.87 59.7307C143.916 59.5807 143.917 59.4195 143.874 59.2688C143.687 58.4208 142.496 58.1634 142.439 59.1174Z" fill="#383838"/>
<path d="M146.944 54.605C146.944 54.605 146.815 55.3469 147.274 55.6347C147.4 55.7187 147.548 55.76 147.697 55.753C147.846 55.746 147.99 55.691 148.108 55.5954C148.227 55.4999 148.315 55.3682 148.361 55.2183C148.407 55.0683 148.408 54.9071 148.364 54.7564C148.178 53.9084 147.001 53.651 146.944 54.605Z" fill="#383838"/>
<path d="M150.057 58.8904C150.057 58.8904 149.928 59.6172 150.402 59.9201C150.528 60.0041 150.676 60.0454 150.825 60.0384C150.974 60.0314 151.117 59.9764 151.236 59.8809C151.355 59.7853 151.443 59.6536 151.489 59.5037C151.534 59.3537 151.536 59.1925 151.492 59.0418C151.306 58.1938 150.115 57.9364 150.057 58.8904Z" fill="#383838"/>
<path d="M146.212 63.0848C146.212 63.0848 146.083 63.8116 146.542 64.1145C146.669 64.1986 146.816 64.2399 146.965 64.2329C147.114 64.2259 147.258 64.1709 147.377 64.0753C147.495 63.9797 147.583 63.8481 147.629 63.6981C147.675 63.5481 147.676 63.3869 147.633 63.2362C147.446 62.3731 146.255 62.1157 146.212 63.0848Z" fill="#383838"/>
<path d="M141.707 67.6276C141.707 67.6276 141.578 68.3544 142.052 68.6573C142.178 68.7361 142.323 68.7732 142.47 68.7636C142.616 68.7541 142.756 68.6984 142.872 68.6038C142.988 68.5091 143.075 68.3799 143.12 68.2328C143.166 68.0858 143.168 67.9277 143.128 67.779C142.956 66.9613 141.765 66.7039 141.707 67.6276Z" fill="#383838"/>
<path d="M82.3386 39.1745C78.0344 28.1507 60.8178 29.3773 54.5624 33.6929C48.307 38.0086 52.5682 46.973 54.3185 50.3498C55.3839 52.4049 55.881 54.7344 55.7532 57.0731C55.9397 59.0445 55.9012 61.0323 55.6385 62.9939C55.1937 64.9776 53.2999 66.3253 53.2999 67.1127C53.2999 67.9001 54.2611 70.6561 61.693 71.0649C69.1248 71.4738 73.2855 69.5507 72.769 67.2036C72.2525 64.8564 73.0416 57.9968 74.089 57.4668C75.1363 56.9368 86.6284 50.1984 82.3386 39.1745Z" fill="#E8D9CA"/>
<path d="M55.4376 39.1292C55.4376 39.1292 52.439 40.8706 54.0029 45.1862C55.5667 49.5019 62.1664 46.9579 61.6786 42.8543C61.6277 42.1072 61.4026 41.3849 61.0232 40.7519C60.6439 40.1188 60.1221 39.5946 59.5043 39.2258C58.8865 38.8571 58.192 38.6553 57.4825 38.6385C56.7729 38.6216 56.0705 38.7902 55.4376 39.1292Z" fill="#36302F"/>
<path d="M66.528 40.3709C66.528 40.3709 63.802 43.9294 65.452 47.0488C67.1019 50.1682 72.6256 48.6842 72.1521 44.6411C71.6786 40.598 68.2497 38.4629 66.528 40.3709Z" fill="#36302F"/>
<path d="M62.0373 48.5328C62.0373 48.5328 60.3443 52.485 61.1478 53.1664C61.9512 53.8478 62.5825 52.1216 63.0273 52.5153C63.472 52.909 63.9598 54.2264 64.462 53.333C64.9641 52.4396 63.1851 48.4268 63.0273 47.9725C62.8694 47.5182 62.2956 47.6242 62.0373 48.5328Z" fill="#36302F"/>
<path d="M55.7245 57.0278C55.7245 57.0278 56.1549 60.1926 57.1593 59.814C58.1636 59.4354 57.8623 57.2095 58.2927 57.2095C58.7231 57.2095 58.0775 60.9194 59.627 60.45C61.1765 59.9806 60.5595 57.2095 61.1765 57.4215C61.7934 57.6335 60.9756 60.2229 62.2238 60.5409C63.472 60.8588 63.5294 57.0278 63.845 57.3306C64.1607 57.6335 63.6011 60.3591 64.7346 60.6014C65.868 60.8437 65.5954 56.952 66.0258 57.1338C66.4562 57.3155 65.9254 60.2683 66.901 60.5106C67.8766 60.7528 68.2353 58.8449 68.2353 57.3458C68.2353 55.8466 68.7231 52.803 69.8709 53.651C71.0186 54.4989 70.5452 64.0085 69.2252 64.5082C67.9053 65.0079 68.2496 60.8134 67.0588 60.8134C65.868 60.8134 66.3702 64.0994 65.8823 64.1145C65.3945 64.1297 65.5237 61.3283 65.1506 61.086C64.7776 60.8437 63.9742 60.556 63.8594 61.4343C63.7446 62.3125 63.7016 64.4628 63.2712 64.1145C62.8407 63.7662 63.2712 61.5554 62.9125 61.086C62.5538 60.6166 61.5638 60.4954 61.4778 61.2828C61.3917 62.0703 61.1908 63.9782 60.9756 63.8722C60.7604 63.7662 60.7317 61.4494 60.2439 60.98C59.7561 60.5106 58.8092 60.556 58.8092 61.0557C58.8092 61.5554 58.3501 63.8571 58.1349 63.6451C57.9197 63.4331 58.307 60.9194 58.1349 60.6166C57.9627 60.3137 56.944 60.2531 56.7001 60.7528C56.4154 61.514 56.0798 62.2528 55.6958 62.9637C55.5237 62.9182 55.8106 59.6777 55.7245 57.0278Z" fill="#36302F"/>
<path d="M54.5194 33.6929C53.4269 34.4409 52.5479 35.4886 51.9767 36.7237C51.4055 37.9588 51.1636 39.3348 51.2769 40.704C52.8838 38.796 56.0545 36.6306 62.2669 36.2823C73.6012 35.6463 81.2913 44.6562 74.2468 52.4092C72.023 54.2718 72.2956 60.2834 72.5969 63.0999C72.8121 60.5105 73.3573 57.8 74.0316 57.4668C75.0789 56.952 86.6141 50.1984 82.3243 39.1745C78.0345 28.1507 60.7461 29.3773 54.5194 33.6929Z" fill="#C9BBAE"/>
<path d="M53.5151 1.37853C32.7403 -0.998861 26.5997 8.02615 30.1291 23.5171C30.1291 23.5171 30.1291 23.941 30.3013 24.683C30.3013 24.683 35.7245 28.6504 35.825 27.8327C35.9254 27.015 34.175 14.0378 34.175 14.0378C34.175 14.0378 41.4204 21.6091 42.2238 20.9882C43.0273 20.3674 43.0416 9.28298 43.0416 9.28298C43.0416 9.28298 50.7891 20.4582 51.363 19.4134C52.2427 16.0773 52.961 12.6961 53.5151 9.28298C53.5151 9.28298 58.3644 20.7762 59.1535 20.4582C59.9426 20.1402 61.693 11.5998 61.693 11.5998C61.693 11.5998 63.5438 21.4122 64.9641 20.7762C66.3845 20.1402 70.3013 14.3406 70.5309 15.0826C70.7604 15.8246 71.736 25.107 73.1707 24.259C75.2427 22.5647 77.1636 20.6741 78.9096 18.6108C78.9096 18.6108 79.254 26.1822 81.0474 26.8939C82.8408 27.6056 88.6514 24.683 88.6514 24.683C88.6514 24.683 87.0445 32.6935 87.8479 33.1175C88.6514 33.5415 94.6916 31.0127 94.6916 31.0127C94.6916 31.0127 92.5969 37.5391 93.9025 38.0691C95.208 38.5991 100.187 37.2211 100.187 37.2211C100.187 37.2211 97.561 42.2031 98.221 43.0359C98.8809 43.8687 103.515 43.0359 103.515 43.0359C103.515 43.0359 101.22 47.8815 101.966 48.3055C102.712 48.7295 107.704 47.4878 107.704 47.4878C107.704 47.4878 105.595 51.4552 105.854 52.0306C105.854 52.2426 107.016 52.2426 108.451 52.0306C111.22 49.5927 112.654 47.291 112.439 45.8524C111.707 40.5979 74.3042 3.75592 53.5151 1.37853Z" fill="#FFB751"/>
<path d="M73.3429 79.5448C73.3429 79.5448 51.4634 83.3759 52.3243 86.0713C53.1851 88.7667 57.8766 87.8732 58.3357 89.7055C58.7948 91.5378 57.3888 97.7008 58.8235 98.1702C60.2583 98.6396 64.0603 95.2326 64.5624 95.9897C65.0646 96.7468 65.3372 103.455 66.571 103.94C67.8049 104.424 70.33 98.7154 71.3343 99.3968C72.3386 100.078 73.759 107.347 75.1076 106.347C76.4562 105.348 77.6184 85.0264 77.6184 85.0264C77.6184 85.0264 92.5108 97.9128 93.0703 96.0805C93.6298 94.2483 90.9756 89.5086 91.3486 88.9787C91.7217 88.4487 95.3659 90.3566 94.5624 87.4644C93.759 84.5721 89.8996 82.437 90.1722 81.6951C90.4448 80.9531 95.9828 78.5757 95.3228 76.9706C94.6628 75.3654 90.4448 75.4563 90.1865 74.2146C89.9283 72.9729 93.7877 68.7481 92.6399 67.3096C91.4921 65.871 76.2697 77.7125 76.2697 77.7125L73.3429 79.5448Z" fill="#FF2424"/>
<path d="M70.8895 79.7417C70.8895 79.7417 58.2497 85.5262 59.0961 86.7982C59.9426 88.0701 70.3013 81.7254 70.3013 81.7254C70.3013 81.7254 63.6012 91.9618 64.9355 92.9764C66.2697 93.9909 72.5108 82.6339 72.5108 82.6339C72.5108 82.6339 71.1765 94.324 72.2095 94.9903C73.2425 95.6566 75.5524 82.3008 75.5524 82.3008C75.5524 82.3008 85.4233 88.7516 85.2941 86.8436C85.165 84.9356 78.8379 80.4837 78.8379 80.4837C78.8379 80.4837 85.5954 82.3159 86.0115 80.726C86.4276 79.136 79.584 78.3486 79.584 78.3486C79.584 78.3486 87.2884 76.0015 86.7576 74.6083C86.2267 73.2152 78.4075 76.1226 78.4075 76.1226L70.8895 79.7417Z" fill="#A31515"/>
</g>
<defs>
<clipPath id="clip0_148_1722">
<rect width="160" height="284" fill="white" transform="translate(0 1)"/>
</clipPath>
</defs>
</svg>
