<svg width="161" height="286" viewBox="0 0 161 286" fill="none" xmlns="http://www.w3.org/2000/svg">
<path d="M99.1801 267.516C99.1801 267.516 101.396 281.869 100.708 282.704C98.9806 283.845 97.1426 284.812 95.2217 285.59C95.2217 285.59 102.726 286.562 103.597 285.332C104.468 284.101 103.811 264.539 106.654 262.853C105.125 261.455 100.938 260.741 100.938 260.741L99.1801 267.516Z" fill="#752E25"/>
<path d="M60.4674 186.712C60.4674 186.712 57.9151 201.066 54.0942 203.617C57.2732 206.655 67.0087 187.107 66.3209 184.328C65.6332 181.548 59.6421 180.394 59.6421 180.394L60.4674 186.712Z" fill="#752E25"/>
<path d="M50.9153 152.614C50.9153 152.614 39.3458 158.583 28.6322 175.762C17.9185 192.94 16.1609 209.602 17.5059 210.422C18.8508 211.242 50.4262 192.196 57.2426 189.446C61.1704 187.381 62.1027 187.791 62.1027 187.791C62.1027 187.791 64.8996 178.04 57.3343 174.379C55.2711 180.181 26.2785 198.59 26.2785 198.59C26.2785 198.59 46.8499 167.074 50.9153 166.39C54.9807 165.707 65.9541 179.179 65.6332 181.579C65.3122 183.979 52.0768 234.951 54.9348 241.543C57.7928 248.135 81.5279 254.043 95.8178 274.259C98.6146 272.087 104.361 255.896 104.361 255.896C104.361 255.896 63.5241 240.708 62.5918 234.283C61.6595 227.858 85.8836 184.541 79.1284 162.654C76.4538 156.351 50.9153 152.614 50.9153 152.614Z" fill="#40254A"/>
<path d="M70.1418 84.0989C70.1418 84.0989 59.4434 114.081 63.1573 121.933C66.8711 129.786 82.8575 123.452 84.7526 110.056C86.6478 96.6598 74.3447 70.9304 70.1418 84.0989Z" fill="#FFF2CF"/>
<path d="M101.855 261.455C91.9817 258.524 82.292 252.935 73.6111 247.497C71.4561 246.145 69.3165 244.748 67.2379 243.275C64.7315 241.498 61.7971 239.721 61.0482 236.516C60.4063 233.843 61.1857 230.683 61.5372 228.01C61.9346 224.972 62.5154 221.935 63.0656 218.897C65.3646 208.367 68.4294 198.017 72.2356 187.928C75.5979 178.617 78.4254 169.048 75.7049 159.191C75.6556 159.058 75.5578 158.949 75.4311 158.885C75.3044 158.821 75.1581 158.807 75.0213 158.845C74.8845 158.883 74.7672 158.972 74.6928 159.092C74.6184 159.212 74.5923 159.356 74.6198 159.495C78.242 171.266 73.6722 183.204 69.2706 194.094C65.1477 204.801 62.266 215.941 60.6814 227.296C60.0853 231.139 58.6334 236.075 61.0176 239.569C63.4018 243.062 68.4148 245.644 71.9299 248.013C76.502 251.017 81.2481 253.751 86.1434 256.2C91.0494 258.676 96.1999 260.498 101.182 262.777C101.27 262.821 101.365 262.847 101.462 262.854C101.56 262.862 101.658 262.85 101.751 262.819C101.844 262.789 101.93 262.741 102.004 262.678C102.078 262.614 102.139 262.537 102.183 262.45C102.227 262.363 102.254 262.269 102.261 262.172C102.269 262.075 102.257 261.977 102.226 261.885C102.196 261.793 102.147 261.707 102.084 261.633C102.02 261.56 101.942 261.499 101.855 261.455Z" fill="#FFB751"/>
<path d="M57.3496 136.408C57.3496 136.408 53.544 149.607 50.9153 152.614C60.4674 159.631 79.1742 162.608 79.1742 162.608C79.1742 162.608 80.2135 149.334 84.2177 144.124C88.222 138.914 65.893 128.222 57.3496 136.408Z" fill="#FF2424"/>
<path d="M57.0439 137.563L55.8518 141.253C55.8518 141.253 74.4363 143.106 81.3139 150.564C73.6722 154.422 53.6204 147.42 53.6204 147.42C53.6204 147.42 57.1356 157.429 80.1523 155.576C80.1523 155.576 81.5278 148.559 82.5671 147.177C83.6064 145.795 70.6002 135.527 57.0439 137.563Z" fill="#A31515"/>
<path d="M91.3092 85.6329C91.3092 85.6329 103.414 108.993 104.254 113.519C105.095 118.045 106.822 146.341 106.822 146.341L118.315 152.204C118.315 152.204 110.857 114.233 110.138 111.848C109.42 109.464 94.8549 81.6839 92.8528 73.2239C92.3485 77.2033 91.3092 85.6329 91.3092 85.6329Z" fill="#50305E"/>
<path d="M28.6321 74.6213C28.6321 74.6213 42.0662 78.5399 53.0855 78.3121C64.1048 78.0842 70.1876 73.7555 70.1876 73.7555L68.0326 71.3861C68.0326 71.3861 74.146 63.0476 78.0432 63.5792C81.9405 64.1108 80.9624 72.3733 80.9624 72.3733C80.9624 72.3733 85.3028 74.439 92.4402 72.829C95.344 74.3479 93.3724 100.73 94.6257 105.667C95.8789 110.603 100.739 129.543 98.9661 130.257C97.1933 130.971 79.6633 124.333 79.4799 123.893C79.2965 123.452 81.0082 83.6584 76.3315 81.365C71.6548 79.0715 69.7749 105.743 69.7749 105.743C69.7749 105.743 28.3723 86.5746 28.6321 74.6213Z" fill="#50305E"/>
<path d="M57.4107 24.5294C57.4107 24.5294 78.1655 -6.33365 82.8269 1.18467C87.4883 8.70299 83.7592 40.8875 83.7592 40.8875L57.4107 24.5294Z" fill="#943A30"/>
<path d="M52.3825 61.635C52.3825 61.635 0.419066 35.8145 14.495 22.5245C28.571 9.23456 120.241 12.8798 121.479 39.2319C122.716 65.584 77.2943 76.6868 52.3825 61.635Z" fill="#522018"/>
<path d="M66.7947 66.4042C66.7947 66.4042 72.908 72.2062 71.7465 75.654C70.5849 79.1018 78.0126 72.7986 76.9734 69.8216C75.9341 66.8447 71.074 62.4552 71.074 62.4552C71.074 62.4552 64.9912 62.6982 66.7947 66.4042Z" fill="#9C9086"/>
<path d="M46.4067 51.3068C46.4067 51.3068 43.8085 47.0844 45.6884 43.0898C47.5682 39.0952 53.8038 37.303 61.4914 39.6876C69.1789 42.0722 80.2746 47.2819 79.4952 54.8761C78.7157 62.4704 68.7968 64.2019 68.7968 64.2019C67.8276 67.0375 67.7003 70.0904 68.43 72.996C69.5916 78.2057 49.4175 71.4772 49.3717 70.4596C49.3258 69.4419 51.3432 60.1314 50.2734 57.7164C49.1919 55.4628 47.8972 53.3167 46.4067 51.3068Z" fill="#E8D9CA"/>
<path d="M50.5638 64.7031C50.5638 64.7031 51.3891 62.121 51.71 62.683C52.031 63.245 51.3585 65.6448 51.8476 65.8726C52.9938 66.389 52.8715 63.0931 53.1619 63.7614C53.4523 64.4297 52.413 66.0397 53.4523 66.2523C54.4916 66.465 54.5527 63.7006 54.8584 64.0804C55.164 64.4601 54.354 66.3738 55.1488 66.4498C55.9435 66.5257 55.9741 63.8222 56.3714 64.2323C56.7688 64.6423 55.4391 66.7384 56.7535 66.7535C58.0679 66.7687 57.5483 64.1107 57.9151 64.4449C58.2819 64.779 57.3037 66.5865 58.4805 66.7535C59.6574 66.9206 59.2753 64.612 59.6268 64.6727C59.9783 64.7335 59.3517 66.9054 60.284 67.0269C61.2163 67.1484 60.88 64.6575 61.2927 65.0828C61.7053 65.5081 61.1398 67.0573 61.9346 67.194C62.7293 67.3307 62.7752 61.8173 63.7839 62.5159C64.7926 63.2146 64.5633 73.3909 63.2031 72.7074C61.8429 72.024 62.5001 67.8471 62.011 67.6041C61.5219 67.3611 61.5219 68.6673 61.0634 69.1229C60.6049 69.5786 60.8342 67.7864 60.6202 67.437C60.4062 67.0877 59.9172 67.0117 59.7796 67.6649C59.6421 68.318 59.3211 69.1837 59.1683 69.0318C59.0155 68.8799 59.2447 67.4066 59.046 67.1333C58.8473 66.8599 58.1137 66.6168 57.9151 67.2396C57.7164 67.8623 57.5483 69.2445 57.319 69.1078C57.0898 68.9711 57.319 67.3003 57.0745 66.951C56.8299 66.6017 56.1422 66.8295 56.0199 67.4066C55.8977 67.9838 55.6531 69.0318 55.5614 68.9255C55.4697 68.8192 55.7754 67.1788 55.4544 66.7839C55.1335 66.389 54.6291 66.7839 54.5069 67.1029C54.3846 67.4218 53.8191 69.0166 53.7427 68.5154C53.6663 68.0142 54.0331 66.9966 53.7427 66.5257C53.686 66.4371 53.602 66.3692 53.5032 66.332C53.4044 66.2949 53.2961 66.2905 53.1946 66.3195C53.0931 66.3486 53.0038 66.4096 52.9401 66.4933C52.8763 66.577 52.8416 66.6789 52.841 66.7839C52.841 67.3155 52.4283 68.561 52.3213 68.4243C52.2144 68.2876 52.6117 66.9054 52.4436 66.4498C52.2755 65.9941 51.71 65.9182 51.5572 66.1916C51.4043 66.465 50.793 68.1813 50.6707 68.0446C50.5485 67.9079 51.1445 66.5257 51.0375 65.9637C51.0241 65.8992 50.9968 65.8383 50.9574 65.7852C50.9181 65.7322 50.8676 65.6883 50.8094 65.6565C50.7513 65.6247 50.687 65.6059 50.6208 65.6012C50.5546 65.5966 50.4882 65.6063 50.4262 65.6296L50.5638 64.7031Z" fill="#36302F"/>
<path d="M59.7644 50.9119C59.7644 50.9119 58.6334 56.3949 62.821 57.9745C67.0087 59.5542 68.3078 54.6786 66.8253 51.2308C65.3428 47.783 59.9936 48.102 59.7644 50.9119Z" fill="#36302F"/>
<path d="M54.0178 50.1222C54.0178 50.1222 54.8584 55.5141 51.8017 57.0633C48.7451 58.6126 47.9198 53.7674 48.9743 50.4563C50.0289 47.1452 53.8497 47.4034 54.0178 50.1222Z" fill="#36302F"/>
<path d="M55.3016 56.9114C55.3016 56.9114 53.7732 60.587 54.3846 61.2553C54.9959 61.9236 55.7295 60.101 56.0199 60.4503C56.3103 60.7997 57.1661 62.3793 57.8233 61.1946C58.4805 60.0099 55.9893 55.59 55.3016 56.9114Z" fill="#36302F"/>
<path d="M53.9261 62.683C53.9261 62.683 43.5028 67.3459 36.0751 62.9564C37.179 64.5672 38.7008 65.8511 40.4794 66.672C42.2579 67.4929 44.2269 67.8203 46.1774 67.6193C49.2261 66.7355 52.0928 65.3213 54.6444 63.4424C54.6444 63.3361 53.651 63.4424 53.651 63.4424C53.651 63.4424 54.3082 62.8501 53.9261 62.683Z" fill="#36302F"/>
<path d="M57.915 63.6854C57.915 63.6854 64.1659 70.6722 70.9976 69.7608C77.8293 68.8495 79.4646 64.3537 79.4646 64.3537C76.3073 66.4147 72.5482 67.3696 68.7831 67.067C65.0179 66.7643 61.4621 65.2215 58.6792 62.683L58.7709 63.6702C58.7709 63.6702 57.8081 63.4424 57.915 63.6854Z" fill="#36302F"/>
<path d="M61.4761 39.6876C53.8344 37.2878 47.5376 39.0649 45.6731 43.0746C45.2335 44.0279 45.0042 45.0637 45.0006 46.1123C45.9635 44.5935 48.5158 43.2113 54.6444 43.4392C67.4213 43.9252 74.3141 56.6228 71.4561 63.488C74.5128 62.4096 78.9755 59.9795 79.4799 54.9065C80.2593 47.2059 69.1483 42.0722 61.4761 39.6876Z" fill="#C9BBAE"/>
<path d="M101.656 63.5033C101.965 63.6811 102.309 63.7899 102.665 63.8222C104.628 63 106.529 62.0354 108.35 60.9364C105.645 61.7414 101.35 63.1084 101.656 63.5033Z" fill="#FFB751"/>
<path d="M14.495 22.5245C7.35771 29.2378 17.1238 39.2319 28.5404 47.3274L29.3046 45.93C29.3046 45.93 18.2242 36.8169 18.6063 36.8169C18.9883 36.8169 25.8506 38.5636 25.7589 37.6371C25.6672 36.7106 20.5778 28.8885 20.5778 28.8885C20.5778 28.8885 35.4791 33.4451 35.1734 31.9262C34.3818 29.759 33.4105 27.6609 32.2696 25.6534C32.2696 25.6534 44.4963 32.23 45.4286 31.3035C46.3608 30.377 48.0114 23.4814 48.0114 23.4814C48.0114 23.4814 52.9327 32.23 54.7208 31.0757C56.509 29.9213 57.0592 22.3726 57.9151 22.7827C58.7709 23.1928 62.8363 32.0477 64.3799 31.2124C65.9235 30.377 71.2116 23.4966 71.2116 23.4966C71.2116 23.4966 71.9299 33.4754 74.8337 32.4578C77.7376 31.4402 83.4383 25.8204 83.4383 25.8204C83.4383 25.8204 80.3816 34.2653 82.0933 34.4627C83.8051 34.6602 95.1453 29.6327 95.1453 29.6327C95.1453 29.6327 88.5123 38.3358 92.5471 38.5636C96.582 38.7914 106.531 36.1031 106.531 36.1031C106.531 36.1031 96.582 43.4087 98.8897 44.4416C101.198 45.4744 113.806 45.5807 113.806 45.5807C113.806 45.5807 104.483 50.4107 106.042 52.051C107.601 53.6914 113.806 54.3141 113.806 54.3141C113.806 54.3141 103.444 58.2327 105.217 59.0985C106.574 59.6591 108.005 60.0223 109.466 60.1769C117.108 55.1799 121.937 48.0261 121.509 39.1863C120.241 12.8798 28.6321 9.24974 14.495 22.5245Z" fill="#FFB751"/>
<path d="M76.6066 110.056C76.6066 110.056 74.1307 82.5497 44.0072 83.3243C13.8837 84.0989 17.1391 121.356 31.5819 133.355C46.0246 145.354 63.2031 135.664 63.2031 135.664C63.2031 135.664 61.8582 148.756 73.5041 150.458C85.15 152.159 98.5077 132.353 96.1235 119.746C93.7393 107.14 76.6066 110.056 76.6066 110.056Z" fill="#FF9900"/>
<path d="M66.5502 115.645C66.5502 115.645 60.4368 118.319 62.9433 126.141C65.4498 133.963 77.111 132.125 77.9668 124.288C78.8227 116.45 72.9233 113.215 66.5502 115.645Z" fill="#A66400"/>
<path d="M52.3061 100.335L42.4941 118L47.0639 119.777L55.9893 102.492L52.3061 100.335Z" fill="#943A30"/>
<path d="M84.4776 126.171C84.4776 126.171 84.3706 131.73 80.4427 134.813L130.435 161.15L133.231 154.771L84.4776 126.171Z" fill="#943A30"/>
<path d="M55.3169 110.056L132.972 155.348C132.972 155.348 57.3801 112.395 55.3169 110.056Z" fill="white"/>
<path d="M51.9698 111.848L128.05 154.467C128.05 154.467 53.4218 113.914 51.9698 111.848Z" fill="white"/>
<path d="M60.7578 121.25L94.1519 139.734C94.1519 139.734 65.9235 122.085 60.7578 121.25Z" fill="white"/>
<path d="M61.8123 116.405C63.5128 117.799 65.1019 119.323 66.5654 120.961C67.2379 122.101 67.6047 127.037 67.7117 127.143C67.8187 127.25 66.5196 126.414 66.5196 126.414C66.5196 126.414 64.9148 132.277 64.762 132.49C64.6092 132.702 63.5088 131.305 63.5088 131.305C63.5088 131.305 62.225 133.568 62.0721 133.219C61.9918 132.446 61.9918 131.667 62.0721 130.895C62.0721 130.895 60.6202 132.55 60.3604 132.14C60.3908 131.019 60.5865 129.909 60.9412 128.844C60.9412 128.844 59.0766 131.761 58.8168 130.895C58.8332 128.296 59.0375 125.703 59.4281 123.133C59.5056 121.883 59.4749 120.627 59.3364 119.382L61.8123 116.405Z" fill="#E8D9CA"/>
<path d="M30.0993 75.7604C30.0993 75.7604 57.5177 110.876 65.5567 115.964C60.1159 121.675 52.1227 124.531 51.9698 123.68C51.817 122.83 47.4918 113.413 39.2694 102.067C31.0469 90.7211 22.962 80.8485 23.8179 77.0666C24.6737 73.2847 28.5404 73.7859 30.0993 75.7604Z" fill="#50305E"/>
<path d="M136.823 156.442C137.173 154.61 137.628 152.8 138.183 151.019C138.413 150.898 141.347 152.721 141.24 153.267C140.31 154.598 139.251 155.835 138.076 156.958L140.384 158.188C140.384 158.188 142.065 153.89 142.524 154.088C142.982 154.285 144.633 155.455 144.48 156.092C144.327 156.73 141.607 158.583 141.607 158.583L144.052 160.102C144.052 160.102 144.694 156.184 145.58 156.199C146.467 156.214 148.637 157.854 148.331 158.386C147.21 159.361 146.003 160.236 144.725 160.998C144.725 160.998 136.685 157.763 136.823 156.442Z" fill="#383838"/>
<path d="M141.53 168.805C141.446 170.667 141.262 172.522 140.98 174.364C140.766 174.516 137.602 173.149 137.572 172.587C138.302 171.14 139.172 169.766 140.17 168.486L137.694 167.59C137.694 167.59 136.655 172.147 136.166 171.965C135.677 171.782 133.858 170.917 133.919 170.263C133.98 169.61 136.395 167.393 136.395 167.393L133.751 166.193C133.751 166.193 133.751 170.157 132.849 170.263C131.948 170.37 129.563 169.064 129.793 168.517C130.784 167.414 131.868 166.398 133.033 165.479C133.033 165.479 141.469 167.514 141.53 168.805Z" fill="#383838"/>
<path d="M130.435 161.15L129.976 164.492C129.976 164.492 144.572 172.314 144.77 172.253C144.969 172.192 149.065 161.454 149.065 161.15C149.065 160.846 135.31 153.024 135.203 152.964C134.5 153.515 133.841 154.119 133.231 154.771L130.435 161.15Z" fill="#FF9900"/>
<path d="M136.578 156.442C136.378 156.54 136.218 156.704 136.126 156.906C136.034 157.109 136.016 157.336 136.074 157.551C136.134 157.761 136.261 157.945 136.436 158.077C136.611 158.209 136.825 158.28 137.045 158.28C137.264 158.28 137.478 158.209 137.653 158.077C137.828 157.945 137.955 157.761 138.015 157.551C138.079 157.362 138.083 157.159 138.025 156.969C137.967 156.778 137.851 156.611 137.694 156.489C137.536 156.367 137.343 156.297 137.144 156.288C136.944 156.28 136.746 156.334 136.578 156.442Z" fill="#383838"/>
<path d="M140.522 158.644C140.369 158.72 140.238 158.833 140.142 158.972C140.045 159.112 139.985 159.274 139.969 159.442C139.952 159.611 139.978 159.781 140.046 159.937C140.113 160.093 140.219 160.229 140.354 160.333C140.488 160.437 140.647 160.505 140.816 160.531C140.984 160.558 141.157 160.541 141.317 160.483C141.477 160.425 141.62 160.328 141.732 160.2C141.844 160.072 141.922 159.919 141.958 159.753C142.022 159.565 142.026 159.361 141.968 159.171C141.91 158.981 141.795 158.813 141.637 158.691C141.479 158.569 141.286 158.499 141.087 158.491C140.887 158.482 140.689 158.536 140.522 158.644Z" fill="#383838"/>
<path d="M144.709 160.862C144.511 160.962 144.353 161.126 144.261 161.328C144.169 161.53 144.149 161.756 144.205 161.97C144.253 162.19 144.376 162.387 144.552 162.529C144.729 162.67 144.949 162.747 145.175 162.747C145.402 162.747 145.622 162.67 145.798 162.529C145.975 162.387 146.097 162.19 146.146 161.97C146.21 161.782 146.213 161.579 146.156 161.388C146.098 161.198 145.982 161.03 145.824 160.908C145.666 160.787 145.474 160.717 145.274 160.708C145.074 160.7 144.877 160.753 144.709 160.862Z" fill="#383838"/>
<path d="M133.843 162.897C133.642 162.995 133.482 163.159 133.39 163.361C133.298 163.564 133.28 163.791 133.338 164.006C133.398 164.216 133.525 164.4 133.701 164.532C133.876 164.664 134.089 164.735 134.309 164.735C134.528 164.735 134.742 164.664 134.917 164.532C135.092 164.4 135.22 164.216 135.279 164.006C135.343 163.817 135.347 163.614 135.289 163.424C135.232 163.233 135.116 163.066 134.958 162.944C134.8 162.822 134.608 162.752 134.408 162.743C134.208 162.735 134.01 162.789 133.843 162.897Z" fill="#383838"/>
<path d="M137.923 164.75C137.725 164.847 137.566 165.008 137.472 165.207C137.377 165.405 137.353 165.63 137.404 165.844C137.452 166.064 137.575 166.26 137.751 166.402C137.928 166.543 138.148 166.62 138.374 166.62C138.601 166.62 138.821 166.543 138.997 166.402C139.174 166.26 139.296 166.064 139.345 165.844C139.41 165.657 139.415 165.455 139.359 165.265C139.303 165.076 139.188 164.909 139.03 164.788C138.873 164.667 138.682 164.598 138.483 164.592C138.284 164.585 138.089 164.64 137.923 164.75Z" fill="#383838"/>
<path d="M142.126 166.466C141.928 166.563 141.769 166.724 141.675 166.923C141.58 167.122 141.556 167.346 141.607 167.56C141.655 167.78 141.778 167.977 141.954 168.118C142.131 168.259 142.351 168.336 142.577 168.336C142.804 168.336 143.024 168.259 143.2 168.118C143.377 167.977 143.499 167.78 143.548 167.56C143.613 167.373 143.618 167.171 143.562 166.982C143.505 166.792 143.391 166.625 143.233 166.504C143.076 166.383 142.885 166.315 142.686 166.308C142.487 166.301 142.292 166.356 142.126 166.466Z" fill="#383838"/>
<path d="M63.7075 117.149C57.6858 110.557 51.6795 103.981 45.612 97.404C42.6317 94.26 39.6667 91.1312 36.824 87.8353C33.9813 84.5394 28.0972 79.5272 29.1824 75.1073C29.2067 75.0207 29.1954 74.928 29.151 74.8497C29.1065 74.7714 29.0326 74.7138 28.9455 74.6896C28.8583 74.6654 28.7651 74.6767 28.6863 74.7208C28.6074 74.765 28.5495 74.8384 28.5252 74.925C27.4095 77.9627 29.8701 80.727 31.6583 83.0357C34.7149 87.091 38.2148 90.9185 41.6077 94.7612C48.5617 102.629 55.6531 110.39 62.714 118.152C63.3101 118.835 64.3341 117.817 63.7075 117.149Z" fill="#FFB751"/>
<path d="M107.219 145.81C107.219 145.81 107.127 156.077 110.123 157.186C113.119 158.295 115.732 148.802 115.564 148.255C115.396 147.708 114.188 149.622 114.188 149.622C114.188 149.622 114.311 143.213 113.516 143.061C112.721 142.909 112.66 146.478 112.66 146.402C112.66 146.326 112.354 141.952 111.392 142.529C110.429 143.106 110.795 146.509 110.795 146.509C110.795 146.509 110.047 142.286 109.267 142.939C108.488 143.592 108.931 147.253 108.748 146.843C108.564 146.433 108.243 143.289 107.571 143.456C106.898 143.623 107.219 145.324 107.219 145.81Z" fill="#E8D9CA"/>
<path d="M76.897 78.0691C76.897 78.0691 99.6386 71.7051 99.9749 74.5301C100.311 77.3552 95.3899 78.6766 95.7414 80.6055C96.0929 82.5345 100.067 87.4556 98.9203 88.5188C97.7741 89.5819 92.6236 88.1998 92.486 89.0959C92.3485 89.992 94.9467 96.2193 94.0144 97.2218C93.0821 98.2242 88.1456 94.1841 87.5037 95.308C86.8618 96.432 88.4818 103.54 86.8006 103.282C85.1195 103.024 75.1394 85.0558 75.1394 85.0558C75.1394 85.0558 66.3056 103.434 64.9913 102.037C63.6769 100.639 64.1965 95.1258 63.6005 94.822C63.0044 94.5182 60.3146 97.8597 59.8561 94.9131C59.3976 91.9666 62.1944 88.2454 61.6136 87.6834C61.0329 87.1214 54.675 87.4707 54.6139 85.7241C54.5527 83.9774 58.6945 82.2307 58.3889 80.9093C58.0832 79.5879 52.5812 77.5678 53.055 75.73C53.5288 73.8922 73.3054 77.826 73.3054 77.826L76.897 78.0691Z" fill="#FF2424"/>
<path d="M79.3118 77.1577C79.3118 77.1577 93.9685 76.7173 93.7087 78.2513C93.4489 79.7853 80.672 78.6918 80.672 78.6918C80.672 78.6918 91.5384 85.0558 90.7284 86.5746C89.9184 88.0935 78.9908 80.4992 78.9908 80.4992C78.9908 80.4992 85.3028 90.4933 84.5998 91.5716C83.8968 92.65 75.9189 81.5472 75.9189 81.5472C75.9189 81.5472 69.1636 91.8602 68.4911 90.0984C67.8187 88.3365 71.9758 81.4105 71.9758 81.4105C71.9758 81.4105 66.2598 86.119 65.2205 84.8431C64.1812 83.5673 70.3863 79.7853 70.3863 79.7853C70.3863 79.7853 61.9652 81.1371 61.9346 79.5879C61.904 78.0387 70.6308 77.2033 70.6308 77.2033L79.3118 77.1577Z" fill="#A31515"/>
</svg>
