<svg width="161" height="286" viewBox="0 0 161 286" fill="none" xmlns="http://www.w3.org/2000/svg">
<g clip-path="url(#clip0_148_1679)">
<path d="M41.1967 160.418C41.0545 160.2 37.5558 153.999 36.6456 154.071C35.7354 154.144 23.2625 179.327 24.1727 180.152C25.0829 180.978 34.6545 172.024 35.9914 164.533L38.1389 164.852L41.1967 160.418Z" fill="#752E25"/>
<path d="M95.7956 276.613C95.7956 276.613 109.236 284.031 109.591 285.741C109.947 287.45 90.9744 280.249 90.9744 280.249L91.6001 275.903L95.7956 276.613Z" fill="#752E25"/>
<path d="M70.6651 132.655C70.6651 132.655 62.1318 137.408 60.4963 152.057C58.8607 166.707 71.362 207.684 71.362 207.684C71.362 207.684 46.9994 176.589 43.458 153.188C32.0803 168.982 37.1007 179.067 37.1007 179.067C46.4319 184.966 54.0395 193.308 59.1309 203.221C66.7967 219.001 76.8803 224.333 79.042 220.522C81.2038 216.711 79.9238 167.46 73.0402 155.318C77.1073 154.953 81.2049 155.406 85.1007 156.651C85.1007 156.651 84.8305 189.108 89.6803 208.727C94.53 228.347 86.6936 273.628 87.2625 275.714C87.8314 277.801 104.429 276.859 104.429 276.859C104.429 276.859 95.2411 209.206 96.3789 203.888C97.5167 198.57 98.7114 148.913 94.3309 137.741C89.9505 126.57 70.6651 132.655 70.6651 132.655Z" fill="#40254A"/>
<path d="M67.8207 173.43C66.4696 159.491 67.2661 144.885 74.9318 132.858C75.387 132.134 74.2492 131.409 73.7798 132.177C66.1994 144.117 65.1327 158.578 66.3985 172.401C67.9275 186.896 70.9205 201.191 75.3301 215.059C57.7941 202.859 52.5745 180.037 38.139 164.881C37.8972 164.62 37.5274 165.011 37.755 165.272C52.3185 180.892 57.2252 204.8 75.8705 216.639C75.9528 216.683 76.0459 216.703 76.1387 216.695C76.2315 216.686 76.32 216.651 76.3937 216.593C76.4673 216.535 76.5228 216.456 76.5536 216.367C76.5845 216.277 76.5892 216.18 76.5674 216.088C72.1181 202.24 69.1848 187.934 67.8207 173.43Z" fill="#FFB751"/>
<path d="M72.3292 115.485C72.3292 115.485 72.5852 129.974 70.6652 132.655C74.9318 140.827 94.3309 137.741 94.3309 137.741C94.3309 137.741 92.7238 124.975 95.3123 115.485C92.2118 110.848 72.3292 115.485 72.3292 115.485Z" fill="#FF2424"/>
<path d="M72.0589 106.703C72.0589 106.921 71.0918 114.122 72.0589 115.397C73.026 116.672 99.5078 116.469 99.9345 114.397C100.361 112.325 94.8145 86.5771 93.3496 83.0851C91.8847 79.5931 78.6722 67.7985 75.9131 75.8403C73.154 83.8821 72.0589 106.703 72.0589 106.703Z" fill="#FFF2CF"/>
<path d="M71.6323 110.833V111.847C71.6323 111.847 85.9683 115.441 93.6909 108.587C93.2074 108.109 86.1105 90.5183 86.4803 84.2443C90.8749 99.3571 96.194 107.225 96.194 107.225L98.7114 106.037L97.4314 99.8932C97.4314 99.8932 89.5523 75.7823 83.9629 74.7245C78.3736 73.6668 71.6323 110.833 71.6323 110.833Z" fill="#E0D4B6"/>
<path d="M60.6243 86.9391C60.6243 86.9391 55.419 106.5 55.419 110.007C55.419 113.513 50.2136 116.02 50.2136 116.02C50.2136 116.02 53.4847 94.6042 53.5843 83.6644C53.6838 72.7247 52.4607 64.0743 53.3852 63.886C54.3096 63.6976 66.1852 62.7703 66.3274 61.075C66.198 59.3735 65.7693 57.7097 65.0616 56.1629L69.9967 55.5254C69.9967 55.5254 70.523 59.5535 72.1585 60.0317C73.7941 60.5099 80.507 56.844 80.8341 57.1338C81.1612 57.4235 98.6687 84.6642 101.655 86.7073C104.642 88.7503 101.655 75.8255 101.655 75.8255L112.109 94.3723C112.109 94.3723 106.875 98.6033 99.5932 92.4162C103.007 98.8931 108.98 103.255 108.539 103.457C104.959 104.036 101.351 104.413 97.7301 104.588C96.9478 104.399 84.2474 75.3473 84.2474 75.3473L80.9763 76.1153C80.9763 76.1153 85.0865 96.5603 93.0225 104.167C86.0252 112.861 71.4616 111.296 71.4616 111.296C71.4616 111.296 68.6172 91.6193 64.5923 85.1424C60.5674 78.6655 60.6243 86.9391 60.6243 86.9391Z" fill="#50305E"/>
<path d="M48.6634 15.8375C48.6634 15.8375 56.0447 -2.7821 60.6243 0.362217C65.2038 3.50653 70.2385 17.4748 70.2385 17.4748L48.6634 15.8375Z" fill="#943A30"/>
<path d="M60.6243 54.3947C60.6243 54.3947 30.1034 57.6983 25.9078 39.3398C21.7123 20.9814 50.9247 4.07185 73.794 8.69407C96.6634 13.3163 115.422 48.222 60.6243 54.3947Z" fill="#522018"/>
<path d="M56.2438 51.3662C55.7698 49.7715 54.9809 48.2923 53.9256 47.0193C52.5745 45.7732 48.0234 43.0202 48.7487 37.5287C49.474 32.0372 58.9745 25.9371 69.3994 29.9797C79.8242 34.0222 76.5105 45.0343 71.1487 47.5265C70.1105 48.5118 70.1105 55.0465 70.6367 56.4665C71.1629 57.8865 60.6811 60.683 56.2438 56.9736C56.2438 55.8869 56.4145 54.2351 56.2438 51.3662Z" fill="#E8D9CA"/>
<path d="M52.0767 38.3113C51.617 39.0448 51.3728 39.8969 51.3728 40.7672C51.3728 41.6374 51.617 42.4895 52.0767 43.2231C53.6553 45.9325 57.3958 44.9328 56.6989 40.3253C56.002 35.7177 52.6882 36.7609 52.0767 38.3113Z" fill="#36302F"/>
<path d="M62.6438 36.1379C62.6438 36.1379 60.866 37.4274 61.8189 40.6875C62.7718 43.9475 68.0056 44.8169 67.6358 39.9485C67.266 35.0802 64.1087 34.5296 62.6438 36.1379Z" fill="#36302F"/>
<path d="M59.6856 43.9045C59.6856 43.9045 58.5478 47.7441 59.3016 48.1353C60.0554 48.5265 60.3967 47.3095 61.0082 47.5123C61.6198 47.7152 62.6011 48.1353 62.2882 46.7879C61.9754 45.4404 59.9131 43.1076 59.6856 43.9045Z" fill="#36302F"/>
<path d="M83.9487 67.1464C83.9487 67.1464 97.1327 71.305 97.4172 72.3483C97.7016 73.3915 94.5727 75.2462 94.5727 75.2462C94.9611 76.6983 95.1853 78.1908 95.2412 79.6947C95.0421 80.5496 90.9745 80.7524 90.9745 80.7524C90.9745 80.7524 90.875 82.9839 90.1781 83.0998C89.4812 83.2157 82.2421 79.0861 80.9336 76.2316C79.6252 73.377 85.2856 85.6645 84.8021 87.5192C84.3185 89.3739 81.4456 88.3886 81.4456 88.3886C81.4456 88.3886 79.7247 91.5764 78.2314 91.5329C76.6552 91.1607 75.1539 90.5136 73.7941 89.6202C73.7941 89.6202 77.6199 66.3639 83.9487 67.1464Z" fill="#FF2424"/>
<path d="M67.0954 66.1895L66.9816 61.8427C66.9816 61.8427 65.5594 60.5098 65.9718 59.7273C66.3843 58.9449 70.7647 57.6699 71.2198 58.2784C71.6749 58.887 71.6038 60.7995 71.6038 60.7995L75.3301 62.6541C75.3301 62.6541 74.4767 68.3628 67.0954 66.1895Z" fill="#FF2424"/>
<path d="M66.2704 50.874C66.2704 50.874 67.3228 54.4383 68.1619 54.0471C69.001 53.6559 68.6881 48.0777 67.4508 47.9473C66.2135 47.8169 66.2562 50.3379 66.1708 50.309C66.0855 50.28 65.7442 49.657 65.3317 50.1351C64.9193 50.6132 65.2322 53.5835 64.5069 53.0329C63.7815 52.4823 63.4686 49.6135 62.4447 50.1351C61.4207 50.6567 62.2171 53.6124 61.1078 53.3516C59.9985 53.0908 60.1265 50.4539 59.1736 50.8451C58.2207 51.2363 58.946 54.221 58.2491 53.8588C57.5523 53.4965 57.7087 51.5115 57.3532 51.2363C56.9976 50.961 56.2438 51.3667 56.2438 51.3667C56.2438 51.3667 56.9549 51.3667 57.0829 51.7144C57.2109 52.0621 57.538 54.815 58.4198 54.3369C59.3016 53.8588 58.9745 50.932 59.5007 51.5405C60.0269 52.1491 60.2118 54.221 61.3069 54.0181C62.402 53.8153 62.2456 50.1496 62.9282 50.8451C63.6109 51.5405 63.554 54.2355 64.7202 53.6704C65.8864 53.1053 65.2749 50.8451 65.5451 50.5118C65.8153 50.1786 66.2704 50.874 66.2704 50.874Z" fill="#36302F"/>
<path d="M69.3992 30.0087C58.9602 25.9373 49.4883 32.0806 48.7487 37.5719C48.6103 38.5725 48.6634 39.591 48.9052 40.5711C49.5736 38.7165 51.3798 36.4417 55.8171 34.3988C64.2508 30.5013 74.6613 37.1517 75.3155 42.9038C77.2071 38.6586 76.4391 32.7471 69.3992 30.0087Z" fill="#C9BBAE"/>
<path d="M66.5549 67.8127C66.5549 67.8127 51.6358 61.9298 43.7994 72.4059C35.9629 82.882 38.0678 98.8641 51.5647 105.558C65.0616 112.253 85.4989 106.862 81.4314 84.4614C89.9647 85.0409 101.84 75.3763 91.9131 61.8574C81.986 48.3385 64.3363 52.3232 66.5549 67.8127Z" fill="#FF9900"/>
<path d="M53.5985 81.361C53.5985 81.361 65.8581 95.7058 66.3985 95.7058C67.5662 94.9713 68.6533 94.1115 69.6412 93.1411C69.6412 93.1411 57.979 78.0863 57.3816 77.8689C56.7843 77.6516 53.5985 81.361 53.5985 81.361Z" fill="#943A30"/>
<path d="M73.794 8.69407C50.9247 4.07185 21.698 20.9958 25.9078 39.3398C26.7113 42.9214 28.7249 46.1013 31.5967 48.3235C33.1185 48.7437 34.6118 49.0624 34.6118 48.7871C34.6118 48.222 29.2216 42.3682 29.2216 42.3682C29.2216 42.3682 32.7203 43.368 32.9336 42.3682C33.1469 41.3684 29.4918 30.8923 29.4918 30.8923C29.4918 30.8923 36.8447 33.8772 37.6838 31.6748C38.5229 29.4723 36.2616 22.3289 36.2616 22.3289C36.2616 22.3289 44.5247 28.7478 45.7763 25.5311C47.0278 22.3144 45.7763 15.6926 45.7763 15.6926C45.7763 15.6926 51.4651 23.7489 54.0536 21.4016C56.642 19.0542 57.0545 12.5483 57.0545 12.5483C57.0545 12.5483 60.4251 21.2422 62.4163 20.0395C64.4074 18.8369 66.0856 12.1281 66.0856 12.1281C66.0856 12.1281 67.8349 21.6913 71.618 20.4018C75.4011 19.1122 77.4634 13.3453 77.4634 13.3453C77.4634 13.3453 77.4634 24.4734 79.6963 24.4734C81.9291 24.4734 85.7123 19.5469 85.7123 19.5469C85.7123 19.5469 81.9434 28.3856 85.2856 28.9797C88.6278 29.5738 93.6909 26.6903 93.6909 26.6903C93.6909 26.6903 84.4465 33.3701 86.9638 35.7754C87.7065 36.4757 88.6016 36.9867 89.5757 37.2662C90.5498 37.5458 91.5751 37.5861 92.5674 37.3837C92.5674 37.3837 83.8776 40.1078 85.4563 42.0204C86.0506 42.6166 86.7664 43.0722 87.5529 43.3552C88.3394 43.6381 89.1773 43.7414 90.0074 43.6578C90.0074 43.6578 84.8874 45.4545 86.1531 46.6571C86.278 46.7607 86.4236 46.8349 86.5798 46.8745C107.102 34.4858 91.714 12.2151 73.794 8.69407Z" fill="#FFB751"/>
<path d="M74.4767 66.6536C74.4767 66.6536 68.9016 68.1025 69.9683 73.7097C71.0349 79.317 78.9283 79.9546 80.891 75.0138C82.8537 70.073 78.8999 65.335 74.4767 66.6536Z" fill="#A66400"/>
<path d="M78.8002 63.1902C78.8002 63.1902 84.034 66.7981 85.2856 71.0002L117.001 39.3836L112.934 33.4138L78.8002 63.1902Z" fill="#943A30"/>
<path d="M60.1265 80.0996L113.645 34.4425C113.645 34.4425 75.6287 69.8554 60.1265 80.0996Z" fill="white"/>
<path d="M115.252 38.5432C115.252 38.5432 66.8963 87.7358 66.4412 88.5038C65.986 89.2717 105.51 45.962 115.252 38.5432Z" fill="white"/>
<path d="M111.511 39.0359C111.511 39.0359 67.5078 79.9983 66.4411 80.0998C65.3745 80.2012 105.595 43.0206 111.511 39.0359Z" fill="white"/>
<path d="M105.595 46.078L73.1114 78.3751C73.1114 78.3751 99.2803 50.1785 105.595 46.078Z" fill="white"/>
<path d="M102.167 63.5091L101.698 53.5257C101.698 53.5257 103.618 51.5696 103.518 50.8306C103.419 50.0916 101.072 51.2943 101.072 51.2943C100.661 49.9005 100.138 48.5436 99.5078 47.2372C99.0812 46.817 94.6012 47.2372 94.8145 47.6719C95.0278 48.1066 97.0047 48.889 97.0047 48.889C97.0047 48.889 93.1078 48.889 93.2927 49.628C93.4776 50.3669 95.7674 50.8161 95.7674 50.8161C95.7674 50.8161 91.5007 50.9465 91.9274 51.7145C92.354 52.4824 94.4447 52.9461 94.4447 52.9461C94.4447 52.9461 91.3016 52.8012 91.8847 53.7141C92.4678 54.6269 95.042 55.163 95.042 55.163L98.6829 65.3058L102.167 63.5091Z" fill="#E8D9CA"/>
<path d="M66.2847 78.5349C66.2847 78.5349 74.5335 71.1601 75.4437 71.7106C76.354 72.2612 82.9388 78.1727 82.9672 78.9551C82.9957 79.7375 81.6872 80.2446 81.6872 80.2446C81.6872 80.2446 82.1992 81.1429 82.0143 81.5776C81.8295 82.0123 80.777 82.0702 80.777 82.0702C80.777 82.0702 81.1895 82.9251 80.9619 83.3887C80.7344 83.8524 77.3922 84.5478 77.0793 83.9248C76.7664 83.3018 77.9468 82.6208 77.8046 82.389C76.6615 81.1062 75.4559 79.8827 74.1922 78.7233C72.5532 79.4214 70.9616 80.2298 69.4278 81.1429C69.3567 81.1429 66.2847 78.5349 66.2847 78.5349Z" fill="#E8D9CA"/>
<path d="M115.906 28.1821C115.906 28.1821 108.909 26.4434 109.122 25.6465C109.335 24.8496 114.086 21.0535 114.583 21.4157C115.081 21.778 116.148 27.2113 116.148 27.2113L119.902 23.6615C119.902 23.6615 115.636 20.6043 115.977 19.6191C116.318 18.6339 120.244 15.113 120.784 15.9534C121.325 16.7938 121.609 22.966 121.609 22.966L115.906 28.1821Z" fill="#383838"/>
<path d="M120.998 36.8764C120.998 36.8764 122.235 44.1208 123.373 44.1208C124.51 44.1208 128.038 41.3245 127.824 40.1653C127.611 39.0062 122.263 35.6013 122.263 35.6013L128.066 31.8777C128.066 31.8777 129.602 38.673 130.455 38.8179C131.309 38.9628 136.813 34.9348 136.059 33.9931C135.305 33.0513 128.706 30.3129 128.706 30.3129C128.706 30.3129 120.713 34.2249 120.998 36.8764Z" fill="#383838"/>
<path d="M112.934 33.4136L112.08 29.2695L126.075 17.3879C126.075 17.3879 135.063 28.9797 134.608 29.8346C134.153 30.6895 121.111 40.7454 121.111 40.7454L116.973 39.4268L112.934 33.4136Z" fill="#FF9900"/>
<path d="M116.432 28.4727C116.432 28.4727 115.252 30.0375 116.077 30.9068C116.902 31.7762 119.177 31.414 118.921 29.5304C118.942 29.2275 118.87 28.9255 118.714 28.667C118.557 28.4085 118.325 28.2065 118.05 28.0896C117.775 27.9727 117.471 27.9468 117.181 28.0155C116.89 28.0843 116.629 28.2442 116.432 28.4727Z" fill="#383838"/>
<path d="M123.358 23.097C123.358 23.097 122.178 24.6619 123.003 25.5312C123.828 26.4006 126.103 26.0383 125.847 24.0823C125.853 23.7857 125.769 23.4945 125.607 23.2481C125.444 23.0018 125.212 22.812 124.941 22.7046C124.669 22.5971 124.372 22.5772 124.089 22.6473C123.806 22.7175 123.551 22.8745 123.358 23.097Z" fill="#383838"/>
<path d="M119.604 33.6167C119.604 33.6167 118.423 35.1815 119.248 36.0654C120.073 36.9492 122.349 36.5725 122.093 34.6165C122.101 34.3186 122.019 34.0254 121.858 33.7766C121.697 33.5279 121.465 33.3358 121.193 33.2265C120.921 33.1172 120.622 33.096 120.338 33.1658C120.053 33.2357 119.797 33.3931 119.604 33.6167Z" fill="#383838"/>
<path d="M127.625 28.4727C127.625 28.4727 126.459 30.0375 127.27 30.9068C128.08 31.7762 130.384 31.414 130.114 29.5304C130.135 29.2275 130.063 28.9255 129.906 28.667C129.75 28.4085 129.518 28.2065 129.243 28.0896C128.968 27.9727 128.664 27.9468 128.373 28.0155C128.083 28.0843 127.821 28.2442 127.625 28.4727Z" fill="#383838"/>
<path d="M65.8865 75.8258C65.8865 75.8258 72.8838 76.3764 74.2207 82.2013C72.0589 83.6503 59.1167 123.048 52.0483 122.903C47.4971 121.831 51.4083 111.702 51.4083 111.702C51.4083 111.702 60.3825 99.0238 65.8865 75.8258Z" fill="#50305E"/>
<path d="M104.415 59.6116C104.415 59.6116 97.6874 59.032 95.6821 63.9585C99.4225 69.9281 102.352 85.9101 104.599 89.8367C106.847 93.7634 111.711 95.3138 112.066 94.314C112.422 93.3142 101.826 71.2177 104.415 59.6116Z" fill="#50305E"/>
<path d="M68.6029 77.2168C65.986 84.1284 63.8527 91.1994 61.0936 98.053C58.6474 104.124 55.8598 110.007 52.9869 115.875C53.4278 112.63 53.6838 109.384 53.8545 106.138H52.9727C52.7656 110.518 52.2475 114.876 51.4225 119.179C51.3087 119.759 52.0909 120.164 52.3896 119.599C55.8854 113.051 59.0377 106.318 61.8331 99.4296C64.9856 92.3325 67.596 84.9983 69.6411 77.4921C69.677 77.3519 69.6566 77.2028 69.5846 77.0778C69.5126 76.9528 69.3948 76.8621 69.2571 76.8256C69.1195 76.7891 68.9732 76.8098 68.8505 76.8832C68.7278 76.9565 68.6387 77.0766 68.6029 77.2168Z" fill="#FFB751"/>
<path d="M72.3292 118.615C78.925 122.459 86.6408 123.808 94.1174 122.425C92.1832 125.656 79.7958 129.67 72.2438 122.425L72.3292 118.615Z" fill="#A31515"/>
<path d="M93.8187 128.699C93.8187 128.699 80.0944 134.915 71.874 127.598C75.4153 134.698 82.2846 136.292 93.9751 133.742C93.9893 133.742 93.8187 131.09 93.8187 128.699Z" fill="#A31515"/>
</g>
<defs>
<clipPath id="clip0_148_1679">
<rect width="160" height="286" fill="white" transform="translate(0.130005)"/>
</clipPath>
</defs>
</svg>
