<svg width="54" height="54" viewBox="0 0 54 54" fill="none" xmlns="http://www.w3.org/2000/svg">
<g filter="url(#filter0_i_98_1774)">
<circle cx="27.0001" cy="27.0001" r="26" transform="rotate(90.2458 27.0001 27.0001)" fill="#E14287"/>
</g>
<g clip-path="url(#clip0_98_1774)">
<path d="M39.7078 15.5846H28.9385C28.2149 15.5846 27.6462 16.1507 27.6462 16.8769V18.1692H26.3539V16.8769C26.3539 16.1507 25.7852 15.5846 25.0616 15.5846H14.2924C13.5687 15.5846 13.0001 16.1507 13.0001 16.8769V37.1231C13.0001 37.8492 13.5687 38.4154 14.2924 38.4154H25.0616C25.7852 38.4154 26.3539 37.8492 26.3539 37.1231V35.8307H27.6462V37.1231C27.6462 37.8492 28.2149 38.4154 28.9385 38.4154H39.7078C40.4314 38.4154 41.0001 37.8492 41.0001 37.1231V16.8769C41.0001 16.1507 40.4314 15.5846 39.7078 15.5846ZM27.6462 19.0307V20.7538H26.3539V19.0307H27.6462ZM26.3539 29.3692V27.6461H27.6462V29.3692H26.3539ZM27.6462 30.2307V32.3846H26.3539V30.2307H27.6462ZM26.3539 26.3538V24.2H27.6462V26.3538H26.3539ZM26.3539 23.3384V21.6154H27.6462V23.3384H26.3539ZM25.4924 37.1231C25.4924 37.365 25.3027 37.5538 25.0616 37.5538H14.2924C14.0513 37.5538 13.8616 37.365 13.8616 37.1231V16.8769C13.8616 16.635 14.0513 16.4461 14.2924 16.4461H25.0616C25.3027 16.4461 25.4924 16.635 25.4924 16.8769V18.1692H25.0616C24.8201 18.1692 24.6308 18.3576 24.6308 18.6C24.6308 18.8423 24.8201 19.0307 25.0616 19.0307H25.4924V20.7538H25.0616C24.8201 20.7538 24.6308 20.9422 24.6308 21.1846C24.6308 21.427 24.8201 21.6154 25.0616 21.6154H25.4924V23.3384H25.0616C24.8201 23.3384 24.6308 23.5269 24.6308 23.7692C24.6308 24.0116 24.8201 24.2 25.0616 24.2H25.4924V26.3538H25.0616C24.8201 26.3538 24.6308 26.973 24.6308 27.2154C24.6308 27.4577 24.8201 27.6461 25.0616 27.6461H25.4924V29.3692H25.0616C24.8201 29.3692 24.6308 29.5576 24.6308 29.8C24.6308 30.0423 24.8201 30.2307 25.0616 30.2307H25.4924V32.3846H25.0616C24.8201 32.3846 24.6308 32.573 24.6308 32.8154C24.6308 33.0577 24.8201 33.2461 25.0616 33.2461H25.4924V34.9692H25.0616C24.8201 34.9692 24.6308 35.1576 24.6308 35.4C24.6308 35.6423 24.8201 35.8307 25.0616 35.8307H25.4924V37.1231ZM26.3539 34.9692V33.2461H27.6462V34.9692H26.3539ZM40.1385 37.1231C40.1385 37.365 39.9488 37.5538 39.7078 37.5538H28.9385C28.6975 37.5538 28.5078 37.365 28.5078 37.1231V35.8307H28.9385C29.18 35.8307 29.3693 35.6423 29.3693 35.4C29.3693 35.1576 29.18 34.9692 28.9385 34.9692H28.5078V33.2461H28.9385C29.18 33.2461 29.3693 33.0577 29.3693 32.8154C29.3693 32.573 29.18 32.3846 28.9385 32.3846H28.5078V30.2307H28.9385C29.18 30.2307 29.3693 30.0423 29.3693 29.8C29.3693 29.5576 29.18 29.3692 28.9385 29.3692H28.5078V27.6461H28.9385C29.18 27.6461 29.3693 27.4577 29.3693 27.2154C29.3693 26.973 29.18 26.3538 28.9385 26.3538H28.5078V24.2H28.9385C29.18 24.2 29.3693 24.0116 29.3693 23.7692C29.3693 23.5269 29.18 23.3384 28.9385 23.3384H28.5078V21.6154H28.9385C29.18 21.6154 29.3693 21.427 29.3693 21.1846C29.3693 20.9422 29.18 20.7538 28.9385 20.7538H28.5078V19.0307H28.9385C29.18 19.0307 29.3693 18.8423 29.3693 18.6C29.3693 18.3576 29.18 18.1692 28.9385 18.1692H28.5078V16.8769C28.5078 16.635 28.6975 16.4461 28.9385 16.4461H39.7078C39.9488 16.4461 40.1385 16.635 40.1385 16.8769V37.1231Z" fill="white"/>
<path d="M17.7385 24.2H19.4616C20.6492 24.2 21.6154 23.2337 21.6154 22.0461V21.6153C22.5657 21.6153 23.3385 20.8425 23.3385 19.8923C23.3385 18.942 22.5657 18.1692 21.6154 18.1692H21.1847H16.0154C15.7776 18.1692 15.5847 18.3622 15.5847 18.6V22.0461C15.5847 23.2337 16.5509 24.2 17.7385 24.2ZM22.477 19.8923C22.477 20.3674 22.0906 20.7538 21.6154 20.7538V19.0307C22.0906 19.0307 22.477 19.4171 22.477 19.8923ZM16.4462 19.0307H20.7539V22.0461C20.7539 22.7586 20.1741 23.3384 19.4616 23.3384H17.7385C17.026 23.3384 16.4462 22.7586 16.4462 22.0461V19.0307Z" fill="white"/>
<path d="M15.5847 30.6615H18.6001C18.8379 30.6615 19.0309 30.4685 19.0309 30.2307C19.0309 29.9929 18.8379 29.7999 18.6001 29.7999H15.5847C15.3469 29.7999 15.1539 29.9929 15.1539 30.2307C15.1539 30.4685 15.3469 30.6615 15.5847 30.6615Z" fill="white"/>
<path d="M22.9077 29.7999H22.0462C21.8084 29.7999 21.6154 29.9929 21.6154 30.2307C21.6154 30.4685 21.8084 30.6615 22.0462 30.6615H22.9077C23.1455 30.6615 23.3385 30.4685 23.3385 30.2307C23.3385 29.9929 23.1455 29.7999 22.9077 29.7999Z" fill="white"/>
<path d="M20.3232 31.5231H15.5847C15.3469 31.5231 15.1539 31.7161 15.1539 31.9538C15.1539 32.1916 15.3469 32.3846 15.5847 32.3846H20.3232C20.5609 32.3846 20.7539 32.1916 20.7539 31.9538C20.7539 31.7161 20.5609 31.5231 20.3232 31.5231Z" fill="white"/>
<path d="M22.9077 31.5231H22.0462C21.8084 31.5231 21.6154 31.7161 21.6154 31.9538C21.6154 32.1916 21.8084 32.3846 22.0462 32.3846H22.9077C23.1455 32.3846 23.3385 32.1916 23.3385 31.9538C23.3385 31.7161 23.1455 31.5231 22.9077 31.5231Z" fill="white"/>
<path d="M15.5847 34.1076H19.0309C19.2686 34.1076 19.4616 33.9146 19.4616 33.6769C19.4616 33.4391 19.2686 33.2461 19.0309 33.2461H15.5847C15.3469 33.2461 15.1539 33.4391 15.1539 33.6769C15.1539 33.9146 15.3469 34.1076 15.5847 34.1076Z" fill="white"/>
<path d="M22.9077 33.2461H22.0462C21.8084 33.2461 21.6154 33.4391 21.6154 33.6769C21.6154 33.9146 21.8084 34.1076 22.0462 34.1076H22.9077C23.1455 34.1076 23.3385 33.9146 23.3385 33.6769C23.3385 33.4391 23.1455 33.2461 22.9077 33.2461Z" fill="white"/>
<path d="M19.8924 34.9692H15.5847C15.3469 34.9692 15.1539 35.1622 15.1539 35.4C15.1539 35.6378 15.3469 35.8308 15.5847 35.8308H19.8924C20.1302 35.8308 20.3232 35.6378 20.3232 35.4C20.3232 35.1622 20.1302 34.9692 19.8924 34.9692Z" fill="white"/>
<path d="M22.9077 34.9692H22.0462C21.8084 34.9692 21.6154 35.1622 21.6154 35.4C21.6154 35.6378 21.8084 35.8308 22.0462 35.8308H22.9077C23.1455 35.8308 23.3385 35.6378 23.3385 35.4C23.3385 35.1622 23.1455 34.9692 22.9077 34.9692Z" fill="white"/>
<path d="M22.477 25.4923H16.4462C15.7337 25.4923 15.1539 26.0721 15.1539 26.7846C15.1539 27.4971 15.7337 28.0769 16.4462 28.0769H22.477C23.1895 28.0769 23.7693 27.4971 23.7693 26.7846C23.7693 26.0721 23.1895 25.4923 22.477 25.4923ZM22.477 27.2154H16.4462C16.2089 27.2154 16.0155 27.022 16.0155 26.7846C16.0155 26.5473 16.2089 26.3538 16.4462 26.3538H22.477C22.7144 26.3538 22.9078 26.5473 22.9078 26.7846C22.9078 27.022 22.7144 27.2154 22.477 27.2154Z" fill="white"/>
<path d="M37.9847 34.9692C37.9847 33.2151 36.6665 31.7363 34.9693 31.5231C34.9693 31.2853 34.7763 31.0923 34.5385 31.0923C34.3008 31.0923 34.1078 31.2853 34.1078 31.5231C32.4105 31.7363 31.0924 33.2151 31.0924 34.9692C30.8546 34.9692 30.6616 35.1622 30.6616 35.4C30.6616 35.6378 30.8546 35.8307 31.0924 35.8307H37.9847C38.2225 35.8307 38.4155 35.6378 38.4155 35.4C38.4155 35.1622 38.2225 34.9692 37.9847 34.9692ZM34.5385 32.3846C35.964 32.3846 37.1232 33.5438 37.1232 34.9692H31.9539C31.9539 33.5438 33.1131 32.3846 34.5385 32.3846Z" fill="white"/>
<path d="M31.0924 19.0307H34.1078C34.3456 19.0307 34.5385 18.8377 34.5385 18.6C34.5385 18.3622 34.3456 18.1692 34.1078 18.1692H31.0924C30.8546 18.1692 30.6616 18.3622 30.6616 18.6C30.6616 18.8377 30.8546 19.0307 31.0924 19.0307Z" fill="white"/>
<path d="M38.4155 18.1692H37.5539C37.3162 18.1692 37.1232 18.3622 37.1232 18.6C37.1232 18.8377 37.3162 19.0307 37.5539 19.0307H38.4155C38.6533 19.0307 38.8462 18.8377 38.8462 18.6C38.8462 18.3622 38.6533 18.1692 38.4155 18.1692Z" fill="white"/>
<path d="M31.0924 20.7539H35.8309C36.0686 20.7539 36.2616 20.5609 36.2616 20.3231C36.2616 20.0853 36.0686 19.8923 35.8309 19.8923H31.0924C30.8546 19.8923 30.6616 20.0853 30.6616 20.3231C30.6616 20.5609 30.8546 20.7539 31.0924 20.7539Z" fill="white"/>
<path d="M38.4155 19.8923H37.5539C37.3162 19.8923 37.1232 20.0853 37.1232 20.3231C37.1232 20.5609 37.3162 20.7539 37.5539 20.7539H38.4155C38.6533 20.7539 38.8462 20.5609 38.8462 20.3231C38.8462 20.0853 38.6533 19.8923 38.4155 19.8923Z" fill="white"/>
<path d="M31.0924 22.4769H34.5385C34.7763 22.4769 34.9693 22.2839 34.9693 22.0461C34.9693 21.8083 34.7763 21.6154 34.5385 21.6154H31.0924C30.8546 21.6154 30.6616 21.8083 30.6616 22.0461C30.6616 22.2839 30.8546 22.4769 31.0924 22.4769Z" fill="white"/>
<path d="M38.4155 21.6154H37.5539C37.3162 21.6154 37.1232 21.8083 37.1232 22.0461C37.1232 22.2839 37.3162 22.4769 37.5539 22.4769H38.4155C38.6533 22.4769 38.8462 22.2839 38.8462 22.0461C38.8462 21.8083 38.6533 21.6154 38.4155 21.6154Z" fill="white"/>
<path d="M31.0924 24.1999H35.4001C35.6379 24.1999 35.8309 24.0069 35.8309 23.7691C35.8309 23.5314 35.6379 23.3384 35.4001 23.3384H31.0924C30.8546 23.3384 30.6616 23.5314 30.6616 23.7691C30.6616 24.0069 30.8546 24.1999 31.0924 24.1999Z" fill="white"/>
<path d="M38.4155 23.3384H37.5539C37.3162 23.3384 37.1232 23.5314 37.1232 23.7691C37.1232 24.0069 37.3162 24.1999 37.5539 24.1999H38.4155C38.6533 24.1999 38.8462 24.0069 38.8462 23.7691C38.8462 23.5314 38.6533 23.3384 38.4155 23.3384Z" fill="white"/>
<path d="M31.0924 25.9231H34.5385C34.7763 25.9231 34.9693 25.7301 34.9693 25.4923C34.9693 25.2545 34.7763 25.0615 34.5385 25.0615H31.0924C30.8546 25.0615 30.6616 25.2545 30.6616 25.4923C30.6616 25.7301 30.8546 25.9231 31.0924 25.9231Z" fill="white"/>
<path d="M38.4155 25.0615H37.5539C37.3162 25.0615 37.1232 25.2545 37.1232 25.4923C37.1232 25.7301 37.3162 25.9231 37.5539 25.9231H38.4155C38.6533 25.9231 38.8462 25.7301 38.8462 25.4923C38.8462 25.2545 38.6533 25.0615 38.4155 25.0615Z" fill="white"/>
<path d="M31.0924 28.0769H35.4001C35.6379 28.0769 35.8309 27.8839 35.8309 27.6461C35.8309 27.4083 35.6379 27.2153 35.4001 27.2153H31.0924C30.8546 27.2153 30.6616 27.4083 30.6616 27.6461C30.6616 27.8839 30.8546 28.0769 31.0924 28.0769Z" fill="white"/>
<path d="M38.4155 27.2153H37.5539C37.3162 27.2153 37.1232 27.4083 37.1232 27.6461C37.1232 27.8839 37.3162 28.0769 37.5539 28.0769H38.4155C38.6533 28.0769 38.8462 27.8839 38.8462 27.6461C38.8462 27.4083 38.6533 27.2153 38.4155 27.2153Z" fill="white"/>
</g>
<defs>
<filter id="filter0_i_98_1774" x="1.00012" y="-6" width="60" height="59" filterUnits="userSpaceOnUse" color-interpolation-filters="sRGB">
<feFlood flood-opacity="0" result="BackgroundImageFix"/>
<feBlend mode="normal" in="SourceGraphic" in2="BackgroundImageFix" result="shape"/>
<feColorMatrix in="SourceAlpha" type="matrix" values="0 0 0 0 0 0 0 0 0 0 0 0 0 0 0 0 0 0 127 0" result="hardAlpha"/>
<feOffset dx="8" dy="-7"/>
<feGaussianBlur stdDeviation="4.5"/>
<feComposite in2="hardAlpha" operator="arithmetic" k2="-1" k3="1"/>
<feColorMatrix type="matrix" values="0 0 0 0 0 0 0 0 0 0 0 0 0 0 0 0 0 0 0.3 0"/>
<feBlend mode="normal" in2="shape" result="effect1_innerShadow_98_1774"/>
</filter>
<clipPath id="clip0_98_1774">
<rect width="28" height="28" fill="white" transform="translate(13.0001 13)"/>
</clipPath>
</defs>
</svg>
