<svg width="28" height="24" viewBox="0 0 28 24" fill="none" xmlns="http://www.w3.org/2000/svg">
<path d="M26.7078 0.584595H15.9385C15.2149 0.584595 14.6462 1.15071 14.6462 1.8769V3.16921H13.3539V1.8769C13.3539 1.15071 12.7852 0.584595 12.0616 0.584595H1.29237C0.568744 0.584595 6.10352e-05 1.15071 6.10352e-05 1.8769V22.1231C6.10352e-05 22.8492 0.568744 23.4154 1.29237 23.4154H12.0616C12.7852 23.4154 13.3539 22.8492 13.3539 22.1231V20.8307H14.6462V22.1231C14.6462 22.8492 15.2149 23.4154 15.9385 23.4154H26.7078C27.4314 23.4154 28.0001 22.8492 28.0001 22.1231V1.8769C28.0001 1.15071 27.4314 0.584595 26.7078 0.584595ZM14.6462 4.03075V5.75383H13.3539V4.03075H14.6462ZM13.3539 14.3692V12.6461H14.6462V14.3692H13.3539ZM14.6462 15.2307V17.3846H13.3539V15.2307H14.6462ZM13.3539 11.3538V9.19998H14.6462V11.3538H13.3539ZM13.3539 8.33844V6.61536H14.6462V8.33844H13.3539ZM12.4924 22.1231C12.4924 22.365 12.3027 22.5538 12.0616 22.5538H1.29237C1.05131 22.5538 0.8616 22.365 0.8616 22.1231V1.8769C0.8616 1.63498 1.05131 1.44613 1.29237 1.44613H12.0616C12.3027 1.44613 12.4924 1.63498 12.4924 1.8769V3.16921H12.0616C11.8201 3.16921 11.6308 3.35762 11.6308 3.59998C11.6308 3.84234 11.8201 4.03075 12.0616 4.03075H12.4924V5.75383H12.0616C11.8201 5.75383 11.6308 5.94224 11.6308 6.18459C11.6308 6.42695 11.8201 6.61536 12.0616 6.61536H12.4924V8.33844H12.0616C11.8201 8.33844 11.6308 8.52685 11.6308 8.76921C11.6308 9.01157 11.8201 9.19998 12.0616 9.19998H12.4924V11.3538H12.0616C11.8201 11.3538 11.6308 11.973 11.6308 12.2154C11.6308 12.4577 11.8201 12.6461 12.0616 12.6461H12.4924V14.3692H12.0616C11.8201 14.3692 11.6308 14.5576 11.6308 14.8C11.6308 15.0423 11.8201 15.2307 12.0616 15.2307H12.4924V17.3846H12.0616C11.8201 17.3846 11.6308 17.573 11.6308 17.8154C11.6308 18.0577 11.8201 18.2461 12.0616 18.2461H12.4924V19.9692H12.0616C11.8201 19.9692 11.6308 20.1576 11.6308 20.4C11.6308 20.6423 11.8201 20.8307 12.0616 20.8307H12.4924V22.1231ZM13.3539 19.9692V18.2461H14.6462V19.9692H13.3539ZM27.1385 22.1231C27.1385 22.365 26.9488 22.5538 26.7078 22.5538H15.9385C15.6975 22.5538 15.5078 22.365 15.5078 22.1231V20.8307H15.9385C16.18 20.8307 16.3693 20.6423 16.3693 20.4C16.3693 20.1576 16.18 19.9692 15.9385 19.9692H15.5078V18.2461H15.9385C16.18 18.2461 16.3693 18.0577 16.3693 17.8154C16.3693 17.573 16.18 17.3846 15.9385 17.3846H15.5078V15.2307H15.9385C16.18 15.2307 16.3693 15.0423 16.3693 14.8C16.3693 14.5576 16.18 14.3692 15.9385 14.3692H15.5078V12.6461H15.9385C16.18 12.6461 16.3693 12.4577 16.3693 12.2154C16.3693 11.973 16.18 11.3538 15.9385 11.3538H15.5078V9.19998H15.9385C16.18 9.19998 16.3693 9.01157 16.3693 8.76921C16.3693 8.52685 16.18 8.33844 15.9385 8.33844H15.5078V6.61536H15.9385C16.18 6.61536 16.3693 6.42695 16.3693 6.18459C16.3693 5.94224 16.18 5.75383 15.9385 5.75383H15.5078V4.03075H15.9385C16.18 4.03075 16.3693 3.84234 16.3693 3.59998C16.3693 3.35762 16.18 3.16921 15.9385 3.16921H15.5078V1.8769C15.5078 1.63498 15.6975 1.44613 15.9385 1.44613H26.7078C26.9488 1.44613 27.1385 1.63498 27.1385 1.8769V22.1231Z" fill="white"/>
<path d="M4.7385 9.19996H6.46158C7.64921 9.19996 8.61542 8.23374 8.61542 7.04611V6.61534C9.5657 6.61534 10.3385 5.84254 10.3385 4.89227C10.3385 3.94199 9.5657 3.16919 8.61542 3.16919H8.18466H3.01542C2.77764 3.16919 2.58466 3.36217 2.58466 3.59996V7.04611C2.58466 8.23374 3.55087 9.19996 4.7385 9.19996ZM9.47696 4.89227C9.47696 5.3674 9.09056 5.75381 8.61542 5.75381V4.03073C9.09056 4.03073 9.47696 4.41713 9.47696 4.89227ZM3.44619 4.03073H7.75389V7.04611C7.75389 7.75861 7.17407 8.33842 6.46158 8.33842H4.7385C4.02601 8.33842 3.44619 7.75861 3.44619 7.04611V4.03073Z" fill="white"/>
<path d="M2.5847 15.6615H5.60008C5.83787 15.6615 6.03085 15.4685 6.03085 15.2307C6.03085 14.9929 5.83787 14.7999 5.60008 14.7999H2.5847C2.34692 14.7999 2.15393 14.9929 2.15393 15.2307C2.15393 15.4685 2.34692 15.6615 2.5847 15.6615Z" fill="white"/>
<path d="M9.90773 14.7999H9.04619C8.8084 14.7999 8.61542 14.9929 8.61542 15.2307C8.61542 15.4685 8.8084 15.6615 9.04619 15.6615H9.90773C10.1455 15.6615 10.3385 15.4685 10.3385 15.2307C10.3385 14.9929 10.1455 14.7999 9.90773 14.7999Z" fill="white"/>
<path d="M7.32316 16.5231H2.5847C2.34692 16.5231 2.15393 16.7161 2.15393 16.9538C2.15393 17.1916 2.34692 17.3846 2.5847 17.3846H7.32316C7.56095 17.3846 7.75393 17.1916 7.75393 16.9538C7.75393 16.7161 7.56095 16.5231 7.32316 16.5231Z" fill="white"/>
<path d="M9.90773 16.5231H9.04619C8.8084 16.5231 8.61542 16.7161 8.61542 16.9538C8.61542 17.1916 8.8084 17.3846 9.04619 17.3846H9.90773C10.1455 17.3846 10.3385 17.1916 10.3385 16.9538C10.3385 16.7161 10.1455 16.5231 9.90773 16.5231Z" fill="white"/>
<path d="M2.5847 19.1076H6.03085C6.26864 19.1076 6.46162 18.9146 6.46162 18.6769C6.46162 18.4391 6.26864 18.2461 6.03085 18.2461H2.5847C2.34692 18.2461 2.15393 18.4391 2.15393 18.6769C2.15393 18.9146 2.34692 19.1076 2.5847 19.1076Z" fill="white"/>
<path d="M9.90773 18.2461H9.04619C8.8084 18.2461 8.61542 18.4391 8.61542 18.6769C8.61542 18.9146 8.8084 19.1076 9.04619 19.1076H9.90773C10.1455 19.1076 10.3385 18.9146 10.3385 18.6769C10.3385 18.4391 10.1455 18.2461 9.90773 18.2461Z" fill="white"/>
<path d="M6.89239 19.9692H2.5847C2.34692 19.9692 2.15393 20.1622 2.15393 20.4C2.15393 20.6378 2.34692 20.8308 2.5847 20.8308H6.89239C7.13018 20.8308 7.32316 20.6378 7.32316 20.4C7.32316 20.1622 7.13018 19.9692 6.89239 19.9692Z" fill="white"/>
<path d="M9.90773 19.9692H9.04619C8.8084 19.9692 8.61542 20.1622 8.61542 20.4C8.61542 20.6378 8.8084 20.8308 9.04619 20.8308H9.90773C10.1455 20.8308 10.3385 20.6378 10.3385 20.4C10.3385 20.1622 10.1455 19.9692 9.90773 19.9692Z" fill="white"/>
<path d="M9.47701 10.4923H3.44624C2.73375 10.4923 2.15393 11.0721 2.15393 11.7846C2.15393 12.4971 2.73375 13.0769 3.44624 13.0769H9.47701C10.1895 13.0769 10.7693 12.4971 10.7693 11.7846C10.7693 11.0721 10.1895 10.4923 9.47701 10.4923ZM9.47701 12.2154H3.44624C3.20888 12.2154 3.01547 12.022 3.01547 11.7846C3.01547 11.5473 3.20888 11.3538 3.44624 11.3538H9.47701C9.71436 11.3538 9.90778 11.5473 9.90778 11.7846C9.90778 12.022 9.71436 12.2154 9.47701 12.2154Z" fill="white"/>
<path d="M24.9847 19.9692C24.9847 18.2151 23.6665 16.7363 21.9693 16.5231C21.9693 16.2853 21.7763 16.0923 21.5385 16.0923C21.3008 16.0923 21.1078 16.2853 21.1078 16.5231C19.4105 16.7363 18.0924 18.2151 18.0924 19.9692C17.8546 19.9692 17.6616 20.1622 17.6616 20.4C17.6616 20.6378 17.8546 20.8307 18.0924 20.8307H24.9847C25.2225 20.8307 25.4155 20.6378 25.4155 20.4C25.4155 20.1622 25.2225 19.9692 24.9847 19.9692ZM21.5385 17.3846C22.964 17.3846 24.1232 18.5438 24.1232 19.9692H18.9539C18.9539 18.5438 20.1131 17.3846 21.5385 17.3846Z" fill="white"/>
<path d="M18.0924 4.03073H21.1078C21.3456 4.03073 21.5385 3.83774 21.5385 3.59996C21.5385 3.36217 21.3456 3.16919 21.1078 3.16919H18.0924C17.8546 3.16919 17.6616 3.36217 17.6616 3.59996C17.6616 3.83774 17.8546 4.03073 18.0924 4.03073Z" fill="white"/>
<path d="M25.4155 3.16919H24.5539C24.3162 3.16919 24.1232 3.36217 24.1232 3.59996C24.1232 3.83774 24.3162 4.03073 24.5539 4.03073H25.4155C25.6533 4.03073 25.8462 3.83774 25.8462 3.59996C25.8462 3.36217 25.6533 3.16919 25.4155 3.16919Z" fill="white"/>
<path d="M18.0924 5.75387H22.8309C23.0686 5.75387 23.2616 5.56089 23.2616 5.3231C23.2616 5.08532 23.0686 4.89233 22.8309 4.89233H18.0924C17.8546 4.89233 17.6616 5.08532 17.6616 5.3231C17.6616 5.56089 17.8546 5.75387 18.0924 5.75387Z" fill="white"/>
<path d="M25.4155 4.89233H24.5539C24.3162 4.89233 24.1232 5.08532 24.1232 5.3231C24.1232 5.56089 24.3162 5.75387 24.5539 5.75387H25.4155C25.6533 5.75387 25.8462 5.56089 25.8462 5.3231C25.8462 5.08532 25.6533 4.89233 25.4155 4.89233Z" fill="white"/>
<path d="M18.0924 7.47689H21.5385C21.7763 7.47689 21.9693 7.28391 21.9693 7.04613C21.9693 6.80834 21.7763 6.61536 21.5385 6.61536H18.0924C17.8546 6.61536 17.6616 6.80834 17.6616 7.04613C17.6616 7.28391 17.8546 7.47689 18.0924 7.47689Z" fill="white"/>
<path d="M25.4155 6.61536H24.5539C24.3162 6.61536 24.1232 6.80834 24.1232 7.04613C24.1232 7.28391 24.3162 7.47689 24.5539 7.47689H25.4155C25.6533 7.47689 25.8462 7.28391 25.8462 7.04613C25.8462 6.80834 25.6533 6.61536 25.4155 6.61536Z" fill="white"/>
<path d="M18.0924 9.19992H22.4001C22.6379 9.19992 22.8309 9.00693 22.8309 8.76915C22.8309 8.53136 22.6379 8.33838 22.4001 8.33838H18.0924C17.8546 8.33838 17.6616 8.53136 17.6616 8.76915C17.6616 9.00693 17.8546 9.19992 18.0924 9.19992Z" fill="white"/>
<path d="M25.4155 8.33838H24.5539C24.3162 8.33838 24.1232 8.53136 24.1232 8.76915C24.1232 9.00693 24.3162 9.19992 24.5539 9.19992H25.4155C25.6533 9.19992 25.8462 9.00693 25.8462 8.76915C25.8462 8.53136 25.6533 8.33838 25.4155 8.33838Z" fill="white"/>
<path d="M18.0924 10.9231H21.5385C21.7763 10.9231 21.9693 10.7301 21.9693 10.4923C21.9693 10.2545 21.7763 10.0615 21.5385 10.0615H18.0924C17.8546 10.0615 17.6616 10.2545 17.6616 10.4923C17.6616 10.7301 17.8546 10.9231 18.0924 10.9231Z" fill="white"/>
<path d="M25.4155 10.0615H24.5539C24.3162 10.0615 24.1232 10.2545 24.1232 10.4923C24.1232 10.7301 24.3162 10.9231 24.5539 10.9231H25.4155C25.6533 10.9231 25.8462 10.7301 25.8462 10.4923C25.8462 10.2545 25.6533 10.0615 25.4155 10.0615Z" fill="white"/>
<path d="M18.0924 13.0769H22.4001C22.6379 13.0769 22.8309 12.8839 22.8309 12.6461C22.8309 12.4083 22.6379 12.2153 22.4001 12.2153H18.0924C17.8546 12.2153 17.6616 12.4083 17.6616 12.6461C17.6616 12.8839 17.8546 13.0769 18.0924 13.0769Z" fill="white"/>
<path d="M25.4155 12.2153H24.5539C24.3162 12.2153 24.1232 12.4083 24.1232 12.6461C24.1232 12.8839 24.3162 13.0769 24.5539 13.0769H25.4155C25.6533 13.0769 25.8462 12.8839 25.8462 12.6461C25.8462 12.4083 25.6533 12.2153 25.4155 12.2153Z" fill="white"/>
</svg>
