<svg width="56" height="56" viewBox="0 0 56 56" fill="none" xmlns="http://www.w3.org/2000/svg">
<g filter="url(#filter0_di_98_1775)">
<circle cx="29.1114" cy="27.0001" r="26" transform="rotate(90.2458 29.1114 27.0001)" fill="#E14287"/>
</g>
<path d="M26.8471 17.474C27.0908 17.474 27.329 17.4017 27.5316 17.2663C27.7342 17.1309 27.8922 16.9385 27.9854 16.7134C28.0787 16.4883 28.1031 16.2405 28.0555 16.0015C28.008 15.7625 27.8906 15.543 27.7183 15.3707C27.546 15.1984 27.3265 15.0811 27.0875 15.0336C26.8485 14.986 26.6007 15.0104 26.3756 15.1037C26.1505 15.197 25.9581 15.3549 25.8227 15.5575C25.6873 15.7601 25.6151 15.9983 25.6151 16.242C25.6155 16.5686 25.7454 16.8818 25.9764 17.1127C26.2074 17.3437 26.5205 17.4736 26.8471 17.474ZM26.8471 15.8072C26.9332 15.8072 27.0173 15.8327 27.0889 15.8805C27.1605 15.9283 27.2162 15.9963 27.2492 16.0758C27.2821 16.1553 27.2907 16.2428 27.2739 16.3272C27.2572 16.4116 27.2157 16.4892 27.1549 16.55C27.094 16.6109 27.0165 16.6523 26.932 16.6691C26.8476 16.6859 26.7601 16.6773 26.6806 16.6444C26.6011 16.6114 26.5331 16.5556 26.4853 16.4841C26.4375 16.4125 26.412 16.3284 26.412 16.2423C26.412 16.1269 26.4578 16.0162 26.5394 15.9345C26.621 15.8529 26.7317 15.8069 26.8471 15.8068V15.8072Z" fill="white"/>
<path d="M28.4246 19.0513C28.4246 19.295 28.4969 19.5332 28.6322 19.7358C28.7676 19.9384 28.96 20.0964 29.1851 20.1896C29.4103 20.2829 29.658 20.3073 29.897 20.2597C30.136 20.2122 30.3555 20.0949 30.5278 19.9226C30.7001 19.7502 30.8175 19.5307 30.865 19.2917C30.9126 19.0527 30.8882 18.805 30.7949 18.5799C30.7016 18.3547 30.5437 18.1623 30.3411 18.0269C30.1385 17.8916 29.9003 17.8193 29.6566 17.8193C29.33 17.8197 29.0168 17.9496 28.7859 18.1806C28.5549 18.4115 28.425 18.7247 28.4246 19.0513ZM30.0917 19.0513C30.0918 19.1374 30.0663 19.2215 30.0184 19.2931C29.9706 19.3647 29.9027 19.4204 29.8232 19.4534C29.7437 19.4863 29.6562 19.495 29.5717 19.4782C29.4873 19.4614 29.4098 19.42 29.3489 19.3591C29.288 19.2982 29.2466 19.2207 29.2298 19.1363C29.213 19.0519 29.2216 18.9644 29.2545 18.8849C29.2875 18.8053 29.3433 18.7374 29.4148 18.6896C29.4864 18.6417 29.5705 18.6162 29.6566 18.6162C29.772 18.6163 29.8826 18.6622 29.9642 18.7438C30.0458 18.8253 30.0917 18.9359 30.0918 19.0513H30.0917Z" fill="white"/>
<path d="M26.1509 19.7476C26.1879 19.7846 26.2318 19.814 26.2802 19.834C26.3285 19.854 26.3803 19.8643 26.4327 19.8643C26.485 19.8643 26.5368 19.854 26.5852 19.834C26.6335 19.814 26.6774 19.7846 26.7144 19.7476L30.3528 16.1093C30.3902 16.0725 30.4201 16.0285 30.4405 15.98C30.4609 15.9316 30.4715 15.8795 30.4718 15.8269C30.472 15.7743 30.4618 15.7222 30.4417 15.6736C30.4217 15.625 30.3922 15.5808 30.3551 15.5436C30.3179 15.5064 30.2737 15.4769 30.225 15.4569C30.1764 15.4369 30.1243 15.4267 30.0717 15.4269C30.0191 15.4271 29.9671 15.4377 29.9186 15.4581C29.8701 15.4786 29.8262 15.5084 29.7893 15.5459L26.151 19.1841C26.0762 19.2589 26.0343 19.3602 26.0342 19.4659C26.0342 19.5715 26.0762 19.6729 26.1509 19.7476Z" fill="white"/>
<path d="M28.2519 22.7992C29.271 22.7992 30.2672 22.497 31.1145 21.9308C31.9618 21.3647 32.6222 20.56 33.0122 19.6185C33.4022 18.677 33.5042 17.641 33.3054 16.6415C33.1066 15.642 32.6159 14.7239 31.8953 14.0033C31.1747 13.2827 30.2566 12.792 29.2571 12.5931C28.2576 12.3943 27.2216 12.4964 26.2801 12.8864C25.3386 13.2763 24.5339 13.9368 23.9677 14.7841C23.4016 15.6314 23.0994 16.6276 23.0994 17.6467C23.1009 19.0127 23.6443 20.3224 24.6102 21.2884C25.5762 22.2543 26.8858 22.7977 28.2519 22.7992ZM28.2519 13.2911C29.1134 13.2911 29.9555 13.5465 30.6718 14.0251C31.3881 14.5038 31.9463 15.184 32.276 15.9799C32.6057 16.7758 32.6919 17.6516 32.5239 18.4965C32.3558 19.3414 31.9409 20.1175 31.3318 20.7267C30.7226 21.3358 29.9465 21.7507 29.1016 21.9187C28.2567 22.0868 27.3809 22.0005 26.585 21.6708C25.7891 21.3411 25.1089 20.7829 24.6303 20.0666C24.1517 19.3503 23.8962 18.5081 23.8962 17.6467C23.8975 16.4919 24.3569 15.3848 25.1734 14.5682C25.99 13.7517 27.0971 13.2924 28.2519 13.2911Z" fill="white"/>
<path d="M37.4771 17.6492C37.4771 17.7548 37.519 17.8562 37.5938 17.9309C37.6685 18.0056 37.7698 18.0476 37.8755 18.0476H39.7728C39.8785 18.0476 39.9798 18.0056 40.0545 17.9309C40.1292 17.8562 40.1712 17.7548 40.1712 17.6492C40.1712 17.5435 40.1292 17.4422 40.0545 17.3674C39.9798 17.2927 39.8785 17.2507 39.7728 17.2507H37.8755C37.7698 17.2507 37.6685 17.2927 37.5938 17.3674C37.519 17.4422 37.4771 17.5435 37.4771 17.6492Z" fill="white"/>
<path d="M38.8231 13.6323L36.9259 15.0534C36.8439 15.1177 36.7905 15.2115 36.7769 15.3147C36.7632 15.418 36.7906 15.5224 36.853 15.6058C36.9155 15.6891 37.0081 15.7446 37.111 15.7606C37.2139 15.7765 37.3189 15.7515 37.4036 15.6909L39.301 14.2698C39.3855 14.2064 39.4414 14.112 39.4564 14.0074C39.4713 13.9028 39.4441 13.7965 39.3807 13.712C39.3173 13.6275 39.2229 13.5716 39.1183 13.5566C39.0137 13.5417 38.9074 13.5689 38.8229 13.6323H38.8231Z" fill="white"/>
<path d="M36.9258 20.2397L38.8231 21.6608C38.865 21.6922 38.9126 21.715 38.9633 21.728C39.014 21.741 39.0667 21.7439 39.1185 21.7365C39.1703 21.7291 39.2202 21.7115 39.2652 21.6849C39.3102 21.6582 39.3495 21.6229 39.3809 21.5811C39.4123 21.5392 39.4352 21.4916 39.4481 21.4409C39.4611 21.3902 39.464 21.3375 39.4566 21.2857C39.4492 21.2339 39.4317 21.184 39.405 21.139C39.3784 21.094 39.3431 21.0547 39.3012 21.0233L37.4039 19.6022C37.3192 19.5416 37.2141 19.5166 37.1112 19.5325C37.0083 19.5484 36.9157 19.604 36.8533 19.6873C36.7908 19.7706 36.7635 19.8751 36.7771 19.9783C36.7907 20.0816 36.8442 20.1754 36.9261 20.2397H36.9258Z" fill="white"/>
<path d="M16.3328 17.6492C16.3328 17.7548 16.3748 17.8562 16.4495 17.9309C16.5242 18.0056 16.6256 18.0476 16.7313 18.0476H18.6286C18.7342 18.0476 18.8356 18.0056 18.9103 17.9309C18.985 17.8562 19.027 17.7548 19.027 17.6492C19.027 17.5435 18.985 17.4422 18.9103 17.3674C18.8356 17.2927 18.7342 17.2507 18.6286 17.2507H16.7313C16.6256 17.2507 16.5242 17.2927 16.4495 17.3674C16.3748 17.4422 16.3328 17.5435 16.3328 17.6492Z" fill="white"/>
<path d="M19.1003 19.6019L17.203 21.023C17.1184 21.0864 17.0625 21.1808 17.0476 21.2854C17.0326 21.39 17.0599 21.4963 17.1233 21.5808C17.1867 21.6654 17.2811 21.7213 17.3857 21.7362C17.4903 21.7512 17.5965 21.7239 17.6811 21.6605L19.5784 20.2394C19.6603 20.1751 19.7138 20.0813 19.7274 19.9781C19.741 19.8749 19.7136 19.7704 19.6512 19.6871C19.5887 19.6037 19.4961 19.5482 19.3932 19.5323C19.2903 19.5164 19.1853 19.5414 19.1006 19.6019H19.1003Z" fill="white"/>
<path d="M19.5781 15.0535L17.6808 13.6322C17.5963 13.5688 17.49 13.5416 17.3854 13.5565C17.2808 13.5714 17.1864 13.6273 17.123 13.7119C17.0596 13.7964 17.0324 13.9027 17.0473 14.0073C17.0623 14.1119 17.1182 14.2063 17.2027 14.2697L19.1001 15.6908C19.1848 15.7513 19.2898 15.7764 19.3927 15.7604C19.4956 15.7445 19.5882 15.689 19.6507 15.6056C19.7131 15.5223 19.7405 15.4178 19.7269 15.3146C19.7133 15.2114 19.6598 15.1176 19.5779 15.0533L19.5781 15.0535Z" fill="white"/>
<path d="M38.912 24.1845C38.8917 24.1358 38.8597 24.0928 38.8188 24.0594C38.7779 24.026 38.7295 24.0032 38.6776 23.9931L33.791 22.3184L34.1402 22.1418C34.4398 21.9905 34.6887 21.7552 34.8566 21.4647C35.0245 21.1742 35.1042 20.841 35.0857 20.5059L35.0452 19.7682C35.0346 19.5692 35.0879 19.372 35.1972 19.2054L35.5982 18.5973C35.7844 18.3153 35.8836 17.9848 35.8836 17.6469C35.8836 17.3089 35.7844 16.9785 35.5982 16.6965L35.1973 16.0885C35.0879 15.9218 35.0347 15.7246 35.0452 15.5256L35.0858 14.7879C35.1042 14.4528 35.0246 14.1196 34.8567 13.8291C34.6888 13.5385 34.4399 13.3032 34.1404 13.1519L33.4874 12.8221C33.3099 12.7329 33.1659 12.5889 33.0767 12.4115L32.7468 11.7585C32.5955 11.459 32.3602 11.2101 32.0697 11.0421C31.7791 10.8742 31.446 10.7946 31.1109 10.8131L30.3731 10.8536C30.1741 10.8642 29.977 10.8109 29.8104 10.7015L29.2023 10.3006C28.9203 10.1144 28.5899 10.0151 28.2519 10.0151C27.914 10.0151 27.5835 10.1144 27.3015 10.3006L26.6935 10.7015C26.5268 10.8107 26.3297 10.864 26.1307 10.8536L25.3929 10.8131C25.0579 10.7945 24.7247 10.874 24.4341 11.0419C24.1435 11.2098 23.9082 11.4587 23.757 11.7583L23.4271 12.4113C23.3379 12.5887 23.1938 12.7327 23.0163 12.8219L22.3635 13.1517C22.064 13.303 21.815 13.5383 21.6471 13.8289C21.4792 14.1194 21.3996 14.4526 21.418 14.7877L21.4586 15.5254C21.4691 15.7244 21.4159 15.9216 21.3065 16.0883L20.9055 16.6963C20.7193 16.9783 20.6201 17.3088 20.6201 17.6467C20.6201 17.9846 20.7193 18.3151 20.9055 18.5971L21.3064 19.2052C21.4158 19.3718 21.4691 19.569 21.4585 19.768L21.4179 20.5057C21.3995 20.8408 21.4791 21.174 21.647 21.4645C21.8149 21.755 22.0638 21.9903 22.3634 22.1416L22.7407 22.3323L17.8261 23.9923C17.7741 24.0025 17.7254 24.0253 17.6844 24.0588C17.6433 24.0923 17.6112 24.1354 17.5909 24.1843L15.4886 28.1752C15.4408 28.2695 15.4322 28.3788 15.4645 28.4793C15.4968 28.5799 15.5675 28.6637 15.6612 28.7125L17.7597 29.8243V37.5259C17.7577 37.6 17.777 37.673 17.8151 37.7365C17.8532 37.8 17.9086 37.8514 17.9748 37.8845L28.0834 42.7745C28.1366 42.8006 28.195 42.8143 28.2543 42.8143C28.314 42.8143 28.3729 42.8007 28.4265 42.7745L38.5296 37.8845C38.5957 37.8513 38.651 37.8 38.689 37.7364C38.727 37.6729 38.7461 37.5999 38.744 37.5259V29.8243L40.8449 28.7125C40.9379 28.6629 41.0074 28.5786 41.0384 28.478C41.0693 28.3773 41.0591 28.2685 41.0101 28.1753L38.912 24.1845ZM22.7227 21.4304C22.5615 21.3489 22.4274 21.2222 22.337 21.0657C22.2466 20.9093 22.2038 20.7299 22.2137 20.5495L22.2543 19.8117C22.2738 19.4421 22.1748 19.0759 21.9718 18.7665L21.5709 18.1585C21.4707 18.0066 21.4172 17.8287 21.4172 17.6467C21.4172 17.4647 21.4707 17.2868 21.5709 17.1349L21.9718 16.5269C22.1749 16.2175 22.2739 15.8513 22.2544 15.4816L22.2137 14.7439C22.2038 14.5635 22.2467 14.3841 22.3371 14.2276C22.4275 14.0712 22.5616 13.9444 22.7229 13.863L23.3757 13.5331C23.7053 13.3676 23.9728 13.1002 24.1384 12.7706L24.4682 12.1176C24.5498 11.9563 24.6765 11.8223 24.8329 11.7319C24.9893 11.6415 25.1687 11.5986 25.3491 11.6085L26.0868 11.6491C26.4565 11.6688 26.8228 11.5699 27.1322 11.3666L27.7402 10.9657C27.892 10.8654 28.07 10.812 28.2519 10.812C28.4339 10.812 28.6118 10.8654 28.7637 10.9657L29.3717 11.3666C29.681 11.5697 30.0472 11.6687 30.4167 11.6491L31.1544 11.6085C31.3349 11.5986 31.5143 11.6414 31.6708 11.7318C31.8273 11.8223 31.954 11.9563 32.0356 12.1176L32.3654 12.7705C32.531 13.1 32.7984 13.3675 33.128 13.5331L33.781 13.8629C33.9423 13.9444 34.0763 14.0711 34.1667 14.2276C34.2571 14.384 34.3 14.5634 34.2901 14.7439L34.2494 15.4816C34.2299 15.8512 34.3289 16.2174 34.532 16.5269L34.9328 17.1348C35.0331 17.2867 35.0865 17.4646 35.0865 17.6466C35.0865 17.8286 35.0331 18.0065 34.9328 18.1584L34.5319 18.7664C34.3288 19.0759 34.2298 19.4421 34.2493 19.8117L34.29 20.5494C34.2999 20.7298 34.257 20.9092 34.1666 21.0657C34.0762 21.2221 33.9421 21.3488 33.7808 21.4303L33.128 21.7602C32.7984 21.9258 32.5309 22.1932 32.3653 22.5227L32.0355 23.1758C31.9538 23.3369 31.827 23.4707 31.6706 23.5611C31.5143 23.6515 31.335 23.6945 31.1546 23.6849L30.4169 23.6442C30.0473 23.6247 29.681 23.7237 29.3715 23.9267L28.7635 24.3276C28.6117 24.4279 28.4338 24.4813 28.2518 24.4813C28.0698 24.4813 27.8919 24.4279 27.7401 24.3276L27.1321 23.9267C26.8491 23.7411 26.5181 23.6421 26.1797 23.6417C26.1488 23.6417 26.1177 23.6425 26.0868 23.6442L25.349 23.6849C25.1686 23.6948 24.9892 23.652 24.8327 23.5616C24.6763 23.4711 24.5496 23.3371 24.4682 23.1757L24.1383 22.5227C23.9727 22.1932 23.7053 21.9258 23.3757 21.7602L22.7227 21.4304ZM27.8534 41.7807L18.5566 37.276V30.2481L25.9258 34.1719C25.9816 34.2025 26.0443 34.2185 26.1079 34.2184C26.1483 34.2184 26.1884 34.212 26.2267 34.1995C26.2772 34.1833 26.3239 34.1571 26.3641 34.1225C26.4042 34.088 26.4371 34.0457 26.4606 33.9981L27.8534 31.2101V41.7807ZM28.2505 29.0772L22.384 26.1476C22.2047 26.0582 21.9874 26.0829 21.8756 26.2821C21.8441 26.3291 21.8229 26.3823 21.8135 26.4381C21.8042 26.494 21.8068 26.5511 21.8212 26.6059C21.8357 26.6606 21.8616 26.7116 21.8973 26.7555C21.9331 26.7994 21.9777 26.8352 22.0283 26.8605L27.7169 29.7011L25.929 33.2768L16.3732 28.1952L18.105 24.9008L19.6323 25.6636C19.7269 25.7108 19.8363 25.7185 19.9365 25.685C20.0368 25.6516 20.1196 25.5796 20.1668 25.4851C20.214 25.3906 20.2217 25.2811 20.1883 25.1809C20.1548 25.0807 20.0829 24.9978 19.9883 24.9506L18.9687 24.4414L23.4511 22.93L23.7569 23.5352C23.9081 23.8348 24.1433 24.0838 24.4339 24.2518C24.7245 24.4197 25.0577 24.4992 25.3928 24.4806L26.1306 24.44C26.3296 24.4297 26.5267 24.4829 26.6934 24.5922L27.3014 24.9931C27.5834 25.1793 27.9139 25.2785 28.2518 25.2785C28.5897 25.2785 28.9202 25.1793 29.2022 24.9931L29.8102 24.5922C29.9768 24.4829 30.174 24.4296 30.373 24.44L31.1108 24.4806C31.4459 24.4992 31.7791 24.4197 32.0697 24.2517C32.3602 24.0838 32.5955 23.8348 32.7467 23.5352L33.0631 22.9091L37.5375 24.4388L28.2505 29.0772ZM37.9472 37.276L28.6503 41.7807V31.2101L30.0444 33.9984C30.0775 34.0646 30.1283 34.1203 30.1913 34.1592C30.2542 34.1981 30.3267 34.2187 30.4007 34.2187C30.4628 34.2187 30.5239 34.2027 30.5779 34.1722L37.9472 30.2481V37.276ZM30.5744 33.2766L28.7865 29.7007L38.3987 24.9008L40.1304 28.1951L30.5744 33.2766Z" fill="white"/>
<path d="M19.5527 31.7284C19.4471 31.7284 19.3457 31.7704 19.271 31.8451C19.1963 31.9198 19.1543 32.0212 19.1543 32.1268V32.4836C19.1543 32.5892 19.1963 32.6906 19.271 32.7653C19.3457 32.84 19.4471 32.882 19.5527 32.882C19.6584 32.882 19.7598 32.84 19.8345 32.7653C19.9092 32.6906 19.9512 32.5892 19.9512 32.4836V32.1268C19.9512 32.0212 19.9092 31.9198 19.8345 31.8451C19.7598 31.7704 19.6584 31.7284 19.5527 31.7284Z" fill="white"/>
<path d="M19.5527 33.3633C19.4471 33.3633 19.3457 33.4053 19.271 33.48C19.1963 33.5547 19.1543 33.656 19.1543 33.7617V36.4544C19.1543 36.56 19.1963 36.6614 19.271 36.7361C19.3457 36.8108 19.4471 36.8528 19.5527 36.8528C19.6584 36.8528 19.7598 36.8108 19.8345 36.7361C19.9092 36.6614 19.9512 36.56 19.9512 36.4544V33.7617C19.9512 33.656 19.9092 33.5547 19.8345 33.48C19.7598 33.4053 19.6584 33.3633 19.5527 33.3633Z" fill="white"/>
<defs>
<filter id="filter0_di_98_1775" x="0.111389" y="-6" width="63" height="62" filterUnits="userSpaceOnUse" color-interpolation-filters="sRGB">
<feFlood flood-opacity="0" result="BackgroundImageFix"/>
<feColorMatrix in="SourceAlpha" type="matrix" values="0 0 0 0 0 0 0 0 0 0 0 0 0 0 0 0 0 0 127 0" result="hardAlpha"/>
<feOffset dx="-3" dy="3"/>
<feComposite in2="hardAlpha" operator="out"/>
<feColorMatrix type="matrix" values="0 0 0 0 0.504167 0 0 0 0 0 0 0 0 0 0.218789 0 0 0 1 0"/>
<feBlend mode="normal" in2="BackgroundImageFix" result="effect1_dropShadow_98_1775"/>
<feBlend mode="normal" in="SourceGraphic" in2="effect1_dropShadow_98_1775" result="shape"/>
<feColorMatrix in="SourceAlpha" type="matrix" values="0 0 0 0 0 0 0 0 0 0 0 0 0 0 0 0 0 0 127 0" result="hardAlpha"/>
<feOffset dx="8" dy="-7"/>
<feGaussianBlur stdDeviation="4.5"/>
<feComposite in2="hardAlpha" operator="arithmetic" k2="-1" k3="1"/>
<feColorMatrix type="matrix" values="0 0 0 0 0 0 0 0 0 0 0 0 0 0 0 0 0 0 0.3 0"/>
<feBlend mode="normal" in2="shape" result="effect2_innerShadow_98_1775"/>
</filter>
</defs>
</svg>
