<svg width="35" height="35" viewBox="0 0 35 35" fill="none" xmlns="http://www.w3.org/2000/svg">
<path d="M15.8471 8.47396C16.0908 8.47396 16.329 8.4017 16.5316 8.26632C16.7342 8.13094 16.8922 7.93852 16.9854 7.71339C17.0787 7.48826 17.1031 7.24053 17.0555 7.00154C17.008 6.76255 16.8906 6.54302 16.7183 6.37072C16.546 6.19842 16.3265 6.08108 16.0875 6.03355C15.8485 5.98602 15.6007 6.01043 15.3756 6.10369C15.1505 6.19695 14.9581 6.35487 14.8227 6.55749C14.6873 6.76011 14.6151 6.99831 14.6151 7.24199C14.6155 7.56863 14.7454 7.88178 14.9764 8.11274C15.2074 8.3437 15.5205 8.47361 15.8471 8.47396ZM15.8471 6.80716C15.9332 6.80716 16.0173 6.83268 16.0889 6.8805C16.1605 6.92832 16.2162 6.99628 16.2492 7.07579C16.2821 7.15531 16.2907 7.2428 16.2739 7.32722C16.2572 7.41163 16.2157 7.48917 16.1549 7.55003C16.094 7.61088 16.0165 7.65233 15.932 7.66912C15.8476 7.68591 15.7601 7.67729 15.6806 7.64436C15.6011 7.61142 15.5331 7.55565 15.4853 7.48408C15.4375 7.41252 15.412 7.32839 15.412 7.24232C15.412 7.12689 15.4578 7.01618 15.5394 6.93452C15.621 6.85286 15.7317 6.80694 15.8471 6.80683V6.80716Z" fill="white"/>
<path d="M17.4246 10.0513C17.4246 10.295 17.4969 10.5332 17.6322 10.7358C17.7676 10.9384 17.96 11.0964 18.1851 11.1896C18.4103 11.2829 18.658 11.3073 18.897 11.2597C19.136 11.2122 19.3555 11.0949 19.5278 10.9226C19.7001 10.7502 19.8175 10.5307 19.865 10.2917C19.9126 10.0527 19.8882 9.80499 19.7949 9.57986C19.7016 9.35473 19.5437 9.16232 19.3411 9.02694C19.1385 8.89157 18.9003 8.81932 18.6566 8.81934C18.33 8.81971 18.0168 8.94962 17.7859 9.18058C17.5549 9.41154 17.425 9.72468 17.4246 10.0513ZM19.0917 10.0513C19.0918 10.1374 19.0663 10.2215 19.0184 10.2931C18.9706 10.3647 18.9027 10.4204 18.8232 10.4534C18.7437 10.4863 18.6562 10.495 18.5717 10.4782C18.4873 10.4614 18.4098 10.42 18.3489 10.3591C18.288 10.2982 18.2466 10.2207 18.2298 10.1363C18.213 10.0519 18.2216 9.96438 18.2545 9.88486C18.2875 9.80534 18.3433 9.73737 18.4148 9.68955C18.4864 9.64173 18.5705 9.61621 18.6566 9.61621C18.772 9.61632 18.8826 9.66219 18.9642 9.74376C19.0458 9.82532 19.0917 9.93593 19.0918 10.0513H19.0917Z" fill="white"/>
<path d="M15.1509 10.7476C15.1879 10.7846 15.2318 10.814 15.2802 10.834C15.3285 10.854 15.3803 10.8643 15.4327 10.8643C15.485 10.8643 15.5368 10.854 15.5852 10.834C15.6335 10.814 15.6774 10.7846 15.7144 10.7476L19.3528 7.10934C19.3902 7.07245 19.4201 7.02851 19.4405 6.98004C19.4609 6.93157 19.4715 6.87954 19.4718 6.82694C19.472 6.77434 19.4618 6.72223 19.4417 6.67359C19.4217 6.62496 19.3922 6.58077 19.3551 6.54358C19.3179 6.50639 19.2737 6.47693 19.225 6.4569C19.1764 6.43687 19.1243 6.42667 19.0717 6.42688C19.0191 6.4271 18.9671 6.43772 18.9186 6.45815C18.8701 6.47857 18.8262 6.50839 18.7893 6.54588L15.151 10.1841C15.0762 10.2589 15.0343 10.3602 15.0342 10.4659C15.0342 10.5715 15.0762 10.6729 15.1509 10.7476Z" fill="white"/>
<path d="M17.2519 13.7992C18.271 13.7992 19.2672 13.497 20.1145 12.9308C20.9618 12.3647 21.6222 11.56 22.0122 10.6185C22.4022 9.67696 22.5042 8.64096 22.3054 7.64146C22.1066 6.64197 21.6159 5.72388 20.8953 5.00328C20.1747 4.28269 19.2566 3.79196 18.2571 3.59315C17.2576 3.39434 16.2216 3.49637 15.2801 3.88636C14.3386 4.27634 13.5339 4.93675 12.9677 5.78408C12.4016 6.63141 12.0994 7.6276 12.0994 8.64667C12.1009 10.0127 12.6443 11.3224 13.6102 12.2884C14.5762 13.2543 15.8858 13.7977 17.2519 13.7992ZM17.2519 4.29108C18.1134 4.29108 18.9555 4.54654 19.6718 5.02515C20.3881 5.50376 20.9463 6.18402 21.276 6.97992C21.6057 7.77581 21.6919 8.65159 21.5239 9.49651C21.3558 10.3414 20.9409 11.1175 20.3318 11.7267C19.7226 12.3358 18.9465 12.7507 18.1016 12.9187C17.2567 13.0868 16.3809 13.0005 15.585 12.6708C14.7891 12.3411 14.1089 11.7829 13.6303 11.0666C13.1517 10.3503 12.8962 9.50814 12.8962 8.64667C12.8975 7.49189 13.3569 6.38477 14.1734 5.56822C14.99 4.75167 16.0971 4.29237 17.2519 4.29108Z" fill="white"/>
<path d="M26.4771 8.64917C26.4771 8.75484 26.519 8.85619 26.5938 8.93091C26.6685 9.00563 26.7698 9.04761 26.8755 9.04761H28.7728C28.8785 9.04761 28.9798 9.00563 29.0545 8.93091C29.1292 8.85619 29.1712 8.75484 29.1712 8.64917C29.1712 8.5435 29.1292 8.44215 29.0545 8.36743C28.9798 8.29271 28.8785 8.25073 28.7728 8.25073H26.8755C26.7698 8.25073 26.6685 8.29271 26.5938 8.36743C26.519 8.44215 26.4771 8.5435 26.4771 8.64917Z" fill="white"/>
<path d="M27.8231 4.6323L25.9259 6.0534C25.8439 6.11769 25.7905 6.2115 25.7769 6.31474C25.7632 6.41797 25.7906 6.52243 25.853 6.60576C25.9155 6.68908 26.0081 6.74465 26.111 6.76056C26.2139 6.77647 26.3189 6.75147 26.4036 6.6909L28.301 5.2698C28.3855 5.2064 28.4414 5.11201 28.4564 5.0074C28.4713 4.90279 28.4441 4.79653 28.3807 4.71199C28.3173 4.62745 28.2229 4.57156 28.1183 4.55662C28.0137 4.54167 27.9074 4.5689 27.8229 4.6323H27.8231Z" fill="white"/>
<path d="M25.9258 11.2397L27.8231 12.6608C27.865 12.6922 27.9126 12.715 27.9633 12.728C28.014 12.741 28.0667 12.7439 28.1185 12.7365C28.1703 12.7291 28.2202 12.7115 28.2652 12.6849C28.3102 12.6582 28.3495 12.6229 28.3809 12.5811C28.4123 12.5392 28.4352 12.4916 28.4481 12.4409C28.4611 12.3902 28.464 12.3375 28.4566 12.2857C28.4492 12.2339 28.4317 12.184 28.405 12.139C28.3784 12.094 28.3431 12.0547 28.3012 12.0233L26.4039 10.6022C26.3192 10.5416 26.2141 10.5166 26.1112 10.5325C26.0083 10.5484 25.9157 10.604 25.8533 10.6873C25.7908 10.7706 25.7635 10.8751 25.7771 10.9783C25.7907 11.0816 25.8442 11.1754 25.9261 11.2397H25.9258Z" fill="white"/>
<path d="M5.33282 8.64917C5.33282 8.75484 5.3748 8.85619 5.44952 8.93091C5.52425 9.00563 5.62559 9.04761 5.73126 9.04761H7.62856C7.73423 9.04761 7.83557 9.00563 7.91029 8.93091C7.98501 8.85619 8.02699 8.75484 8.02699 8.64917C8.02699 8.5435 7.98501 8.44215 7.91029 8.36743C7.83557 8.29271 7.73423 8.25073 7.62856 8.25073H5.73126C5.62559 8.25073 5.52425 8.29271 5.44952 8.36743C5.3748 8.44215 5.33282 8.5435 5.33282 8.64917Z" fill="white"/>
<path d="M8.10032 10.6019L6.20296 12.023C6.11842 12.0864 6.06253 12.1808 6.04759 12.2854C6.03264 12.39 6.05987 12.4963 6.12327 12.5808C6.18667 12.6654 6.28106 12.7213 6.38567 12.7362C6.49028 12.7512 6.59654 12.7239 6.68108 12.6605L8.57838 11.2394C8.66028 11.1751 8.71376 11.0813 8.72737 10.9781C8.74098 10.8749 8.71363 10.7704 8.65118 10.6871C8.58873 10.6037 8.49614 10.5482 8.39324 10.5323C8.29033 10.5164 8.18528 10.5414 8.10058 10.6019H8.10032Z" fill="white"/>
<path d="M8.57813 6.05354L6.68084 4.63218C6.5963 4.56878 6.49004 4.54155 6.38543 4.5565C6.28082 4.57144 6.18643 4.62733 6.12302 4.71187C6.05962 4.7964 6.0324 4.90267 6.04734 5.00728C6.06229 5.11189 6.11817 5.20628 6.20271 5.26968L8.10007 6.69077C8.18477 6.75134 8.28982 6.77635 8.39273 6.76044C8.49563 6.74453 8.58822 6.68896 8.65067 6.60564C8.71312 6.52231 8.74047 6.41785 8.72686 6.31461C8.71325 6.21138 8.65977 6.11757 8.57787 6.05327L8.57813 6.05354Z" fill="white"/>
<path d="M27.912 15.1845C27.8917 15.1358 27.8597 15.0928 27.8188 15.0594C27.7779 15.026 27.7295 15.0032 27.6776 14.9931L22.791 13.3184L23.1402 13.1418C23.4398 12.9905 23.6887 12.7552 23.8566 12.4647C24.0245 12.1742 24.1042 11.841 24.0857 11.5059L24.0452 10.7682C24.0346 10.5692 24.0879 10.372 24.1972 10.2054L24.5982 9.59728C24.7844 9.31528 24.8836 8.9848 24.8836 8.64687C24.8836 8.30895 24.7844 7.97847 24.5982 7.69647L24.1973 7.08845C24.0879 6.92182 24.0347 6.72462 24.0452 6.52559L24.0858 5.78788C24.1042 5.45282 24.0246 5.11963 23.8567 4.82908C23.6888 4.53854 23.4399 4.30322 23.1404 4.1519L22.4874 3.82206C22.3099 3.7329 22.1659 3.58892 22.0767 3.41147L21.7468 2.7585C21.5955 2.45898 21.3602 2.21005 21.0697 2.04215C20.7791 1.87424 20.446 1.79464 20.1109 1.81307L19.3731 1.85365C19.1741 1.86416 18.977 1.81086 18.8104 1.70151L18.2023 1.30062C17.9203 1.11441 17.5899 1.01514 17.2519 1.01514C16.914 1.01514 16.5835 1.11441 16.3015 1.30062L15.6935 1.70151C15.5268 1.8107 15.3297 1.86398 15.1307 1.85365L14.3929 1.81307C14.0579 1.79449 13.7247 1.87401 13.4341 2.04189C13.1435 2.20977 12.9082 2.45873 12.757 2.7583L12.4271 3.41127C12.3379 3.58874 12.1938 3.73273 12.0163 3.82186L11.3635 4.1517C11.064 4.30301 10.815 4.53832 10.6471 4.82887C10.4792 5.11942 10.3996 5.45261 10.418 5.78768L10.4586 6.52539C10.4691 6.72442 10.4159 6.92162 10.3065 7.08825L9.90554 7.69633C9.71935 7.97832 9.62009 8.30879 9.62009 8.64671C9.62009 8.98462 9.71935 9.31509 9.90554 9.59708L10.3064 10.2052C10.4158 10.3718 10.4691 10.569 10.4585 10.768L10.4179 11.5057C10.3995 11.8408 10.4791 12.174 10.647 12.4645C10.8149 12.755 11.0638 12.9903 11.3634 13.1416L11.7407 13.3323L6.82609 14.9923C6.7741 15.0025 6.72542 15.0253 6.68438 15.0588C6.64335 15.0923 6.61123 15.1354 6.59088 15.1843L4.48859 19.1752C4.44082 19.2695 4.43216 19.3788 4.46449 19.4793C4.49682 19.5799 4.56752 19.6637 4.66124 19.7125L6.75968 20.8243V28.5259C6.75775 28.6 6.77696 28.673 6.81507 28.7365C6.85318 28.8 6.9086 28.8514 6.97484 28.8845L17.0834 33.7745C17.1366 33.8006 17.195 33.8143 17.2543 33.8143C17.314 33.8143 17.3729 33.8007 17.4265 33.7745L27.5296 28.8845C27.5957 28.8513 27.651 28.8 27.689 28.7364C27.727 28.6729 27.7461 28.5999 27.744 28.5259V20.8243L29.8449 19.7125C29.9379 19.6629 30.0074 19.5786 30.0384 19.478C30.0693 19.3773 30.0591 19.2685 30.0101 19.1753L27.912 15.1845ZM11.7227 12.4304C11.5615 12.3489 11.4274 12.2222 11.337 12.0657C11.2466 11.9093 11.2038 11.7299 11.2137 11.5495L11.2543 10.8117C11.2738 10.4421 11.1748 10.0759 10.9718 9.76648L10.5709 9.15847C10.4707 9.00662 10.4172 8.82867 10.4172 8.64671C10.4172 8.46474 10.4707 8.28679 10.5709 8.13495L10.9718 7.52693C11.1749 7.21747 11.2739 6.85126 11.2544 6.48163L11.2137 5.74392C11.2038 5.56349 11.2467 5.38407 11.3371 5.22762C11.4275 5.07116 11.5616 4.94445 11.7229 4.86298L12.3757 4.53314C12.7053 4.36757 12.9728 4.10017 13.1384 3.7706L13.4682 3.11756C13.5498 2.95632 13.6765 2.82231 13.8329 2.73191C13.9893 2.64151 14.1687 2.59862 14.3491 2.60849L15.0868 2.64913C15.4565 2.66883 15.8228 2.56985 16.1322 2.36663L16.7402 1.96567C16.892 1.86542 17.07 1.81198 17.2519 1.81198C17.4339 1.81198 17.6118 1.86542 17.7637 1.96567L18.3717 2.36663C18.681 2.56974 19.0472 2.66871 19.4167 2.64913L20.1544 2.60849C20.3349 2.59858 20.5143 2.64144 20.6708 2.73185C20.8273 2.82225 20.954 2.95628 21.0356 3.11756L21.3654 3.77046C21.531 4.10005 21.7984 4.36748 22.128 4.53307L22.781 4.86291C22.9423 4.94439 23.0763 5.07111 23.1667 5.22756C23.2571 5.38402 23.3 5.56343 23.2901 5.74386L23.2494 6.48156C23.2299 6.85119 23.3289 7.2174 23.532 7.52686L23.9328 8.13481C24.0331 8.28667 24.0865 8.46463 24.0865 8.64661C24.0865 8.82858 24.0331 9.00654 23.9328 9.1584L23.5319 9.76641C23.3288 10.0759 23.2298 10.4421 23.2493 10.8117L23.29 11.5494C23.2999 11.7298 23.257 11.9092 23.1666 12.0657C23.0762 12.2221 22.9421 12.3488 22.7808 12.4303L22.128 12.7602C21.7984 12.9258 21.5309 13.1932 21.3653 13.5227L21.0355 14.1758C20.9538 14.3369 20.827 14.4707 20.6706 14.5611C20.5143 14.6515 20.335 14.6945 20.1546 14.6849L19.4169 14.6442C19.0473 14.6247 18.681 14.7237 18.3715 14.9267L17.7635 15.3276C17.6117 15.4279 17.4338 15.4813 17.2518 15.4813C17.0698 15.4813 16.8919 15.4279 16.7401 15.3276L16.1321 14.9267C15.8491 14.7411 15.5181 14.6421 15.1797 14.6417C15.1488 14.6417 15.1177 14.6425 15.0868 14.6442L14.349 14.6849C14.1686 14.6948 13.9892 14.652 13.8327 14.5616C13.6763 14.4711 13.5496 14.3371 13.4682 14.1757L13.1383 13.5227C12.9727 13.1932 12.7053 12.9258 12.3757 12.7602L11.7227 12.4304ZM16.8534 32.7807L7.55655 28.276V21.2481L14.9258 25.1719C14.9816 25.2025 15.0443 25.2185 15.1079 25.2184C15.1483 25.2184 15.1884 25.212 15.2267 25.1995C15.2772 25.1833 15.3239 25.1571 15.3641 25.1225C15.4042 25.088 15.4371 25.0457 15.4606 24.9981L16.8534 22.2101V32.7807ZM17.2505 20.0772L11.384 17.1476C11.2047 17.0582 10.9874 17.0829 10.8756 17.2821C10.8441 17.3291 10.8229 17.3823 10.8135 17.4381C10.8042 17.494 10.8068 17.5511 10.8212 17.6059C10.8357 17.6606 10.8616 17.7116 10.8973 17.7555C10.9331 17.7994 10.9777 17.8352 11.0283 17.8605L16.7169 20.7011L14.929 24.2768L5.37318 19.1952L7.10499 15.9008L8.63234 16.6636C8.72688 16.7108 8.8363 16.7185 8.93653 16.685C9.03677 16.6516 9.1196 16.5796 9.16681 16.4851C9.21402 16.3906 9.22174 16.2811 9.18827 16.1809C9.1548 16.0807 9.08288 15.9978 8.98834 15.9506L7.96867 15.4414L12.4511 13.93L12.7569 14.5352C12.9081 14.8348 13.1433 15.0838 13.4339 15.2518C13.7245 15.4197 14.0577 15.4992 14.3928 15.4806L15.1306 15.44C15.3296 15.4297 15.5267 15.4829 15.6934 15.5922L16.3014 15.9931C16.5834 16.1793 16.9139 16.2785 17.2518 16.2785C17.5897 16.2785 17.9202 16.1793 18.2022 15.9931L18.8102 15.5922C18.9768 15.4829 19.174 15.4296 19.373 15.44L20.1108 15.4806C20.4459 15.4992 20.7791 15.4197 21.0697 15.2517C21.3602 15.0838 21.5955 14.8348 21.7467 14.5352L22.0631 13.9091L26.5375 15.4388L17.2505 20.0772ZM26.9472 28.276L17.6503 32.7807V22.2101L19.0444 24.9984C19.0775 25.0646 19.1283 25.1203 19.1913 25.1592C19.2542 25.1981 19.3267 25.2187 19.4007 25.2187C19.4628 25.2187 19.5239 25.2027 19.5779 25.1722L26.9472 21.2481V28.276ZM19.5744 24.2766L17.7865 20.7007L27.3987 15.9008L29.1304 19.1951L19.5744 24.2766Z" fill="white"/>
<path d="M8.55273 22.7284C8.44706 22.7284 8.34572 22.7704 8.271 22.8451C8.19628 22.9198 8.1543 23.0212 8.1543 23.1268V23.4836C8.1543 23.5892 8.19628 23.6906 8.271 23.7653C8.34572 23.84 8.44706 23.882 8.55273 23.882C8.65841 23.882 8.75975 23.84 8.83447 23.7653C8.90919 23.6906 8.95117 23.5892 8.95117 23.4836V23.1268C8.95117 23.0212 8.90919 22.9198 8.83447 22.8451C8.75975 22.7704 8.65841 22.7284 8.55273 22.7284Z" fill="white"/>
<path d="M8.55273 24.3633C8.44706 24.3633 8.34572 24.4053 8.271 24.48C8.19628 24.5547 8.1543 24.656 8.1543 24.7617V27.4544C8.1543 27.56 8.19628 27.6614 8.271 27.7361C8.34572 27.8108 8.44706 27.8528 8.55273 27.8528C8.65841 27.8528 8.75975 27.8108 8.83447 27.7361C8.90919 27.6614 8.95117 27.56 8.95117 27.4544V24.7617C8.95117 24.656 8.90919 24.5547 8.83447 24.48C8.75975 24.4053 8.65841 24.3633 8.55273 24.3633Z" fill="white"/>
</svg>
