<svg width="29" height="29" viewBox="0 0 29 29" fill="none" xmlns="http://www.w3.org/2000/svg">
<g clip-path="url(#clip0_98_1746)">
<path d="M22.4038 5.15318H4.74227C4.63389 4.61789 4.31921 4.18483 3.88073 3.86087C3.44225 3.53692 3.13027 3.37521 2.58842 3.4301C2.04657 3.485 1.23037 3.88628 0.865343 4.29164C0.500314 4.697 0.434026 5.03774 0.434574 5.58395V20.6609C0.435155 21.2448 0.453624 21.971 0.865343 22.3839C1.27706 22.7969 2.00616 22.8141 2.58842 22.8147H22.4038C22.5203 22.8147 22.7522 22.8973 22.8346 22.8147C22.9169 22.7321 22.8346 22.5008 22.8346 22.3839V5.58395C22.8346 5.46712 22.9169 5.23579 22.8346 5.15318C22.7522 5.07057 22.5203 5.15318 22.4038 5.15318ZM1.29611 5.58395C1.29611 5.23346 1.47977 4.97024 1.72688 4.72241C1.97399 4.47458 2.23896 4.29164 2.58842 4.29164C2.93788 4.29164 3.20285 4.47458 3.44996 4.72241C3.69707 4.97024 3.88073 5.23346 3.88073 5.58395V18.507C3.50088 18.2204 3.06376 18.0763 2.58842 18.0763C2.11308 18.0763 1.67596 18.2204 1.29611 18.507V5.58395ZM21.973 21.9532H2.58842C2.2391 21.9527 1.97389 21.7701 1.72688 21.5224C1.47988 21.2747 1.29658 21.0112 1.29611 20.6609V20.2301C1.29611 19.8796 1.47977 19.6164 1.72688 19.3686C1.97399 19.1207 2.23896 18.9378 2.58842 18.9378C2.93788 18.9378 3.20285 19.1207 3.44996 19.3686C3.69707 19.6164 3.88073 19.8796 3.88073 20.2301C3.88073 20.3469 3.79836 20.5783 3.88073 20.6609C3.9631 20.7435 4.19501 20.6609 4.3115 20.6609C4.42798 20.6609 4.6599 20.7435 4.74227 20.6609C4.82464 20.5783 4.74227 20.3469 4.74227 20.2301V6.01472H21.973V21.9532Z" fill="white"/>
<path d="M27.1424 13.3378H24.5578C24.4403 13.3378 24.21 13.2545 24.127 13.3378C24.044 13.4211 24.127 13.6508 24.127 13.7686V24.107H12.0654C11.948 24.107 11.7177 24.0237 11.6347 24.107C11.5517 24.1903 11.6347 24.42 11.6347 24.5378V27.1224C11.6347 27.2402 11.5517 27.4699 11.6347 27.5532C11.7177 27.6365 11.948 27.5532 12.0654 27.5532H27.1424C27.2598 27.5532 27.4901 27.6365 27.5731 27.5532C27.6562 27.4699 27.5731 27.2402 27.5731 27.1224V13.7686C27.5731 13.6508 27.6562 13.4211 27.5731 13.3378C27.4901 13.2545 27.2598 13.3378 27.1424 13.3378ZM26.7116 26.6917H12.4962V24.9686H13.3578V25.3993C13.3578 25.5172 13.2747 25.7468 13.3578 25.8301C13.4408 25.9134 13.6711 25.8301 13.7885 25.8301C13.9059 25.8301 14.1363 25.9134 14.2193 25.8301C14.3023 25.7468 14.2193 25.5172 14.2193 25.3993V24.9686H14.6501V25.3993C14.6501 25.5172 14.567 25.7468 14.6501 25.8301C14.7331 25.9134 14.9634 25.8301 15.0808 25.8301C15.1983 25.8301 15.4286 25.9134 15.5116 25.8301C15.5946 25.7468 15.5116 25.5172 15.5116 25.3993V24.9686H15.9424V25.3993C15.9424 25.5172 16.2901 25.7468 16.3731 25.8301C16.4562 25.9134 16.2557 25.8301 16.3731 25.8301C16.4906 25.8301 16.7209 25.9134 16.8039 25.8301C16.8869 25.7468 16.8039 25.5172 16.8039 25.3993V24.9686H17.2347V25.3993C17.2347 25.5172 17.5824 25.7468 17.6654 25.8301C17.7485 25.9134 17.548 25.8301 17.6654 25.8301C17.7829 25.8301 18.0132 25.9134 18.0962 25.8301C18.1792 25.7468 18.0962 25.5172 18.0962 25.3993V24.9686H18.527V25.3993C18.527 25.5172 18.8747 25.7468 18.9578 25.8301C19.0408 25.9134 18.8403 25.8301 18.9578 25.8301C19.0752 25.8301 19.3055 25.9134 19.3885 25.8301C19.4716 25.7468 19.8193 25.5172 19.8193 25.3993V24.9686H20.2501V25.3993C20.2501 25.5172 20.167 25.7468 20.2501 25.8301C20.3331 25.9134 20.5634 25.8301 20.6808 25.8301C20.7983 25.8301 20.5978 25.9134 20.6808 25.8301C20.7639 25.7468 21.1116 25.5172 21.1116 25.3993V24.9686H21.5424V25.3993C21.5424 25.5172 21.4593 25.7468 21.5424 25.8301C21.6254 25.9134 21.8557 25.8301 21.9731 25.8301C22.0906 25.8301 21.8901 25.9134 21.9731 25.8301C22.0562 25.7468 22.4039 25.5172 22.4039 25.3993V24.9686H22.8347V25.3993C22.8347 25.5172 22.7517 25.7468 22.8347 25.8301C22.9177 25.9134 23.148 25.8301 23.2654 25.8301C23.3829 25.8301 23.1824 25.9134 23.2654 25.8301C23.3485 25.7468 23.6962 25.5172 23.6962 25.3993V24.9686H26.7116V26.6917ZM26.7116 24.107H24.9885V14.1993H26.7116V24.107Z" fill="white"/>
<path d="M25.85 26.2608C26.0879 26.2608 26.2807 26.068 26.2807 25.8301C26.2807 25.5922 26.0879 25.3993 25.85 25.3993C25.6121 25.3993 25.4192 25.5922 25.4192 25.8301C25.4192 26.068 25.6121 26.2608 25.85 26.2608Z" fill="white"/>
<path d="M6.03446 2.99934L8.61908 3.86088C8.66414 3.87548 8.57159 3.86086 8.61908 3.86088H21.5422C21.835 3.86055 22.1966 3.632 22.4037 3.43011C22.6108 3.22822 22.8341 3.28486 22.8345 2.99934V2.56857C22.8341 2.28305 22.6108 1.90892 22.4037 1.70703C22.1966 1.50514 21.835 1.27659 21.5422 1.27626H8.61908C8.57159 1.27628 8.66414 1.26166 8.61908 1.27626L6.03446 2.1378C5.94647 2.16638 5.65793 2.06445 5.6037 2.1378C5.54946 2.21115 5.6037 2.47814 5.6037 2.56857C5.6037 2.659 5.54946 2.92599 5.6037 2.99934C5.65793 3.07269 5.94647 2.97076 6.03446 2.99934ZM21.1114 2.1378H21.5422C21.6007 2.1378 21.9315 2.09741 21.9729 2.1378C22.0144 2.17819 21.9729 2.51145 21.9729 2.56857V2.99934C21.9729 3.05646 22.0144 2.95895 21.9729 2.99934C21.9315 3.03973 21.6007 2.99934 21.5422 2.99934H21.1114V2.1378ZM19.8191 2.1378H20.2498V2.99934H19.8191V2.1378ZM9.91139 2.1378H18.9575V2.99934H9.91139V2.1378ZM8.61908 2.1378H9.04985V2.99934H8.61908L7.32677 2.56857L8.61908 2.1378Z" fill="white"/>
<path d="M6.03454 20.661H16.373C16.4873 20.661 16.723 20.7417 16.8038 20.661C16.8846 20.5802 16.8038 20.3444 16.8038 20.2302V15.061C16.8038 14.9467 16.8846 14.711 16.8038 14.6302C16.723 14.5494 16.4873 14.6302 16.373 14.6302H11.6345V9.89172C11.6345 9.77748 11.7153 9.54174 11.6345 9.46095C11.5538 9.38017 11.318 9.46095 11.2038 9.46095H6.03454C5.9203 9.46095 5.68456 9.38017 5.60378 9.46095C5.52299 9.54174 5.60378 9.77748 5.60378 9.89172V20.2302C5.60378 20.3444 5.52299 20.5802 5.60378 20.661C5.68456 20.7417 5.9203 20.661 6.03454 20.661ZM6.46531 15.4917H7.75762C7.87187 15.4917 8.10761 15.5725 8.18839 15.4917C8.26918 15.4109 8.18839 15.1752 8.18839 15.061C8.18839 14.9467 8.26918 14.711 8.18839 14.6302C8.10761 14.5494 7.87187 14.6302 7.75762 14.6302H6.46531V10.3225H10.773V14.6302H9.4807C9.36645 14.6302 9.13071 14.5494 9.04993 14.6302C8.96914 14.711 9.04993 14.9467 9.04993 15.061C9.04993 15.1752 8.96914 15.4109 9.04993 15.4917C9.13071 15.5725 9.36645 15.4917 9.4807 15.4917H10.773V16.784C10.773 16.8983 10.6922 17.134 10.773 17.2148C10.8538 17.2956 11.0895 17.2148 11.2038 17.2148C11.318 17.2148 11.5538 17.2956 11.6345 17.2148C11.7153 17.134 11.6345 16.8983 11.6345 16.784V15.4917H15.9422V19.7994H11.6345V18.5071C11.6345 18.3929 11.7153 18.1571 11.6345 18.0763C11.5538 17.9956 11.318 18.0763 11.2038 18.0763C11.0895 18.0763 10.8538 17.9956 10.773 18.0763C10.6922 18.1571 10.773 18.3929 10.773 18.5071V19.7994H6.46531V15.4917Z" fill="white"/>
<path d="M12.9268 7.73777H20.2498C20.3641 7.73777 20.5998 7.81856 20.6806 7.73777C20.7614 7.65699 20.6806 7.42125 20.6806 7.30701C20.6806 7.19276 20.7614 6.95702 20.6806 6.87624C20.5998 6.79545 20.3641 6.87624 20.2498 6.87624H12.9268C12.8125 6.87624 12.5768 6.79545 12.496 6.87624C12.4152 6.95702 12.496 7.19276 12.496 7.30701C12.496 7.42125 12.4152 7.65699 12.496 7.73777C12.5768 7.81856 12.8125 7.73777 12.9268 7.73777Z" fill="white"/>
<path d="M12.9268 9.03013H20.2498C20.3641 9.03013 20.5998 9.11092 20.6806 9.03013C20.7614 8.94935 20.6806 8.71361 20.6806 8.59936C20.6806 8.48512 20.7614 8.24938 20.6806 8.16859C20.5998 8.08781 20.3641 8.16859 20.2498 8.16859H12.9268C12.8125 8.16859 12.5768 8.08781 12.496 8.16859C12.4152 8.24938 12.496 8.48512 12.496 8.59936C12.496 8.71361 12.4152 8.94935 12.496 9.03013C12.5768 9.11092 12.8125 9.03013 12.9268 9.03013Z" fill="white"/>
<path d="M12.9268 10.3225H16.8037C16.9179 10.3225 17.1537 10.4033 17.2344 10.3225C17.3152 10.2417 17.2344 10.006 17.2344 9.89172C17.2344 9.77748 17.3152 9.54174 17.2344 9.46095C17.1537 9.38017 16.9179 9.46095 16.8037 9.46095H12.9268C12.8125 9.46095 12.5768 9.38017 12.496 9.46095C12.4152 9.54174 12.496 9.77748 12.496 9.89172C12.496 10.006 12.4152 10.2417 12.496 10.3225C12.5768 10.4033 12.8125 10.3225 12.9268 10.3225Z" fill="white"/>
<path d="M12.9268 12.0455H20.2498C20.3641 12.0455 20.5998 12.1263 20.6806 12.0455C20.7614 11.9647 20.6806 11.729 20.6806 11.6147C20.6806 11.5005 20.7614 11.2648 20.6806 11.184C20.5998 11.1032 20.3641 11.184 20.2498 11.184H12.9268C12.8125 11.184 12.5768 11.1032 12.496 11.184C12.4152 11.2648 12.496 11.5005 12.496 11.6147C12.496 11.729 12.4152 11.9647 12.496 12.0455C12.5768 12.1263 12.8125 12.0455 12.9268 12.0455Z" fill="white"/>
<path d="M12.9268 13.3379H16.8037C16.9179 13.3379 17.1537 13.4187 17.2344 13.3379C17.3152 13.2571 17.2344 13.0213 17.2344 12.9071C17.2344 12.7929 17.3152 12.5571 17.2344 12.4763C17.1537 12.3955 16.9179 12.4763 16.8037 12.4763H12.9268C12.8125 12.4763 12.5768 12.3955 12.496 12.4763C12.4152 12.5571 12.496 12.7929 12.496 12.9071C12.496 13.0213 12.4152 13.2571 12.496 13.3379C12.5768 13.4187 12.8125 13.3379 12.9268 13.3379Z" fill="white"/>
</g>
<defs>
<clipPath id="clip0_98_1746">
<rect width="28" height="28" fill="white" transform="translate(0.00378418 0.414673)"/>
</clipPath>
</defs>
</svg>
