<svg width="56" height="56" viewBox="0 0 56 56" fill="none" xmlns="http://www.w3.org/2000/svg">
<g filter="url(#filter0_di_98_1776)">
<circle cx="29.1112" cy="26.9999" r="26" transform="rotate(90.2458 29.1112 26.9999)" fill="#E14287"/>
</g>
<g clip-path="url(#clip0_98_1776)">
<path d="M37.4038 17.1532H19.7423C19.6339 16.6179 19.3192 16.1848 18.8807 15.8609C18.4422 15.5369 18.1303 15.3752 17.5884 15.4301C17.0466 15.485 16.2304 15.8863 15.8653 16.2916C15.5003 16.697 15.434 17.0377 15.4346 17.5839V32.6609C15.4352 33.2448 15.4536 33.971 15.8653 34.3839C16.2771 34.7969 17.0062 34.8141 17.5884 34.8147H37.4038C37.5203 34.8147 37.7522 34.8973 37.8346 34.8147C37.9169 34.7321 37.8346 34.5008 37.8346 34.3839V17.5839C37.8346 17.4671 37.9169 17.2358 37.8346 17.1532C37.7522 17.0706 37.5203 17.1532 37.4038 17.1532ZM16.2961 17.5839C16.2961 17.2335 16.4798 16.9702 16.7269 16.7224C16.974 16.4746 17.239 16.2916 17.5884 16.2916C17.9379 16.2916 18.2029 16.4746 18.45 16.7224C18.6971 16.9702 18.8807 17.2335 18.8807 17.5839V30.507C18.5009 30.2204 18.0638 30.0763 17.5884 30.0763C17.1131 30.0763 16.676 30.2204 16.2961 30.507V17.5839ZM36.973 33.9532H17.5884C17.2391 33.9527 16.9739 33.7701 16.7269 33.5224C16.4799 33.2747 16.2966 33.0112 16.2961 32.6609V32.2301C16.2961 31.8796 16.4798 31.6164 16.7269 31.3686C16.974 31.1207 17.239 30.9378 17.5884 30.9378C17.9379 30.9378 18.2029 31.1207 18.45 31.3686C18.6971 31.6164 18.8807 31.8796 18.8807 32.2301C18.8807 32.3469 18.7984 32.5783 18.8807 32.6609C18.9631 32.7435 19.195 32.6609 19.3115 32.6609C19.428 32.6609 19.6599 32.7435 19.7423 32.6609C19.8246 32.5783 19.7423 32.3469 19.7423 32.2301V18.0147H36.973V33.9532Z" fill="white"/>
<path d="M42.1424 25.3378H39.5578C39.4403 25.3378 39.21 25.2545 39.127 25.3378C39.044 25.4211 39.127 25.6508 39.127 25.7686V36.107H27.0654C26.948 36.107 26.7177 36.0237 26.6347 36.107C26.5517 36.1903 26.6347 36.42 26.6347 36.5378V39.1224C26.6347 39.2402 26.5517 39.4699 26.6347 39.5532C26.7177 39.6365 26.948 39.5532 27.0654 39.5532H42.1424C42.2598 39.5532 42.4901 39.6365 42.5731 39.5532C42.6562 39.4699 42.5731 39.2402 42.5731 39.1224V25.7686C42.5731 25.6508 42.6562 25.4211 42.5731 25.3378C42.4901 25.2545 42.2598 25.3378 42.1424 25.3378ZM41.7116 38.6917H27.4962V36.9686H28.3578V37.3993C28.3578 37.5172 28.2747 37.7468 28.3578 37.8301C28.4408 37.9134 28.6711 37.8301 28.7885 37.8301C28.9059 37.8301 29.1363 37.9134 29.2193 37.8301C29.3023 37.7468 29.2193 37.5172 29.2193 37.3993V36.9686H29.6501V37.3993C29.6501 37.5172 29.567 37.7468 29.6501 37.8301C29.7331 37.9134 29.9634 37.8301 30.0808 37.8301C30.1983 37.8301 30.4286 37.9134 30.5116 37.8301C30.5946 37.7468 30.5116 37.5172 30.5116 37.3993V36.9686H30.9424V37.3993C30.9424 37.5172 31.2901 37.7468 31.3731 37.8301C31.4562 37.9134 31.2557 37.8301 31.3731 37.8301C31.4906 37.8301 31.7209 37.9134 31.8039 37.8301C31.8869 37.7468 31.8039 37.5172 31.8039 37.3993V36.9686H32.2347V37.3993C32.2347 37.5172 32.5824 37.7468 32.6654 37.8301C32.7485 37.9134 32.548 37.8301 32.6654 37.8301C32.7829 37.8301 33.0132 37.9134 33.0962 37.8301C33.1792 37.7468 33.0962 37.5172 33.0962 37.3993V36.9686H33.527V37.3993C33.527 37.5172 33.8747 37.7468 33.9578 37.8301C34.0408 37.9134 33.8403 37.8301 33.9578 37.8301C34.0752 37.8301 34.3055 37.9134 34.3885 37.8301C34.4716 37.7468 34.8193 37.5172 34.8193 37.3993V36.9686H35.2501V37.3993C35.2501 37.5172 35.167 37.7468 35.2501 37.8301C35.3331 37.9134 35.5634 37.8301 35.6808 37.8301C35.7983 37.8301 35.5978 37.9134 35.6808 37.8301C35.7639 37.7468 36.1116 37.5172 36.1116 37.3993V36.9686H36.5424V37.3993C36.5424 37.5172 36.4593 37.7468 36.5424 37.8301C36.6254 37.9134 36.8557 37.8301 36.9731 37.8301C37.0906 37.8301 36.8901 37.9134 36.9731 37.8301C37.0562 37.7468 37.4039 37.5172 37.4039 37.3993V36.9686H37.8347V37.3993C37.8347 37.5172 37.7517 37.7468 37.8347 37.8301C37.9177 37.9134 38.148 37.8301 38.2654 37.8301C38.3829 37.8301 38.1824 37.9134 38.2654 37.8301C38.3485 37.7468 38.6962 37.5172 38.6962 37.3993V36.9686H41.7116V38.6917ZM41.7116 36.107H39.9885V26.1993H41.7116V36.107Z" fill="white"/>
<path d="M40.85 38.2608C41.0879 38.2608 41.2807 38.068 41.2807 37.8301C41.2807 37.5922 41.0879 37.3993 40.85 37.3993C40.6121 37.3993 40.4192 37.5922 40.4192 37.8301C40.4192 38.068 40.6121 38.2608 40.85 38.2608Z" fill="white"/>
<path d="M21.0345 14.9993L23.6191 15.8609C23.6641 15.8755 23.5716 15.8609 23.6191 15.8609H36.5422C36.835 15.8605 37.1966 15.632 37.4037 15.4301C37.6108 15.2282 37.8341 15.2849 37.8345 14.9993V14.5686C37.8341 14.2831 37.6108 13.9089 37.4037 13.707C37.1966 13.5051 36.835 13.2766 36.5422 13.2763H23.6191C23.5716 13.2763 23.6641 13.2617 23.6191 13.2763L21.0345 14.1378C20.9465 14.1664 20.6579 14.0644 20.6037 14.1378C20.5495 14.2112 20.6037 14.4781 20.6037 14.5686C20.6037 14.659 20.5495 14.926 20.6037 14.9993C20.6579 15.0727 20.9465 14.9708 21.0345 14.9993ZM36.1114 14.1378H36.5422C36.6007 14.1378 36.9315 14.0974 36.9729 14.1378C37.0144 14.1782 36.9729 14.5114 36.9729 14.5686V14.9993C36.9729 15.0565 37.0144 14.9589 36.9729 14.9993C36.9315 15.0397 36.6007 14.9993 36.5422 14.9993H36.1114V14.1378ZM34.8191 14.1378H35.2498V14.9993H34.8191V14.1378ZM24.9114 14.1378H33.9575V14.9993H24.9114V14.1378ZM23.6191 14.1378H24.0498V14.9993H23.6191L22.3268 14.5686L23.6191 14.1378Z" fill="white"/>
<path d="M21.0345 32.661H31.373C31.4873 32.661 31.723 32.7417 31.8038 32.661C31.8846 32.5802 31.8038 32.3444 31.8038 32.2302V27.061C31.8038 26.9467 31.8846 26.711 31.8038 26.6302C31.723 26.5494 31.4873 26.6302 31.373 26.6302H26.6345V21.8917C26.6345 21.7775 26.7153 21.5417 26.6345 21.461C26.5538 21.3802 26.318 21.461 26.2038 21.461H21.0345C20.9203 21.461 20.6846 21.3802 20.6038 21.461C20.523 21.5417 20.6038 21.7775 20.6038 21.8917V32.2302C20.6038 32.3444 20.523 32.5802 20.6038 32.661C20.6846 32.7417 20.9203 32.661 21.0345 32.661ZM21.4653 27.4917H22.7576C22.8719 27.4917 23.1076 27.5725 23.1884 27.4917C23.2692 27.4109 23.1884 27.1752 23.1884 27.061C23.1884 26.9467 23.2692 26.711 23.1884 26.6302C23.1076 26.5494 22.8719 26.6302 22.7576 26.6302H21.4653V22.3225H25.773V26.6302H24.4807C24.3665 26.6302 24.1307 26.5494 24.0499 26.6302C23.9691 26.711 24.0499 26.9467 24.0499 27.061C24.0499 27.1752 23.9691 27.4109 24.0499 27.4917C24.1307 27.5725 24.3665 27.4917 24.4807 27.4917H25.773V28.784C25.773 28.8983 25.6922 29.134 25.773 29.2148C25.8538 29.2956 26.0895 29.2148 26.2038 29.2148C26.318 29.2148 26.5538 29.2956 26.6345 29.2148C26.7153 29.134 26.6345 28.8983 26.6345 28.784V27.4917H30.9422V31.7994H26.6345V30.5071C26.6345 30.3929 26.7153 30.1571 26.6345 30.0763C26.5538 29.9956 26.318 30.0763 26.2038 30.0763C26.0895 30.0763 25.8538 29.9956 25.773 30.0763C25.6922 30.1571 25.773 30.3929 25.773 30.5071V31.7994H21.4653V27.4917Z" fill="white"/>
<path d="M27.9268 19.7378H35.2498C35.3641 19.7378 35.5998 19.8186 35.6806 19.7378C35.7614 19.657 35.6806 19.4213 35.6806 19.307C35.6806 19.1928 35.7614 18.957 35.6806 18.8762C35.5998 18.7955 35.3641 18.8762 35.2498 18.8762H27.9268C27.8125 18.8762 27.5768 18.7955 27.496 18.8762C27.4152 18.957 27.496 19.1928 27.496 19.307C27.496 19.4213 27.4152 19.657 27.496 19.7378C27.5768 19.8186 27.8125 19.7378 27.9268 19.7378Z" fill="white"/>
<path d="M27.9268 21.0301H35.2498C35.3641 21.0301 35.5998 21.1109 35.6806 21.0301C35.7614 20.9493 35.6806 20.7136 35.6806 20.5994C35.6806 20.4851 35.7614 20.2494 35.6806 20.1686C35.5998 20.0878 35.3641 20.1686 35.2498 20.1686H27.9268C27.8125 20.1686 27.5768 20.0878 27.496 20.1686C27.4152 20.2494 27.496 20.4851 27.496 20.5994C27.496 20.7136 27.4152 20.9493 27.496 21.0301C27.5768 21.1109 27.8125 21.0301 27.9268 21.0301Z" fill="white"/>
<path d="M27.9268 22.3225H31.8037C31.9179 22.3225 32.1537 22.4033 32.2344 22.3225C32.3152 22.2417 32.2344 22.006 32.2344 21.8917C32.2344 21.7775 32.3152 21.5417 32.2344 21.461C32.1537 21.3802 31.9179 21.461 31.8037 21.461H27.9268C27.8125 21.461 27.5768 21.3802 27.496 21.461C27.4152 21.5417 27.496 21.7775 27.496 21.8917C27.496 22.006 27.4152 22.2417 27.496 22.3225C27.5768 22.4033 27.8125 22.3225 27.9268 22.3225Z" fill="white"/>
<path d="M27.9268 24.0455H35.2498C35.3641 24.0455 35.5998 24.1263 35.6806 24.0455C35.7614 23.9647 35.6806 23.729 35.6806 23.6147C35.6806 23.5005 35.7614 23.2648 35.6806 23.184C35.5998 23.1032 35.3641 23.184 35.2498 23.184H27.9268C27.8125 23.184 27.5768 23.1032 27.496 23.184C27.4152 23.2648 27.496 23.5005 27.496 23.6147C27.496 23.729 27.4152 23.9647 27.496 24.0455C27.5768 24.1263 27.8125 24.0455 27.9268 24.0455Z" fill="white"/>
<path d="M27.9268 25.3379H31.8037C31.9179 25.3379 32.1537 25.4187 32.2344 25.3379C32.3152 25.2571 32.2344 25.0213 32.2344 24.9071C32.2344 24.7929 32.3152 24.5571 32.2344 24.4763C32.1537 24.3955 31.9179 24.4763 31.8037 24.4763H27.9268C27.8125 24.4763 27.5768 24.3955 27.496 24.4763C27.4152 24.5571 27.496 24.7929 27.496 24.9071C27.496 25.0213 27.4152 25.2571 27.496 25.3379C27.5768 25.4187 27.8125 25.3379 27.9268 25.3379Z" fill="white"/>
</g>
<defs>
<filter id="filter0_di_98_1776" x="0.111206" y="-6.00012" width="63" height="62" filterUnits="userSpaceOnUse" color-interpolation-filters="sRGB">
<feFlood flood-opacity="0" result="BackgroundImageFix"/>
<feColorMatrix in="SourceAlpha" type="matrix" values="0 0 0 0 0 0 0 0 0 0 0 0 0 0 0 0 0 0 127 0" result="hardAlpha"/>
<feOffset dx="-3" dy="3"/>
<feComposite in2="hardAlpha" operator="out"/>
<feColorMatrix type="matrix" values="0 0 0 0 0.504167 0 0 0 0 0 0 0 0 0 0.218789 0 0 0 1 0"/>
<feBlend mode="normal" in2="BackgroundImageFix" result="effect1_dropShadow_98_1776"/>
<feBlend mode="normal" in="SourceGraphic" in2="effect1_dropShadow_98_1776" result="shape"/>
<feColorMatrix in="SourceAlpha" type="matrix" values="0 0 0 0 0 0 0 0 0 0 0 0 0 0 0 0 0 0 127 0" result="hardAlpha"/>
<feOffset dx="8" dy="-7"/>
<feGaussianBlur stdDeviation="4.5"/>
<feComposite in2="hardAlpha" operator="arithmetic" k2="-1" k3="1"/>
<feColorMatrix type="matrix" values="0 0 0 0 0 0 0 0 0 0 0 0 0 0 0 0 0 0 0.3 0"/>
<feBlend mode="normal" in2="shape" result="effect2_innerShadow_98_1776"/>
</filter>
<clipPath id="clip0_98_1776">
<rect width="28" height="28" fill="white" transform="translate(15.0038 12.4147)"/>
</clipPath>
</defs>
</svg>
